SplineFontDB: 3.0
FontName: ArchivoNarrowDevanagari-Regular
FullName: Archivo Narrow Devanagari Regular
FamilyName: Archivo Narrow Devanagari
Weight: Regular
Copyright: Copyright (c) 2012-2014, Omnibus-Type (www.omnibus-type.com omnibus.type@gmail.com) with Reserved Font Name 'Archivo'
Version: 001.004
ItalicAngle: 0
UnderlinePosition: -50
UnderlineWidth: 50
Ascent: 800
Descent: 200
InvalidEm: 0
sfntRevision: 0x00010106
LayerCount: 2
Layer: 0 0 "Back" 1
Layer: 1 0 "Fore" 0
XUID: [1021 191 1600663927 6354541]
FSType: 8
OS2Version: 3
OS2_WeightWidthSlopeOnly: 0
OS2_UseTypoMetrics: 1
CreationTime: 1412650100
ModificationTime: 1412675768
PfmFamily: 17
TTFWeight: 400
TTFWidth: 5
LineGap: 0
VLineGap: 0
Panose: 2 11 5 6 2 2 2 2 11 4
OS2TypoAscent: 890
OS2TypoAOffset: 0
OS2TypoDescent: -404
OS2TypoDOffset: 0
OS2TypoLinegap: 0
OS2WinAscent: 890
OS2WinAOffset: 0
OS2WinDescent: 404
OS2WinDOffset: 0
HheadAscent: 890
HheadAOffset: 0
HheadDescent: -404
HheadDOffset: 0
OS2SubXSize: 650
OS2SubYSize: 600
OS2SubXOff: 0
OS2SubYOff: 75
OS2SupXSize: 650
OS2SupYSize: 600
OS2SupXOff: 0
OS2SupYOff: 350
OS2StrikeYSize: 50
OS2StrikeYPos: 279
OS2CapHeight: 0
OS2XHeight: 0
OS2Vendor: 'OMNI'
OS2CodePages: 20000093.00000000
OS2UnicodeRanges: 00008007.00000000.00000000.00000000
Lookup: 1 0 0 "'aalt' Access All Alternates lookup 0" { "'aalt' Access All Alternates lookup 0 subtable"  } ['aalt' ('DFLT' <'dflt' > 'dev2' <'HIN ' 'MAR ' 'NEP ' 'dflt' > 'deva' <'HIN ' 'MAR ' 'NEP ' 'dflt' > 'grek' <'dflt' > 'latn' <'CAT ' 'MOL ' 'ROM ' 'dflt' > ) ]
Lookup: 3 0 0 "'aalt' Access All Alternates lookup 1" { "'aalt' Access All Alternates lookup 1 subtable"  } ['aalt' ('DFLT' <'dflt' > 'dev2' <'HIN ' 'MAR ' 'NEP ' 'dflt' > 'deva' <'HIN ' 'MAR ' 'NEP ' 'dflt' > 'grek' <'dflt' > 'latn' <'CAT ' 'MOL ' 'ROM ' 'dflt' > ) ]
Lookup: 4 0 0 "Ligature Substitution lookup 2" { "Ligature Substitution lookup 2 subtable"  } []

StartChar: .notdef
Encoding: 65536 -1 0
Width: 442
Flags: MW
HStem: 0 44<71 371 71 442> 575 44<71 371 71 71>
VStem: 0 44<84 535 84 619> 398 44<84 535 535 535>
LayerCount: 2
Back
Fore
SplineSet
0 619 m 1
 0 619 442 619 442 619 c 1
 442 619 442 0 442 0 c 1
 442 0 0 0 0 0 c 1
 0 0 0 619 0 619 c 1
371 575 m 1
 371 575 71 575 71 575 c 1
 71 575 221 349 221 349 c 1
 221 349 371 575 371 575 c 1
44 535 m 1
 44 535 44 84 44 84 c 1
 44 84 194 309 194 309 c 1
 194 309 44 535 44 535 c 1
398 535 m 1
 398 535 248 309 248 309 c 1
 248 309 398 84 398 84 c 1
 398 84 398 535 398 535 c 1
221 270 m 1
 221 270 71 44 71 44 c 1
 71 44 371 44 371 44 c 1
 371 44 221 270 221 270 c 1
EndSplineSet
EndChar

StartChar: A
Encoding: 65 65 2
Width: 484
GlyphClass: 2
Flags: MW
HStem: 0 21G<-1 77 -1 -1 400 484 400 400> 135 71<140 337 140 359 118 337> 543 63<237 237 237 240>
VStem: -1 485<0 0>
AnchorPoint: "Anchor-1" 0 0 basechar 0
AnchorPoint: "Anchor-0" 242 606 basechar 0
LayerCount: 2
Back
Fore
SplineSet
400 0 m 1
 400 0 359 135 359 135 c 1
 359 135 118 135 118 135 c 1
 118 135 77 0 77 0 c 1
 77 0 -1 0 -1 0 c 1
 -1 0 192 606 192 606 c 1
 192 606 292 606 292 606 c 1
 292 606 484 0 484 0 c 1
 484 0 400 0 400 0 c 1
237 543 m 1
 237 543 229 495 223 476 c 2
 223 476 140 206 140 206 c 1
 140 206 337 206 337 206 c 1
 337 206 255 476 255 476 c 2
 248 496 240 543 240 543 c 1
 240 543 237 543 237 543 c 1
EndSplineSet
Substitution2: "Single Substitution lookup 33 subtable" ordfeminine
Substitution2: "'aalt' Access All Alternates lookup 0 subtable" ordfeminine
Position2: "'cpsp' Capital Spacing lookup 0 subtable" dx=5 dy=0 dh=10 dv=0
EndChar

StartChar: Aacute
Encoding: 193 193 3
Width: 484
GlyphClass: 2
Flags: MW
HStem: 0 21G<-1 77 -1 -1 400 484 400 400> 135 71<140 337 140 359 118 337> 543 63<237 237 237 240> 664 117<189 345 189 345>
VStem: -1 485<0 0>
LayerCount: 2
Back
Fore
SplineSet
250 664 m 1
 250 664 189 664 189 664 c 1
 189 664 265 781 265 781 c 1
 265 781 345 781 345 781 c 1
 345 781 346 778 346 778 c 1
 346 778 250 664 250 664 c 1
400 0 m 1
 400 0 359 135 359 135 c 1
 359 135 118 135 118 135 c 1
 118 135 77 0 77 0 c 1
 77 0 -1 0 -1 0 c 1
 -1 0 192 606 192 606 c 1
 192 606 292 606 292 606 c 1
 292 606 484 0 484 0 c 1
 484 0 400 0 400 0 c 1
237 543 m 1
 237 543 229 495 223 476 c 2
 223 476 140 206 140 206 c 1
 140 206 337 206 337 206 c 1
 337 206 255 476 255 476 c 2
 248 496 240 543 240 543 c 1
 240 543 237 543 237 543 c 1
EndSplineSet
Position2: "'cpsp' Capital Spacing lookup 0 subtable" dx=5 dy=0 dh=10 dv=0
EndChar

StartChar: Abreve
Encoding: 258 258 4
Width: 484
GlyphClass: 2
Flags: MW
HStem: 0 21G<-1 77 -1 -1 400 484 400 400> 135 71<140 337 140 359 118 337> 543 63<237 237 237 240> 695 56<226.5 256 226.5 275>
VStem: -1 485<0 0>
LayerCount: 2
Back
Fore
SplineSet
351 781 m 1
 351 741 309 695 241 695 c 0
 174 695 133 741 133 781 c 1
 133 781 189 781 189 781 c 1
 192 768 212 751 241 751 c 0
 271 751 293 768 294 781 c 1
 294 781 351 781 351 781 c 1
400 0 m 1
 400 0 359 135 359 135 c 1
 359 135 118 135 118 135 c 1
 118 135 77 0 77 0 c 1
 77 0 -1 0 -1 0 c 1
 -1 0 192 606 192 606 c 1
 192 606 292 606 292 606 c 1
 292 606 484 0 484 0 c 1
 484 0 400 0 400 0 c 1
237 543 m 1
 237 543 229 495 223 476 c 2
 223 476 140 206 140 206 c 1
 140 206 337 206 337 206 c 1
 337 206 255 476 255 476 c 2
 248 496 240 543 240 543 c 1
 240 543 237 543 237 543 c 1
EndSplineSet
Position2: "'cpsp' Capital Spacing lookup 0 subtable" dx=5 dy=0 dh=10 dv=0
EndChar

StartChar: Acircumflex
Encoding: 194 194 5
Width: 484
GlyphClass: 2
Flags: MW
HStem: 0 21G<-1 77 -1 -1 400 484 400 400> 135 71<140 337 140 359 118 337> 543 63<237 237 237 240> 660 120<132 277 132 277 208 352 208 281>
VStem: -1 485<0 0>
LayerCount: 2
Back
Fore
SplineSet
281 660 m 1
 281 660 242 730 242 730 c 1
 242 730 202 660 202 660 c 1
 202 660 132 660 132 660 c 1
 132 660 208 780 208 780 c 1
 208 780 277 780 277 780 c 1
 277 780 352 660 352 660 c 1
 352 660 281 660 281 660 c 1
400 0 m 1
 400 0 359 135 359 135 c 1
 359 135 118 135 118 135 c 1
 118 135 77 0 77 0 c 1
 77 0 -1 0 -1 0 c 1
 -1 0 192 606 192 606 c 1
 192 606 292 606 292 606 c 1
 292 606 484 0 484 0 c 1
 484 0 400 0 400 0 c 1
237 543 m 1
 237 543 229 495 223 476 c 2
 223 476 140 206 140 206 c 1
 140 206 337 206 337 206 c 1
 337 206 255 476 255 476 c 2
 248 496 240 543 240 543 c 1
 240 543 237 543 237 543 c 1
EndSplineSet
Position2: "'cpsp' Capital Spacing lookup 0 subtable" dx=5 dy=0 dh=10 dv=0
EndChar

StartChar: Adieresis
Encoding: 196 196 6
Width: 484
GlyphClass: 2
Flags: MW
HStem: 0 21G<-1 77 -1 -1 400 484 400 400> 135 71<140 337 140 359 118 337> 543 63<237 237 237 240> 697 84<137 214 137 214 270 347 137 270>
VStem: 137 77<697 781 697 781> 270 77<697 781 697 781>
LayerCount: 2
Back
Fore
SplineSet
137 697 m 1
 137 697 137 781 137 781 c 1
 137 781 214 781 214 781 c 1
 214 781 214 697 214 697 c 1
 214 697 137 697 137 697 c 1
270 697 m 1
 270 697 270 781 270 781 c 1
 270 781 347 781 347 781 c 1
 347 781 347 697 347 697 c 1
 347 697 270 697 270 697 c 1
400 0 m 1
 400 0 359 135 359 135 c 1
 359 135 118 135 118 135 c 1
 118 135 77 0 77 0 c 1
 77 0 -1 0 -1 0 c 1
 -1 0 192 606 192 606 c 1
 192 606 292 606 292 606 c 1
 292 606 484 0 484 0 c 1
 484 0 400 0 400 0 c 1
237 543 m 1
 237 543 229 495 223 476 c 2
 223 476 140 206 140 206 c 1
 140 206 337 206 337 206 c 1
 337 206 255 476 255 476 c 2
 248 496 240 543 240 543 c 1
 240 543 237 543 237 543 c 1
EndSplineSet
Position2: "'cpsp' Capital Spacing lookup 0 subtable" dx=5 dy=0 dh=10 dv=0
EndChar

StartChar: Agrave
Encoding: 192 192 7
Width: 484
GlyphClass: 2
Flags: MW
HStem: 0 21G<-1 77 -1 -1 400 484 400 400> 135 71<140 337 140 359 118 337> 543 63<237 237 237 240> 664 117<139 233 139 294>
VStem: -1 485<0 0>
LayerCount: 2
Back
Fore
SplineSet
233 664 m 1
 233 664 138 778 138 778 c 1
 138 778 139 781 139 781 c 1
 139 781 218 781 218 781 c 1
 218 781 294 664 294 664 c 1
 294 664 233 664 233 664 c 1
400 0 m 1
 400 0 359 135 359 135 c 1
 359 135 118 135 118 135 c 1
 118 135 77 0 77 0 c 1
 77 0 -1 0 -1 0 c 1
 -1 0 192 606 192 606 c 1
 192 606 292 606 292 606 c 1
 292 606 484 0 484 0 c 1
 484 0 400 0 400 0 c 1
237 543 m 1
 237 543 229 495 223 476 c 2
 223 476 140 206 140 206 c 1
 140 206 337 206 337 206 c 1
 337 206 255 476 255 476 c 2
 248 496 240 543 240 543 c 1
 240 543 237 543 237 543 c 1
EndSplineSet
Position2: "'cpsp' Capital Spacing lookup 0 subtable" dx=5 dy=0 dh=10 dv=0
EndChar

StartChar: Amacron
Encoding: 256 256 8
Width: 484
GlyphClass: 2
Flags: MW
HStem: 0 21G<-1 77 -1 -1 400 484 400 400> 135 71<140 337 140 359 118 337> 543 63<237 237 237 240> 671 64<131 353 131 353>
VStem: 131 222<671 735 671 735>
LayerCount: 2
Back
Fore
SplineSet
131 671 m 1
 131 671 131 735 131 735 c 1
 131 735 353 735 353 735 c 1
 353 735 353 671 353 671 c 1
 353 671 131 671 131 671 c 1
400 0 m 1
 400 0 359 135 359 135 c 1
 359 135 118 135 118 135 c 1
 118 135 77 0 77 0 c 1
 77 0 -1 0 -1 0 c 1
 -1 0 192 606 192 606 c 1
 192 606 292 606 292 606 c 1
 292 606 484 0 484 0 c 1
 484 0 400 0 400 0 c 1
237 543 m 1
 237 543 229 495 223 476 c 2
 223 476 140 206 140 206 c 1
 140 206 337 206 337 206 c 1
 337 206 255 476 255 476 c 2
 248 496 240 543 240 543 c 1
 240 543 237 543 237 543 c 1
EndSplineSet
Position2: "'cpsp' Capital Spacing lookup 0 subtable" dx=5 dy=0 dh=10 dv=0
EndChar

StartChar: Aogonek
Encoding: 260 260 9
Width: 484
GlyphClass: 2
Flags: MW
HStem: -161 58<458 531> 0 21G<-1 77 -1 -1 400 429 400 400 484 484> 135 71<140 337 140 359 118 337> 543 63<237 240 237 237>
VStem: 394 69<-67.5 -62>
LayerCount: 2
Back
Fore
SplineSet
531 -103 m 1
 531 -103 531 -149 531 -149 c 1
 513 -156 495 -161 477 -161 c 0
 439 -161 394 -142 394 -81 c 0
 394 -43 410 -23 426 -3 c 0
 427 -2 428 -1 429 0 c 2
 429 0 400 0 400 0 c 1
 400 0 359 135 359 135 c 1
 359 135 118 135 118 135 c 1
 118 135 77 0 77 0 c 1
 77 0 -1 0 -1 0 c 1
 -1 0 192 606 192 606 c 1
 192 606 292 606 292 606 c 1
 292 606 484 0 484 0 c 1
 484 0 484 0 484 -1 c 0
 475 -13 463 -30 463 -55 c 0
 463 -80 474 -103 504 -103 c 2
 504 -103 531 -103 531 -103 c 1
337 206 m 1
 337 206 255 476 255 476 c 2
 248 496 240 543 240 543 c 1
 240 543 237 543 237 543 c 1
 237 543 229 495 223 476 c 2
 223 476 140 206 140 206 c 1
 140 206 337 206 337 206 c 1
EndSplineSet
Position2: "'cpsp' Capital Spacing lookup 0 subtable" dx=5 dy=0 dh=10 dv=0
EndChar

StartChar: Aring
Encoding: 197 197 10
Width: 484
GlyphClass: 2
Flags: MW
HStem: 0 21G<-1 77 -1 -1 400 484 400 400> 135 71<140 337 140 359 118 337> 543 63<237 237 237 240> 639 40<229 253 229 265> 769 40<229 253>
VStem: 156 40<711.5 736.5 711.5 747.5> 286 40<711.5 736.5>
LayerCount: 2
Back
Fore
SplineSet
241 809 m 0
 290 809 326 770 326 724 c 0
 326 677 289 639 241 639 c 0
 195 639 156 676 156 724 c 0
 156 771 194 809 241 809 c 0
241 769 m 0
 217 769 196 749 196 724 c 0
 196 699 217 679 241 679 c 0
 265 679 286 699 286 724 c 0
 286 749 265 769 241 769 c 0
400 0 m 1
 400 0 359 135 359 135 c 1
 359 135 118 135 118 135 c 1
 118 135 77 0 77 0 c 1
 77 0 -1 0 -1 0 c 1
 -1 0 192 606 192 606 c 1
 192 606 292 606 292 606 c 1
 292 606 484 0 484 0 c 1
 484 0 400 0 400 0 c 1
237 543 m 1
 237 543 229 495 223 476 c 2
 223 476 140 206 140 206 c 1
 140 206 337 206 337 206 c 1
 337 206 255 476 255 476 c 2
 248 496 240 543 240 543 c 1
 240 543 237 543 237 543 c 1
EndSplineSet
Position2: "'cpsp' Capital Spacing lookup 0 subtable" dx=5 dy=0 dh=10 dv=0
EndChar

StartChar: Aringacute
Encoding: 506 506 11
Width: 484
GlyphClass: 2
Flags: MW
HStem: 0 21G<-1 77 -1 -1 400 484 400 400> 135 71<140 337 140 359 118 337> 543 58<237 237 237 240> 688 38<229.5 254> 750 96<215 357 215 357>
VStem: 157 40<632.5 656 632.5 667> 287 40<632.5 656>
LayerCount: 2
Back
Fore
SplineSet
215 750 m 1
 215 750 278 846 278 846 c 1
 278 846 357 846 357 846 c 1
 357 846 358 842 358 842 c 1
 358 842 276 750 276 750 c 1
 276 750 215 750 215 750 c 1
242 726 m 0xf6
 290 726 327 689 327 644 c 0
 327 620 316 598 299 583 c 1
 299 583 484 0 484 0 c 1
 484 0 400 0 400 0 c 1
 400 0 359 135 359 135 c 1
 359 135 118 135 118 135 c 1
 118 135 77 0 77 0 c 1
 77 0 -1 0 -1 0 c 1
 -1 0 185 584 185 584 c 1
 168 598 157 620 157 644 c 0
 157 690 195 726 242 726 c 0xf6
242 688 m 0
 217 688 197 668 197 644 c 0
 197 621 217 601 242 601 c 0
 266 601 287 621 287 644 c 0
 287 668 266 688 242 688 c 0
237 543 m 1
 237 543 229 495 223 476 c 2
 223 476 140 206 140 206 c 1
 140 206 337 206 337 206 c 1
 337 206 255 476 255 476 c 2
 248 496 240 543 240 543 c 1
 240 543 237 543 237 543 c 1
EndSplineSet
Position2: "'cpsp' Capital Spacing lookup 0 subtable" dx=5 dy=0 dh=10 dv=0
EndChar

StartChar: Atilde
Encoding: 195 195 12
Width: 484
GlyphClass: 2
Flags: MW
HStem: 0 21G<-1 77 -1 -1 400 484 400 400> 135 71<140 337 140 359 118 337> 543 63<237 237 237 240> 689 65<285 297 280.5 322> 716 65<186 197 160.5 202.5>
VStem: -1 485<0 0>
LayerCount: 2
Back
Fore
SplineSet
370 781 m 1xec
 370 740 349 689 295 689 c 0xf4
 275 689 258 696 242 703 c 0
 226 710 211 716 194 716 c 0xec
 178 716 166 709 164 689 c 1
 164 689 112 689 112 689 c 1xf4
 112 729 134 781 187 781 c 0xec
 207 781 224 774 241 767 c 0
 257 760 272 754 289 754 c 0xf4
 305 754 316 760 319 781 c 1
 319 781 370 781 370 781 c 1xec
400 0 m 1xf4
 400 0 359 135 359 135 c 1
 359 135 118 135 118 135 c 1
 118 135 77 0 77 0 c 1
 77 0 -1 0 -1 0 c 1
 -1 0 192 606 192 606 c 1
 192 606 292 606 292 606 c 1
 292 606 484 0 484 0 c 1
 484 0 400 0 400 0 c 1xf4
237 543 m 1
 237 543 229 495 223 476 c 2
 223 476 140 206 140 206 c 1
 140 206 337 206 337 206 c 1
 337 206 255 476 255 476 c 2
 248 496 240 543 240 543 c 1
 240 543 237 543 237 543 c 1
EndSplineSet
Position2: "'cpsp' Capital Spacing lookup 0 subtable" dx=5 dy=0 dh=10 dv=0
EndChar

StartChar: AE
Encoding: 198 198 13
Width: 725
GlyphClass: 2
Flags: MW
HStem: 0 71<468 692 468 692 400 692> 135 71<156 355 156 370 129 355> 275 71<422 648 422 422> 536 70<362 362 362 687>
VStem: -1 693<0 71>
AnchorPoint: "Anchor-1" 0 0 basechar 0
AnchorPoint: "Anchor-0" 362 606 basechar 0
LayerCount: 2
Back
Fore
SplineSet
362 536 m 1
 362 536 406 346 406 346 c 1
 406 346 648 346 648 346 c 1
 648 346 648 275 648 275 c 1
 648 275 422 275 422 275 c 1
 422 275 468 71 468 71 c 1
 468 71 692 71 692 71 c 1
 692 71 692 0 692 0 c 1
 692 0 400 0 400 0 c 1
 400 0 370 135 370 135 c 1
 370 135 129 135 129 135 c 1
 129 135 77 0 77 0 c 1
 77 0 -1 0 -1 0 c 1
 -1 0 247 606 247 606 c 1
 247 606 687 606 687 606 c 1
 687 606 687 536 687 536 c 1
 687 536 362 536 362 536 c 1
282 535 m 2
 281 532 280 530 280 527 c 0
 275 511 270 496 263 480 c 2
 263 480 156 206 156 206 c 1
 156 206 355 206 355 206 c 1
 355 206 295 480 295 480 c 2
 292 493 290 506 288 519 c 0
 288 524 287 529 286 535 c 1
 286 535 282 535 282 535 c 2
EndSplineSet
Position2: "'cpsp' Capital Spacing lookup 0 subtable" dx=5 dy=0 dh=10 dv=0
EndChar

StartChar: AEacute
Encoding: 508 508 14
Width: 725
GlyphClass: 2
Flags: MW
HStem: 0 71<468 692 468 692 400 692> 135 71<156 355 156 370 129 355> 275 71<422 648 422 422> 536 70<362 362 362 687> 664 117<396 552 396 552>
VStem: -1 693<0 71>
LayerCount: 2
Back
Fore
SplineSet
457 664 m 1
 457 664 396 664 396 664 c 1
 396 664 472 781 472 781 c 1
 472 781 552 781 552 781 c 1
 552 781 552 778 552 778 c 1
 552 778 457 664 457 664 c 1
362 536 m 1
 362 536 406 346 406 346 c 1
 406 346 648 346 648 346 c 1
 648 346 648 275 648 275 c 1
 648 275 422 275 422 275 c 1
 422 275 468 71 468 71 c 1
 468 71 692 71 692 71 c 1
 692 71 692 0 692 0 c 1
 692 0 400 0 400 0 c 1
 400 0 370 135 370 135 c 1
 370 135 129 135 129 135 c 1
 129 135 77 0 77 0 c 1
 77 0 -1 0 -1 0 c 1
 -1 0 247 606 247 606 c 1
 247 606 687 606 687 606 c 1
 687 606 687 536 687 536 c 1
 687 536 362 536 362 536 c 1
282 535 m 2
 281 532 280 530 280 527 c 0
 275 511 270 496 263 480 c 2
 263 480 156 206 156 206 c 1
 156 206 355 206 355 206 c 1
 355 206 295 480 295 480 c 2
 292 493 290 506 288 519 c 0
 288 524 287 529 286 535 c 1
 286 535 282 535 282 535 c 2
EndSplineSet
Position2: "'cpsp' Capital Spacing lookup 0 subtable" dx=5 dy=0 dh=10 dv=0
EndChar

StartChar: B
Encoding: 66 66 15
Width: 484
GlyphClass: 2
Flags: MW
HStem: 0 71<135 277 277 287> 275 71<135 264 264 271 135 264> 536 70<135 270 135 135>
VStem: 57 78<71 275 346 536> 362 82<423 473> 377 81<138.5 198.5>
LayerCount: 2
Back
Fore
SplineSet
287 606 m 2xf8
 377 606 444 547 444 458 c 0xf8
 444 388 403 337 351 318 c 1
 351 318 351 315 351 315 c 1
 411 296 458 239 458 161 c 0xf4
 458 59 380 0 287 0 c 2
 287 0 57 0 57 0 c 1
 57 0 57 606 57 606 c 1
 57 606 287 606 287 606 c 2xf8
264 346 m 2
 324 346 362 390 362 441 c 0
 362 505 325 536 270 536 c 2
 270 536 135 536 135 536 c 1
 135 536 135 346 135 346 c 1
 135 346 264 346 264 346 c 2
277 71 m 2xf4
 334 71 377 106 377 171 c 0
 377 226 336 275 271 275 c 2
 271 275 135 275 135 275 c 1
 135 275 135 71 135 71 c 1
 135 71 277 71 277 71 c 2xf4
EndSplineSet
Position2: "'cpsp' Capital Spacing lookup 0 subtable" dx=5 dy=0 dh=10 dv=0
EndChar

StartChar: C
Encoding: 67 67 16
Width: 523
GlyphClass: 2
Flags: MW
HStem: -11 72<223 316.5 223 338> 545 72<223 315.5>
VStem: 37 81<207 281 281 325 207 408.5> 410 77<164.5 217>
AnchorPoint: "Anchor-1" 262 0 basechar 0
AnchorPoint: "Anchor-0" 262 606 basechar 0
LayerCount: 2
Back
Fore
SplineSet
276 617 m 0
 400 617 487 542 487 387 c 1
 487 387 408 387 408 387 c 1
 408 493 355 545 276 545 c 0
 170 545 118 473 118 325 c 2
 118 325 118 281 118 281 c 2
 118 133 170 61 276 61 c 0
 357 61 410 112 410 217 c 1
 410 217 487 217 487 217 c 1
 487 61 400 -11 276 -11 c 0
 118 -11 37 93 37 303 c 0
 37 514 118 617 276 617 c 0
EndSplineSet
Position2: "'cpsp' Capital Spacing lookup 0 subtable" dx=5 dy=0 dh=10 dv=0
EndChar

StartChar: Cacute
Encoding: 262 262 17
Width: 523
GlyphClass: 2
Flags: MW
HStem: -11 72<223 316.5 223 338> 545 72<223 315.5> 664 117<222 377 222 377>
VStem: 37 81<207 281 281 325 207 408.5> 410 77<164.5 217>
LayerCount: 2
Back
Fore
SplineSet
283 664 m 1
 283 664 222 664 222 664 c 1
 222 664 298 781 298 781 c 1
 298 781 377 781 377 781 c 1
 377 781 378 778 378 778 c 1
 378 778 283 664 283 664 c 1
276 617 m 0
 400 617 487 542 487 387 c 1
 487 387 408 387 408 387 c 1
 408 493 355 545 276 545 c 0
 170 545 118 473 118 325 c 2
 118 325 118 281 118 281 c 2
 118 133 170 61 276 61 c 0
 357 61 410 112 410 217 c 1
 410 217 487 217 487 217 c 1
 487 61 400 -11 276 -11 c 0
 118 -11 37 93 37 303 c 0
 37 514 118 617 276 617 c 0
EndSplineSet
Position2: "'cpsp' Capital Spacing lookup 0 subtable" dx=5 dy=0 dh=10 dv=0
EndChar

StartChar: Ccaron
Encoding: 268 268 18
Width: 523
GlyphClass: 2
Flags: MW
HStem: -11 72<223 316.5 223 338> 545 72<223 315.5> 661 120<151 295 151 226>
VStem: 37 81<207 281 281 325 207 408.5> 410 77<164.5 217>
LayerCount: 2
Back
Fore
SplineSet
151 781 m 1
 151 781 222 781 222 781 c 1
 222 781 262 711 262 711 c 1
 262 711 301 781 301 781 c 1
 301 781 372 781 372 781 c 1
 372 781 295 661 295 661 c 1
 295 661 226 661 226 661 c 1
 226 661 151 781 151 781 c 1
276 617 m 0
 400 617 487 542 487 387 c 1
 487 387 408 387 408 387 c 1
 408 493 355 545 276 545 c 0
 170 545 118 473 118 325 c 2
 118 325 118 281 118 281 c 2
 118 133 170 61 276 61 c 0
 357 61 410 112 410 217 c 1
 410 217 487 217 487 217 c 1
 487 61 400 -11 276 -11 c 0
 118 -11 37 93 37 303 c 0
 37 514 118 617 276 617 c 0
EndSplineSet
Position2: "'cpsp' Capital Spacing lookup 0 subtable" dx=5 dy=0 dh=10 dv=0
EndChar

StartChar: Ccedilla
Encoding: 199 199 19
Width: 523
GlyphClass: 2
Flags: MW
HStem: -161 50<240.5 246 246 255.5 179 271> -154 21G<179 179> -68 36<218 273> -11 72<276 316.5 223 338> -7 21G<228 228> 545 72<223 315.5>
VStem: 37 81<209 281 281 325 207 408.5> 278 67<-97.5 -82> 410 77<164.5 217>
LayerCount: 2
Back
Fore
SplineSet
276 617 m 0x9780
 400 617 487 542 487 387 c 1
 487 387 408 387 408 387 c 1
 408 493 355 545 276 545 c 0
 170 545 118 473 118 325 c 2
 118 325 118 281 118 281 c 2
 118 133 170 61 276 61 c 0
 357 61 410 112 410 217 c 1
 410 217 487 217 487 217 c 1
 487 61 400 -11 276 -11 c 1x9780
 276 -11 273 -32 273 -32 c 1
 311 -34 345 -49 345 -89 c 0
 345 -149 289 -161 253 -161 c 0xb780
 228 -161 200 -158 179 -154 c 1x5780
 179 -154 179 -111 179 -111 c 1
 179 -111 246 -111 246 -111 c 2
 265 -111 278 -106 278 -89 c 0
 278 -75 271 -68 248 -68 c 2
 248 -68 218 -68 218 -68 c 1xb780
 218 -68 228 -7 228 -7 c 1x8f80
 102 12 37 115 37 303 c 0
 37 514 118 617 276 617 c 0x9780
EndSplineSet
Position2: "'cpsp' Capital Spacing lookup 0 subtable" dx=5 dy=0 dh=10 dv=0
EndChar

StartChar: Ccircumflex
Encoding: 264 264 20
Width: 523
GlyphClass: 2
Flags: MW
HStem: -11 72<223 316.5 223 338> 545 72<223 315.5> 660 120<151 296 151 296 227 301 227 372>
VStem: 37 81<207 281 281 325 207 408.5> 410 77<164.5 217>
LayerCount: 2
Back
Fore
SplineSet
263 730 m 1
 263 730 222 660 222 660 c 1
 222 660 151 660 151 660 c 1
 151 660 227 780 227 780 c 1
 227 780 296 780 296 780 c 1
 296 780 372 660 372 660 c 1
 372 660 301 660 301 660 c 1
 301 660 263 730 263 730 c 1
276 617 m 0
 400 617 487 542 487 387 c 1
 487 387 408 387 408 387 c 1
 408 493 355 545 276 545 c 0
 170 545 118 473 118 325 c 2
 118 325 118 281 118 281 c 2
 118 133 170 61 276 61 c 0
 357 61 410 112 410 217 c 1
 410 217 487 217 487 217 c 1
 487 61 400 -11 276 -11 c 0
 118 -11 37 93 37 303 c 0
 37 514 118 617 276 617 c 0
EndSplineSet
Position2: "'cpsp' Capital Spacing lookup 0 subtable" dx=5 dy=0 dh=10 dv=0
EndChar

StartChar: Cdotaccent
Encoding: 266 266 21
Width: 523
GlyphClass: 2
Flags: MW
HStem: -11 72<223 316.5 223 338> 545 72<223 315.5> 697 84<223 301 223 301>
VStem: 37 81<207 281 281 325 207 408.5> 223 78<697 781 697 781> 410 77<164.5 217>
LayerCount: 2
Back
Fore
SplineSet
223 781 m 1
 223 781 301 781 301 781 c 1
 301 781 301 697 301 697 c 1
 301 697 223 697 223 697 c 1
 223 697 223 781 223 781 c 1
276 617 m 0
 400 617 487 542 487 387 c 1
 487 387 408 387 408 387 c 1
 408 493 355 545 276 545 c 0
 170 545 118 473 118 325 c 2
 118 325 118 281 118 281 c 2
 118 133 170 61 276 61 c 0
 357 61 410 112 410 217 c 1
 410 217 487 217 487 217 c 1
 487 61 400 -11 276 -11 c 0
 118 -11 37 93 37 303 c 0
 37 514 118 617 276 617 c 0
EndSplineSet
Position2: "'cpsp' Capital Spacing lookup 0 subtable" dx=5 dy=0 dh=10 dv=0
EndChar

StartChar: D
Encoding: 68 68 22
Width: 523
GlyphClass: 2
Flags: MW
HStem: 0 71<140 243 243 250> 536 70<140 243 140 140>
VStem: 62 78<71 536 71 606 71 606> 399 81<290 334 334 401.5>
AnchorPoint: "Anchor-1" 0 0 basechar 0
AnchorPoint: "Anchor-0" 262 606 basechar 0
LayerCount: 2
Back
Fore
SplineSet
250 606 m 2
 393 606 480 507 480 312 c 0
 480 104 393 0 250 0 c 2
 250 0 62 0 62 0 c 1
 62 0 62 606 62 606 c 1
 62 606 250 606 250 606 c 2
243 71 m 2
 339 71 399 142 399 290 c 2
 399 290 399 334 399 334 c 2
 399 469 339 536 243 536 c 2
 243 536 140 536 140 536 c 1
 140 536 140 71 140 71 c 1
 140 71 243 71 243 71 c 2
EndSplineSet
Position2: "'cpsp' Capital Spacing lookup 0 subtable" dx=5 dy=0 dh=10 dv=0
EndChar

StartChar: Eth
Encoding: 208 208 23
Width: 523
GlyphClass: 2
Flags: MW
HStem: 0 71<140 243 243 250> 286 56<4 62 4 62 140 278> 536 70<140 243 140 140>
VStem: 62 78<71 286 71 286 71 286 342 536> 399 81<290 334 334 401.5>
LayerCount: 2
Back
Fore
SplineSet
62 606 m 1
 62 606 250 606 250 606 c 2
 393 606 480 507 480 312 c 0
 480 104 393 0 250 0 c 2
 250 0 62 0 62 0 c 1
 62 0 62 286 62 286 c 1
 62 286 4 286 4 286 c 1
 4 286 4 342 4 342 c 1
 4 342 62 342 62 342 c 1
 62 342 62 606 62 606 c 1
278 342 m 1
 278 342 278 286 278 286 c 1
 278 286 140 286 140 286 c 1
 140 286 140 71 140 71 c 1
 140 71 243 71 243 71 c 2
 339 71 399 142 399 290 c 2
 399 290 399 334 399 334 c 2
 399 469 339 536 243 536 c 2
 243 536 140 536 140 536 c 1
 140 536 140 342 140 342 c 1
 140 342 278 342 278 342 c 1
EndSplineSet
Position2: "'cpsp' Capital Spacing lookup 0 subtable" dx=5 dy=0 dh=10 dv=0
EndChar

StartChar: Dcaron
Encoding: 270 270 24
Width: 523
GlyphClass: 2
Flags: MW
HStem: 0 71<140 243 243 250> 536 70<140 243 140 140> 661 120<151 295 151 226>
VStem: 62 78<71 536 71 606 71 606> 399 81<290 334 334 401.5>
LayerCount: 2
Back
Fore
SplineSet
151 781 m 1
 151 781 222 781 222 781 c 1
 222 781 262 711 262 711 c 1
 262 711 301 781 301 781 c 1
 301 781 372 781 372 781 c 1
 372 781 295 661 295 661 c 1
 295 661 226 661 226 661 c 1
 226 661 151 781 151 781 c 1
250 606 m 2
 393 606 480 507 480 312 c 0
 480 104 393 0 250 0 c 2
 250 0 62 0 62 0 c 1
 62 0 62 606 62 606 c 1
 62 606 250 606 250 606 c 2
243 71 m 2
 339 71 399 142 399 290 c 2
 399 290 399 334 399 334 c 2
 399 469 339 536 243 536 c 2
 243 536 140 536 140 536 c 1
 140 536 140 71 140 71 c 1
 140 71 243 71 243 71 c 2
EndSplineSet
Position2: "'cpsp' Capital Spacing lookup 0 subtable" dx=5 dy=0 dh=10 dv=0
EndChar

StartChar: Dcroat
Encoding: 272 272 25
Width: 523
GlyphClass: 2
Flags: MW
HStem: 0 71<140 243 243 250> 286 56<4 62 4 62 140 278> 536 70<140 243 140 140>
VStem: 62 78<71 286 71 286 71 286 342 536> 399 81<290 334 334 401.5>
LayerCount: 2
Back
Fore
SplineSet
62 606 m 1
 62 606 250 606 250 606 c 2
 393 606 480 507 480 312 c 0
 480 104 393 0 250 0 c 2
 250 0 62 0 62 0 c 1
 62 0 62 286 62 286 c 1
 62 286 4 286 4 286 c 1
 4 286 4 342 4 342 c 1
 4 342 62 342 62 342 c 1
 62 342 62 606 62 606 c 1
278 342 m 1
 278 342 278 286 278 286 c 1
 278 286 140 286 140 286 c 1
 140 286 140 71 140 71 c 1
 140 71 243 71 243 71 c 2
 339 71 399 142 399 290 c 2
 399 290 399 334 399 334 c 2
 399 469 339 536 243 536 c 2
 243 536 140 536 140 536 c 1
 140 536 140 342 140 342 c 1
 140 342 278 342 278 342 c 1
EndSplineSet
Position2: "'cpsp' Capital Spacing lookup 0 subtable" dx=5 dy=0 dh=10 dv=0
EndChar

StartChar: E
Encoding: 69 69 26
Width: 484
GlyphClass: 2
Flags: MW
HStem: 0 71<140 441 140 441> 275 71<140 397 140 397> 536 70<140 436 140 140>
VStem: 62 78<71 275 346 536>
AnchorPoint: "Anchor-1" 242 0 basechar 0
AnchorPoint: "Anchor-0" 242 606 basechar 0
LayerCount: 2
Back
Fore
SplineSet
436 606 m 1
 436 606 436 536 436 536 c 1
 436 536 140 536 140 536 c 1
 140 536 140 346 140 346 c 1
 140 346 397 346 397 346 c 1
 397 346 397 275 397 275 c 1
 397 275 140 275 140 275 c 1
 140 275 140 71 140 71 c 1
 140 71 441 71 441 71 c 1
 441 71 441 0 441 0 c 1
 441 0 62 0 62 0 c 1
 62 0 62 606 62 606 c 1
 62 606 436 606 436 606 c 1
EndSplineSet
Position2: "'cpsp' Capital Spacing lookup 0 subtable" dx=5 dy=0 dh=10 dv=0
EndChar

StartChar: Eacute
Encoding: 201 201 27
Width: 484
GlyphClass: 2
Flags: MW
HStem: 0 71<140 441 140 441> 275 71<140 397 140 397> 536 70<140 140 140 436> 664 117<189 345 189 345>
VStem: 62 78<71 275 346 536>
LayerCount: 2
Back
Fore
SplineSet
250 664 m 1
 250 664 189 664 189 664 c 1
 189 664 265 781 265 781 c 1
 265 781 345 781 345 781 c 1
 345 781 346 778 346 778 c 1
 346 778 250 664 250 664 c 1
140 536 m 1
 140 536 140 346 140 346 c 1
 140 346 397 346 397 346 c 1
 397 346 397 275 397 275 c 1
 397 275 140 275 140 275 c 1
 140 275 140 71 140 71 c 1
 140 71 441 71 441 71 c 1
 441 71 441 0 441 0 c 1
 441 0 62 0 62 0 c 1
 62 0 62 606 62 606 c 1
 62 606 436 606 436 606 c 1
 436 606 436 536 436 536 c 1
 436 536 140 536 140 536 c 1
EndSplineSet
Position2: "'cpsp' Capital Spacing lookup 0 subtable" dx=5 dy=0 dh=10 dv=0
EndChar

StartChar: Ebreve
Encoding: 276 276 28
Width: 484
GlyphClass: 2
Flags: MW
HStem: 0 71<140 441 140 441> 275 71<140 397 140 397> 536 70<140 436 140 140> 695 56<226.5 256 226.5 275>
VStem: 62 78<71 275 346 536>
LayerCount: 2
Back
Fore
SplineSet
351 781 m 1
 351 741 309 695 241 695 c 0
 174 695 133 741 133 781 c 1
 133 781 189 781 189 781 c 1
 192 768 212 751 241 751 c 0
 271 751 293 768 294 781 c 1
 294 781 351 781 351 781 c 1
436 606 m 1
 436 606 436 536 436 536 c 1
 436 536 140 536 140 536 c 1
 140 536 140 346 140 346 c 1
 140 346 397 346 397 346 c 1
 397 346 397 275 397 275 c 1
 397 275 140 275 140 275 c 1
 140 275 140 71 140 71 c 1
 140 71 441 71 441 71 c 1
 441 71 441 0 441 0 c 1
 441 0 62 0 62 0 c 1
 62 0 62 606 62 606 c 1
 62 606 436 606 436 606 c 1
EndSplineSet
Position2: "'cpsp' Capital Spacing lookup 0 subtable" dx=5 dy=0 dh=10 dv=0
EndChar

StartChar: Ecaron
Encoding: 282 282 29
Width: 484
GlyphClass: 2
Flags: MW
HStem: 0 71<140 441 140 441> 275 71<140 397 140 397> 536 70<140 436 140 140> 661 120<132 276 132 207>
VStem: 62 78<71 275 346 536>
LayerCount: 2
Back
Fore
SplineSet
132 781 m 1
 132 781 202 781 202 781 c 1
 202 781 241 711 241 711 c 1
 241 711 281 781 281 781 c 1
 281 781 352 781 352 781 c 1
 352 781 276 661 276 661 c 1
 276 661 207 661 207 661 c 1
 207 661 132 781 132 781 c 1
436 606 m 1
 436 606 436 536 436 536 c 1
 436 536 140 536 140 536 c 1
 140 536 140 346 140 346 c 1
 140 346 397 346 397 346 c 1
 397 346 397 275 397 275 c 1
 397 275 140 275 140 275 c 1
 140 275 140 71 140 71 c 1
 140 71 441 71 441 71 c 1
 441 71 441 0 441 0 c 1
 441 0 62 0 62 0 c 1
 62 0 62 606 62 606 c 1
 62 606 436 606 436 606 c 1
EndSplineSet
Position2: "'cpsp' Capital Spacing lookup 0 subtable" dx=5 dy=0 dh=10 dv=0
EndChar

StartChar: Ecircumflex
Encoding: 202 202 30
Width: 484
GlyphClass: 2
Flags: MW
HStem: 0 71<140 441 140 441> 275 71<140 397 140 397> 536 70<140 436 140 140> 660 120<132 277 132 277 208 281 208 352>
VStem: 62 78<71 275 346 536>
LayerCount: 2
Back
Fore
SplineSet
242 730 m 1
 242 730 202 660 202 660 c 1
 202 660 132 660 132 660 c 1
 132 660 208 780 208 780 c 1
 208 780 277 780 277 780 c 1
 277 780 352 660 352 660 c 1
 352 660 281 660 281 660 c 1
 281 660 242 730 242 730 c 1
436 606 m 1
 436 606 436 536 436 536 c 1
 436 536 140 536 140 536 c 1
 140 536 140 346 140 346 c 1
 140 346 397 346 397 346 c 1
 397 346 397 275 397 275 c 1
 397 275 140 275 140 275 c 1
 140 275 140 71 140 71 c 1
 140 71 441 71 441 71 c 1
 441 71 441 0 441 0 c 1
 441 0 62 0 62 0 c 1
 62 0 62 606 62 606 c 1
 62 606 436 606 436 606 c 1
EndSplineSet
Position2: "'cpsp' Capital Spacing lookup 0 subtable" dx=5 dy=0 dh=10 dv=0
EndChar

StartChar: Edieresis
Encoding: 203 203 31
Width: 484
GlyphClass: 2
Flags: MW
HStem: 0 71<140 441 140 441> 275 71<140 397 140 397> 536 70<140 140 140 436> 697 84<137 214 137 214 270 347 137 270>
VStem: 62 78<71 275 346 536> 137 77<697 781 697 781> 270 77<697 781 697 781>
LayerCount: 2
Back
Fore
SplineSet
137 697 m 1xf6
 137 697 137 781 137 781 c 1
 137 781 214 781 214 781 c 1
 214 781 214 697 214 697 c 1
 214 697 137 697 137 697 c 1xf6
270 697 m 1
 270 697 270 781 270 781 c 1
 270 781 347 781 347 781 c 1
 347 781 347 697 347 697 c 1
 347 697 270 697 270 697 c 1
140 536 m 1xfa
 140 536 140 346 140 346 c 1
 140 346 397 346 397 346 c 1
 397 346 397 275 397 275 c 1
 397 275 140 275 140 275 c 1
 140 275 140 71 140 71 c 1
 140 71 441 71 441 71 c 1
 441 71 441 0 441 0 c 1
 441 0 62 0 62 0 c 1
 62 0 62 606 62 606 c 1
 62 606 436 606 436 606 c 1
 436 606 436 536 436 536 c 1
 436 536 140 536 140 536 c 1xfa
EndSplineSet
Position2: "'cpsp' Capital Spacing lookup 0 subtable" dx=5 dy=0 dh=10 dv=0
EndChar

StartChar: Edotaccent
Encoding: 278 278 32
Width: 484
GlyphClass: 2
Flags: MW
HStem: 0 71<140 441 140 441> 275 71<140 397 140 397> 536 70<140 436 140 140> 697 84<203 280 203 280>
VStem: 62 78<71 275 346 536> 203 77<697 781 697 781>
LayerCount: 2
Back
Fore
SplineSet
203 781 m 1
 203 781 280 781 280 781 c 1
 280 781 280 697 280 697 c 1
 280 697 203 697 203 697 c 1
 203 697 203 781 203 781 c 1
436 606 m 1
 436 606 436 536 436 536 c 1
 436 536 140 536 140 536 c 1
 140 536 140 346 140 346 c 1
 140 346 397 346 397 346 c 1
 397 346 397 275 397 275 c 1
 397 275 140 275 140 275 c 1
 140 275 140 71 140 71 c 1
 140 71 441 71 441 71 c 1
 441 71 441 0 441 0 c 1
 441 0 62 0 62 0 c 1
 62 0 62 606 62 606 c 1
 62 606 436 606 436 606 c 1
EndSplineSet
Position2: "'cpsp' Capital Spacing lookup 0 subtable" dx=5 dy=0 dh=10 dv=0
EndChar

StartChar: Egrave
Encoding: 200 200 33
Width: 484
GlyphClass: 2
Flags: MW
HStem: 0 71<140 441 140 441> 275 71<140 397 140 397> 536 70<140 140 140 436> 664 117<139 233 139 294>
VStem: 62 78<71 275 346 536>
LayerCount: 2
Back
Fore
SplineSet
233 664 m 1
 233 664 138 778 138 778 c 1
 138 778 139 781 139 781 c 1
 139 781 218 781 218 781 c 1
 218 781 294 664 294 664 c 1
 294 664 233 664 233 664 c 1
140 536 m 1
 140 536 140 346 140 346 c 1
 140 346 397 346 397 346 c 1
 397 346 397 275 397 275 c 1
 397 275 140 275 140 275 c 1
 140 275 140 71 140 71 c 1
 140 71 441 71 441 71 c 1
 441 71 441 0 441 0 c 1
 441 0 62 0 62 0 c 1
 62 0 62 606 62 606 c 1
 62 606 436 606 436 606 c 1
 436 606 436 536 436 536 c 1
 436 536 140 536 140 536 c 1
EndSplineSet
Position2: "'cpsp' Capital Spacing lookup 0 subtable" dx=5 dy=0 dh=10 dv=0
EndChar

StartChar: Emacron
Encoding: 274 274 34
Width: 484
GlyphClass: 2
Flags: MW
HStem: 0 71<140 441 140 441> 275 71<140 397 140 397> 536 70<140 436 140 140> 671 64<131 353 131 353>
VStem: 62 78<71 275 346 536> 131 222<671 735 671 735>
LayerCount: 2
Back
Fore
SplineSet
131 735 m 1xf4
 131 735 353 735 353 735 c 1
 353 735 353 671 353 671 c 1
 353 671 131 671 131 671 c 1
 131 671 131 735 131 735 c 1xf4
436 606 m 1
 436 606 436 536 436 536 c 1
 436 536 140 536 140 536 c 1
 140 536 140 346 140 346 c 1
 140 346 397 346 397 346 c 1
 397 346 397 275 397 275 c 1
 397 275 140 275 140 275 c 1
 140 275 140 71 140 71 c 1
 140 71 441 71 441 71 c 1
 441 71 441 0 441 0 c 1
 441 0 62 0 62 0 c 1
 62 0 62 606 62 606 c 1xf8
 62 606 436 606 436 606 c 1
EndSplineSet
Position2: "'cpsp' Capital Spacing lookup 0 subtable" dx=5 dy=0 dh=10 dv=0
EndChar

StartChar: Eogonek
Encoding: 280 280 35
Width: 484
GlyphClass: 2
Flags: MW
HStem: -161 58<415 488> 0 71<140 384 140 441> 275 71<140 397 140 397> 536 70<140 436 140 140>
VStem: 62 78<71 275 346 536> 351 69<-67.5 -62.5>
LayerCount: 2
Back
Fore
SplineSet
140 346 m 1
 140 346 397 346 397 346 c 1
 397 346 397 275 397 275 c 1
 397 275 140 275 140 275 c 1
 140 275 140 71 140 71 c 1
 140 71 441 71 441 71 c 1
 441 71 441 0 441 0 c 1
 431 -13 420 -34 420 -55 c 0
 420 -80 431 -103 461 -103 c 2
 461 -103 488 -103 488 -103 c 1
 488 -103 488 -149 488 -149 c 1
 469 -156 452 -161 434 -161 c 0
 396 -161 351 -142 351 -81 c 0
 351 -44 365 -20 384 0 c 1
 384 0 62 0 62 0 c 1
 62 0 62 606 62 606 c 1
 62 606 436 606 436 606 c 1
 436 606 436 536 436 536 c 1
 436 536 140 536 140 536 c 1
 140 536 140 346 140 346 c 1
EndSplineSet
Position2: "'cpsp' Capital Spacing lookup 0 subtable" dx=5 dy=0 dh=10 dv=0
EndChar

StartChar: F
Encoding: 70 70 36
Width: 443
GlyphClass: 2
Flags: MW
HStem: 0 21G<62 140 62 62> 269 70<140 380 140 380> 536 70<140 412 140 140>
VStem: 62 78<0 269 339 536>
LayerCount: 2
Back
Fore
SplineSet
412 606 m 1
 412 606 412 536 412 536 c 1
 412 536 140 536 140 536 c 1
 140 536 140 339 140 339 c 1
 140 339 380 339 380 339 c 1
 380 339 380 269 380 269 c 1
 380 269 140 269 140 269 c 1
 140 269 140 0 140 0 c 1
 140 0 62 0 62 0 c 1
 62 0 62 606 62 606 c 1
 62 606 412 606 412 606 c 1
EndSplineSet
Position2: "'cpsp' Capital Spacing lookup 0 subtable" dx=5 dy=0 dh=10 dv=0
EndChar

StartChar: G
Encoding: 71 71 37
Width: 564
GlyphClass: 2
Flags: MW
HStem: -11 72<231 314.5> 0 21G<455 507 455 455> 248 68<270 427 270 507> 545 72<236.5 328>
VStem: 43 82<207 281 281 325 207 408.5> 427 80<233 248 248 248 400 450>
AnchorPoint: "Anchor-1" 282 0 basechar 0
AnchorPoint: "Anchor-0" 282 606 basechar 0
LayerCount: 2
Back
Fore
SplineSet
270 316 m 1xbc
 270 316 507 316 507 316 c 1
 507 316 507 0 507 0 c 1
 507 0 455 0 455 0 c 1x7c
 455 0 438 67 438 67 c 1
 401 12 347 -11 282 -11 c 0
 129 -11 43 93 43 303 c 0
 43 514 135 617 286 617 c 0
 413 617 507 546 507 400 c 1
 507 400 427 400 427 400 c 1
 427 500 370 545 286 545 c 0
 187 545 125 473 125 325 c 2
 125 325 125 281 125 281 c 2
 125 133 180 61 282 61 c 0
 383 61 427 118 427 233 c 2
 427 233 427 248 427 248 c 1
 427 248 270 248 270 248 c 1
 270 248 270 316 270 316 c 1xbc
EndSplineSet
Position2: "'cpsp' Capital Spacing lookup 0 subtable" dx=5 dy=0 dh=10 dv=0
EndChar

StartChar: Gbreve
Encoding: 286 286 38
Width: 564
GlyphClass: 2
Flags: MW
HStem: -11 72<231 314.5> 0 21G<455 507 455 455> 248 68<270 427 270 507> 545 72<236.5 328> 695 56<267.5 297 267.5 316>
VStem: 43 82<207 281 281 325 207 408.5> 427 80<233 248 248 248 400 450>
LayerCount: 2
Back
Fore
SplineSet
282 695 m 0xbe
 215 695 173 741 173 781 c 1
 173 781 230 781 230 781 c 1
 232 768 253 751 282 751 c 0
 312 751 333 768 335 781 c 1
 335 781 392 781 392 781 c 1
 392 741 350 695 282 695 c 0xbe
270 316 m 1
 270 316 507 316 507 316 c 1
 507 316 507 0 507 0 c 1
 507 0 455 0 455 0 c 1x7e
 455 0 438 67 438 67 c 1
 401 12 347 -11 282 -11 c 0
 129 -11 43 93 43 303 c 0
 43 514 135 617 286 617 c 0
 413 617 507 546 507 400 c 1
 507 400 427 400 427 400 c 1
 427 500 370 545 286 545 c 0
 187 545 125 473 125 325 c 2
 125 325 125 281 125 281 c 2
 125 133 180 61 282 61 c 0
 383 61 427 118 427 233 c 2
 427 233 427 248 427 248 c 1
 427 248 270 248 270 248 c 1
 270 248 270 316 270 316 c 1
EndSplineSet
Position2: "'cpsp' Capital Spacing lookup 0 subtable" dx=5 dy=0 dh=10 dv=0
EndChar

StartChar: Gcircumflex
Encoding: 284 284 39
Width: 564
GlyphClass: 2
Flags: MW
HStem: -11 72<231 314.5> 0 21G<455 507 455 455> 248 68<270 427 270 507> 545 72<236.5 328> 660 120<172 317 172 317 248 322 248 392>
VStem: 43 82<207 281 281 325 207 408.5> 427 80<233 248 248 248 400 450>
LayerCount: 2
Back
Fore
SplineSet
243 660 m 1xbe
 243 660 172 660 172 660 c 1
 172 660 248 780 248 780 c 1
 248 780 317 780 317 780 c 1
 317 780 392 660 392 660 c 1
 392 660 322 660 322 660 c 1
 322 660 283 730 283 730 c 1
 283 730 243 660 243 660 c 1xbe
270 316 m 1
 270 316 507 316 507 316 c 1
 507 316 507 0 507 0 c 1
 507 0 455 0 455 0 c 1x7e
 455 0 438 67 438 67 c 1
 401 12 347 -11 282 -11 c 0
 129 -11 43 93 43 303 c 0
 43 514 135 617 286 617 c 0
 413 617 507 546 507 400 c 1
 507 400 427 400 427 400 c 1
 427 500 370 545 286 545 c 0
 187 545 125 473 125 325 c 2
 125 325 125 281 125 281 c 2
 125 133 180 61 282 61 c 0
 383 61 427 118 427 233 c 2
 427 233 427 248 427 248 c 1
 427 248 270 248 270 248 c 1
 270 248 270 316 270 316 c 1
EndSplineSet
Position2: "'cpsp' Capital Spacing lookup 0 subtable" dx=5 dy=0 dh=10 dv=0
EndChar

StartChar: Gcommaaccent
Encoding: 290 290 40
Width: 564
GlyphClass: 2
Flags: MW
HStem: -133 80<245 275 245 320> -11 72<231 314.5> 0 21G<455 507 455 455> 248 68<270 427 270 507> 545 72<236.5 328>
VStem: 43 82<207 281 281 325 207 408.5> 245 75<-127 -53 -127 -53 -127 -53> 427 80<233 248 248 248 400 450>
LayerCount: 2
Back
Fore
SplineSet
270 316 m 1xdf
 270 316 507 316 507 316 c 1
 507 316 507 0 507 0 c 1
 507 0 455 0 455 0 c 1xbf
 455 0 438 67 438 67 c 1
 401 12 347 -11 282 -11 c 0
 129 -11 43 93 43 303 c 0
 43 514 135 617 286 617 c 0
 413 617 507 546 507 400 c 1
 507 400 427 400 427 400 c 1
 427 500 370 545 286 545 c 0
 187 545 125 473 125 325 c 2
 125 325 125 281 125 281 c 2
 125 133 180 61 282 61 c 0
 383 61 427 118 427 233 c 2
 427 233 427 248 427 248 c 1
 427 248 270 248 270 248 c 1
 270 248 270 316 270 316 c 1xdf
245 -53 m 1
 245 -53 320 -53 320 -53 c 1
 320 -53 320 -127 320 -127 c 1
 320 -127 294 -196 294 -196 c 1
 294 -196 255 -196 255 -196 c 1
 255 -196 275 -133 275 -133 c 1
 275 -133 245 -133 245 -133 c 1
 245 -133 245 -53 245 -53 c 1
EndSplineSet
Position2: "'cpsp' Capital Spacing lookup 0 subtable" dx=5 dy=0 dh=10 dv=0
EndChar

StartChar: Gdotaccent
Encoding: 288 288 41
Width: 564
GlyphClass: 2
Flags: MW
HStem: -11 72<231 314.5> 0 21G<455 507 455 455> 248 68<270 427 270 507> 545 72<236.5 328> 697 84<244 321 244 321>
VStem: 43 82<207 281 281 325 207 408.5> 244 77<697 781> 427 80<233 248 248 248 400 450>
LayerCount: 2
Back
Fore
SplineSet
321 697 m 1xbf
 321 697 244 697 244 697 c 1
 244 697 244 781 244 781 c 1
 244 781 321 781 321 781 c 1
 321 781 321 697 321 697 c 1xbf
270 316 m 1
 270 316 507 316 507 316 c 1
 507 316 507 0 507 0 c 1
 507 0 455 0 455 0 c 1x7f
 455 0 438 67 438 67 c 1
 401 12 347 -11 282 -11 c 0
 129 -11 43 93 43 303 c 0
 43 514 135 617 286 617 c 0
 413 617 507 546 507 400 c 1
 507 400 427 400 427 400 c 1
 427 500 370 545 286 545 c 0
 187 545 125 473 125 325 c 2
 125 325 125 281 125 281 c 2
 125 133 180 61 282 61 c 0
 383 61 427 118 427 233 c 2
 427 233 427 248 427 248 c 1
 427 248 270 248 270 248 c 1
 270 248 270 316 270 316 c 1
EndSplineSet
Position2: "'cpsp' Capital Spacing lookup 0 subtable" dx=5 dy=0 dh=10 dv=0
EndChar

StartChar: H
Encoding: 72 72 42
Width: 523
GlyphClass: 2
Flags: MW
HStem: 0 21G<62 140 62 62 384 461 384 384> 275 71<140 384 140 384> 586 20G<62 140 140 140 384 461 461 461>
VStem: 62 78<0 275 0 346 346 606> 384 77<0 275 275 275 346 606 0 606>
AnchorPoint: "Anchor-1" 0 0 basechar 0
AnchorPoint: "Anchor-0" 262 606 basechar 0
LayerCount: 2
Back
Fore
SplineSet
384 0 m 1
 384 0 384 275 384 275 c 1
 384 275 140 275 140 275 c 1
 140 275 140 0 140 0 c 1
 140 0 62 0 62 0 c 1
 62 0 62 606 62 606 c 1
 62 606 140 606 140 606 c 1
 140 606 140 346 140 346 c 1
 140 346 384 346 384 346 c 1
 384 346 384 606 384 606 c 1
 384 606 461 606 461 606 c 1
 461 606 461 0 461 0 c 1
 461 0 384 0 384 0 c 1
EndSplineSet
Position2: "'cpsp' Capital Spacing lookup 0 subtable" dx=5 dy=0 dh=10 dv=0
EndChar

StartChar: Hbar
Encoding: 294 294 43
Width: 523
GlyphClass: 2
Flags: MW
HStem: 0 21G<62 140 62 62 384 461 384 384> 271 70<140 384 140 384> 433 64<18 62 18 62 140 384 461 506> 433 173<18 140 18 140 62 384 62 140>
VStem: 62 78<0 271 0 341 341 433 497 606> 384 77<0 271 271 271 341 433 497 606>
LayerCount: 2
Back
Fore
SplineSet
461 0 m 1xdc
 461 0 384 0 384 0 c 1
 384 0 384 271 384 271 c 1
 384 271 140 271 140 271 c 1
 140 271 140 0 140 0 c 1
 140 0 62 0 62 0 c 1
 62 0 62 433 62 433 c 1
 62 433 18 433 18 433 c 1xdc
 18 433 18 497 18 497 c 1
 18 497 62 497 62 497 c 1xec
 62 497 62 606 62 606 c 1
 62 606 140 606 140 606 c 1xdc
 140 606 140 497 140 497 c 1
 140 497 384 497 384 497 c 1xec
 384 497 384 606 384 606 c 1
 384 606 461 606 461 606 c 1xdc
 461 606 461 497 461 497 c 1
 461 497 506 497 506 497 c 1xec
 506 497 506 433 506 433 c 1
 506 433 461 433 461 433 c 1
 461 433 461 0 461 0 c 1xdc
140 433 m 1
 140 433 140 341 140 341 c 1
 140 341 384 341 384 341 c 1
 384 341 384 433 384 433 c 1
 384 433 140 433 140 433 c 1
EndSplineSet
Position2: "'cpsp' Capital Spacing lookup 0 subtable" dx=5 dy=0 dh=10 dv=0
EndChar

StartChar: Hcircumflex
Encoding: 292 292 44
Width: 523
GlyphClass: 2
Flags: MW
HStem: 0 21G<62 140 62 62 384 461 384 384> 275 71<140 384 140 384> 586 20G<62 140 140 140 384 461 461 461> 660 120<151 296 151 296 227 372 227 301>
VStem: 62 78<0 275 0 346 346 606> 384 77<0 275 275 275 346 606 0 606>
LayerCount: 2
Back
Fore
SplineSet
301 660 m 1
 301 660 263 730 263 730 c 1
 263 730 222 660 222 660 c 1
 222 660 151 660 151 660 c 1
 151 660 227 780 227 780 c 1
 227 780 296 780 296 780 c 1
 296 780 372 660 372 660 c 1
 372 660 301 660 301 660 c 1
384 0 m 1
 384 0 384 275 384 275 c 1
 384 275 140 275 140 275 c 1
 140 275 140 0 140 0 c 1
 140 0 62 0 62 0 c 1
 62 0 62 606 62 606 c 1
 62 606 140 606 140 606 c 1
 140 606 140 346 140 346 c 1
 140 346 384 346 384 346 c 1
 384 346 384 606 384 606 c 1
 384 606 461 606 461 606 c 1
 461 606 461 0 461 0 c 1
 461 0 384 0 384 0 c 1
EndSplineSet
Position2: "'cpsp' Capital Spacing lookup 0 subtable" dx=5 dy=0 dh=10 dv=0
EndChar

StartChar: I
Encoding: 73 73 45
Width: 202
GlyphClass: 2
Flags: MW
HStem: 0 21G<62 140 62 62> 586 20G<62 140 140 140>
VStem: 62 78<0 606 0 606>
AnchorPoint: "Anchor-1" 0 0 basechar 0
AnchorPoint: "Anchor-0" 101 606 basechar 0
LayerCount: 2
Back
Fore
SplineSet
62 606 m 1
 62 606 140 606 140 606 c 1
 140 606 140 0 140 0 c 1
 140 0 62 0 62 0 c 1
 62 0 62 606 62 606 c 1
EndSplineSet
Position2: "'cpsp' Capital Spacing lookup 0 subtable" dx=5 dy=0 dh=10 dv=0
EndChar

StartChar: IJ
Encoding: 306 306 46
Width: 564
GlyphClass: 2
Flags: MW
HStem: -11 72<338 382 338 406.5> 0 21G<62 62 62 140> 0 184<62 291 62 291> 586 20G<62 140 140 140 429 507 507 507>
VStem: 62 78<0 606 0 606> 213 78<144 184 114 184> 429 78<140 144 144 606>
LayerCount: 2
Back
Fore
SplineSet
62 0 m 1x5e
 62 0 62 606 62 606 c 1
 62 606 140 606 140 606 c 1
 140 606 140 0 140 0 c 1
 140 0 62 0 62 0 c 1x5e
507 144 m 2x9e
 507 43 453 -11 360 -11 c 0x9e
 267 -11 213 43 213 144 c 2
 213 144 213 184 213 184 c 1
 213 184 291 184 291 184 c 1x3e
 291 184 291 140 291 140 c 2
 291 88 316 61 360 61 c 0
 404 61 429 88 429 140 c 2
 429 140 429 606 429 606 c 1
 429 606 507 606 507 606 c 1
 507 606 507 144 507 144 c 2x9e
EndSplineSet
Position2: "'cpsp' Capital Spacing lookup 0 subtable" dx=5 dy=0 dh=10 dv=0
EndChar

StartChar: Iacute
Encoding: 205 205 47
Width: 202
GlyphClass: 2
Flags: MW
HStem: 0 21G<62 62 62 140> 586 20G<62 140 140 140> 664 117<49 203 49 203>
VStem: 62 78<0 606 0 606>
LayerCount: 2
Back
Fore
SplineSet
110 664 m 1
 110 664 49 664 49 664 c 1
 49 664 125 781 125 781 c 1
 125 781 203 781 203 781 c 1
 203 781 204 778 204 778 c 1
 204 778 110 664 110 664 c 1
62 0 m 1
 62 0 62 606 62 606 c 1
 62 606 140 606 140 606 c 1
 140 606 140 0 140 0 c 1
 140 0 62 0 62 0 c 1
EndSplineSet
Position2: "'cpsp' Capital Spacing lookup 0 subtable" dx=5 dy=0 dh=10 dv=0
EndChar

StartChar: Ibreve
Encoding: 300 300 48
Width: 202
GlyphClass: 2
Flags: MW
HStem: 0 21G<62 140 62 62> 586 20G<62 140 140 140> 695 56<86.5 116 86.5 135>
VStem: 62 78<0 606 0 606>
LayerCount: 2
Back
Fore
SplineSet
210 781 m 1
 210 741 169 695 101 695 c 0
 34 695 -9 741 -9 781 c 1
 -9 781 49 781 49 781 c 1
 51 768 72 751 101 751 c 0
 131 751 152 768 154 781 c 1
 154 781 210 781 210 781 c 1
62 606 m 1
 62 606 140 606 140 606 c 1
 140 606 140 0 140 0 c 1
 140 0 62 0 62 0 c 1
 62 0 62 606 62 606 c 1
EndSplineSet
Position2: "'cpsp' Capital Spacing lookup 0 subtable" dx=5 dy=0 dh=10 dv=0
EndChar

StartChar: Icircumflex
Encoding: 206 206 49
Width: 202
GlyphClass: 2
Flags: MW
HStem: 0 21G<62 140 62 62> 586 20G<62 140 140 140> 660 120<-10 136 -10 136 67 141 67 211>
VStem: 62 78<0 606 0 606 0 660>
LayerCount: 2
Back
Fore
SplineSet
102 730 m 1
 102 730 62 660 62 660 c 1
 62 660 -10 660 -10 660 c 1
 -10 660 67 780 67 780 c 1
 67 780 136 780 136 780 c 1
 136 780 211 660 211 660 c 1
 211 660 141 660 141 660 c 1
 141 660 102 730 102 730 c 1
62 606 m 1
 62 606 140 606 140 606 c 1
 140 606 140 0 140 0 c 1
 140 0 62 0 62 0 c 1
 62 0 62 606 62 606 c 1
EndSplineSet
Position2: "'cpsp' Capital Spacing lookup 0 subtable" dx=5 dy=0 dh=10 dv=0
EndChar

StartChar: Idieresis
Encoding: 207 207 50
Width: 202
GlyphClass: 2
Flags: MW
HStem: 0 21G<62 62 62 140> 586 20G<62 140 140 140> 697 84<-4 73 -4 73 129 206 -4 129>
VStem: -4 77<697 781 697 781> 62 78<0 606 0 606> 129 77<697 781 697 781>
LayerCount: 2
Back
Fore
SplineSet
-4 697 m 1xf4
 -4 697 -4 781 -4 781 c 1
 -4 781 73 781 73 781 c 1
 73 781 73 697 73 697 c 1
 73 697 -4 697 -4 697 c 1xf4
129 697 m 1
 129 697 129 781 129 781 c 1
 129 781 206 781 206 781 c 1
 206 781 206 697 206 697 c 1
 206 697 129 697 129 697 c 1
62 0 m 1xe8
 62 0 62 606 62 606 c 1
 62 606 140 606 140 606 c 1
 140 606 140 0 140 0 c 1
 140 0 62 0 62 0 c 1xe8
EndSplineSet
Position2: "'cpsp' Capital Spacing lookup 0 subtable" dx=5 dy=0 dh=10 dv=0
EndChar

StartChar: Idotaccent
Encoding: 304 304 51
Width: 202
GlyphClass: 2
Flags: MW
HStem: 0 21G<62 140 62 62> 586 20G<62 140 140 140> 697 84<63 140 63 140>
VStem: 62 78<0 606 0 606>
LayerCount: 2
Back
Fore
SplineSet
63 781 m 1
 63 781 140 781 140 781 c 1
 140 781 140 697 140 697 c 1
 140 697 63 697 63 697 c 1
 63 697 63 781 63 781 c 1
62 606 m 1
 62 606 140 606 140 606 c 1
 140 606 140 0 140 0 c 1
 140 0 62 0 62 0 c 1
 62 0 62 606 62 606 c 1
EndSplineSet
Position2: "'cpsp' Capital Spacing lookup 0 subtable" dx=5 dy=0 dh=10 dv=0
EndChar

StartChar: Igrave
Encoding: 204 204 52
Width: 202
GlyphClass: 2
Flags: MW
HStem: 0 21G<62 62 62 140> 586 20G<62 140 140 140> 664 117<-2 93 -2 154>
VStem: 62 78<0 606 0 606>
LayerCount: 2
Back
Fore
SplineSet
93 664 m 1
 93 664 -3 778 -3 778 c 1
 -3 778 -2 781 -2 781 c 1
 -2 781 78 781 78 781 c 1
 78 781 154 664 154 664 c 1
 154 664 93 664 93 664 c 1
62 0 m 1
 62 0 62 606 62 606 c 1
 62 606 140 606 140 606 c 1
 140 606 140 0 140 0 c 1
 140 0 62 0 62 0 c 1
EndSplineSet
Position2: "'cpsp' Capital Spacing lookup 0 subtable" dx=5 dy=0 dh=10 dv=0
EndChar

StartChar: Imacron
Encoding: 298 298 53
Width: 202
GlyphClass: 2
Flags: MW
HStem: 0 21G<62 140 62 62> 586 20G<62 140 140 140> 671 64<-10 212 -10 212>
VStem: 62 78<0 606 0 606>
LayerCount: 2
Back
Fore
SplineSet
-10 735 m 1
 -10 735 212 735 212 735 c 1
 212 735 212 671 212 671 c 1
 212 671 -10 671 -10 671 c 1
 -10 671 -10 735 -10 735 c 1
62 606 m 1
 62 606 140 606 140 606 c 1
 140 606 140 0 140 0 c 1
 140 0 62 0 62 0 c 1
 62 0 62 606 62 606 c 1
EndSplineSet
Position2: "'cpsp' Capital Spacing lookup 0 subtable" dx=5 dy=0 dh=10 dv=0
EndChar

StartChar: Iogonek
Encoding: 302 302 54
Width: 202
GlyphClass: 2
Flags: MW
HStem: -161 58<114 187> 0 21G<62 82 62 62 140 140> 586 20G<62 140 140 140>
VStem: 62 78<0 606>
LayerCount: 2
Back
Fore
SplineSet
140 0 m 2
 139 -1 139 -2 138 -2 c 0
 129 -15 118 -32 118 -55 c 0
 118 -80 130 -103 159 -103 c 2
 159 -103 187 -103 187 -103 c 1
 187 -103 187 -149 187 -149 c 1
 169 -156 151 -161 133 -161 c 0
 95 -161 50 -142 50 -81 c 0
 50 -43 64 -20 82 0 c 1
 82 0 62 0 62 0 c 1
 62 0 62 606 62 606 c 1
 62 606 140 606 140 606 c 1
 140 606 140 0 140 0 c 2
EndSplineSet
Position2: "'cpsp' Capital Spacing lookup 0 subtable" dx=5 dy=0 dh=10 dv=0
EndChar

StartChar: Itilde
Encoding: 296 296 55
Width: 202
GlyphClass: 2
Flags: MW
HStem: 0 21G<62 140 62 62> 586 20G<62 140 140 140> 689 65<145.5 156.5 140.5 181.5> 716 65<45 56.5 20.5 61.5>
VStem: 62 78<0 606 0 606>
LayerCount: 2
Back
Fore
SplineSet
230 781 m 1xd8
 230 740 208 689 155 689 c 0xe8
 136 689 119 696 102 703 c 0
 86 710 70 716 53 716 c 0xd8
 37 716 26 709 23 689 c 1
 23 689 -28 689 -28 689 c 1xe8
 -28 729 -6 781 47 781 c 0xd8
 66 781 83 774 100 767 c 0
 116 760 132 754 149 754 c 0xe8
 164 754 176 760 179 781 c 1
 179 781 230 781 230 781 c 1xd8
62 606 m 1
 62 606 140 606 140 606 c 1
 140 606 140 0 140 0 c 1
 140 0 62 0 62 0 c 1
 62 0 62 606 62 606 c 1
EndSplineSet
Position2: "'cpsp' Capital Spacing lookup 0 subtable" dx=5 dy=0 dh=10 dv=0
EndChar

StartChar: J
Encoding: 74 74 56
Width: 362
GlyphClass: 2
Flags: MW
HStem: -11 72<136 180 136 204.5> 586 20G<227 305 305 305>
VStem: 11 78<144 184 114 184> 227 78<140 144 144 606>
AnchorPoint: "Anchor-1" 0 0 basechar 0
AnchorPoint: "Anchor-0" 181 606 basechar 0
LayerCount: 2
Back
Fore
SplineSet
305 144 m 2
 305 43 251 -11 158 -11 c 0
 65 -11 11 43 11 144 c 2
 11 144 11 184 11 184 c 1
 11 184 89 184 89 184 c 1
 89 184 89 140 89 140 c 2
 89 88 114 61 158 61 c 0
 202 61 227 88 227 140 c 2
 227 140 227 606 227 606 c 1
 227 606 305 606 305 606 c 1
 305 606 305 144 305 144 c 2
EndSplineSet
Position2: "'cpsp' Capital Spacing lookup 0 subtable" dx=5 dy=0 dh=10 dv=0
EndChar

StartChar: Jcircumflex
Encoding: 308 308 57
Width: 362
GlyphClass: 2
Flags: MW
HStem: -11 72<136 180 136 204.5> 586 20G<227 305 305 305> 660 120<156 301 156 301 232 377 232 307>
VStem: 11 78<144 184 114 184> 227 78<140 144 144 606>
LayerCount: 2
Back
Fore
SplineSet
307 660 m 1
 307 660 268 730 268 730 c 1
 268 730 227 660 227 660 c 1
 227 660 156 660 156 660 c 1
 156 660 232 780 232 780 c 1
 232 780 301 780 301 780 c 1
 301 780 377 660 377 660 c 1
 377 660 307 660 307 660 c 1
305 144 m 2
 305 43 251 -11 158 -11 c 0
 65 -11 11 43 11 144 c 2
 11 144 11 184 11 184 c 1
 11 184 89 184 89 184 c 1
 89 184 89 140 89 140 c 2
 89 88 114 61 158 61 c 0
 202 61 227 88 227 140 c 2
 227 140 227 606 227 606 c 1
 227 606 305 606 305 606 c 1
 305 606 305 144 305 144 c 2
EndSplineSet
Position2: "'cpsp' Capital Spacing lookup 0 subtable" dx=5 dy=0 dh=10 dv=0
EndChar

StartChar: K
Encoding: 75 75 58
Width: 484
GlyphClass: 2
Flags: MW
HStem: 0 21G<62 140 62 62 385 473 385 385> 586 20G<62 140 140 140 380 467 467 467>
VStem: 62 78<0 188 286 606>
AnchorPoint: "Anchor-1" 242 0 basechar 0
AnchorPoint: "Anchor-0" 242 606 basechar 0
LayerCount: 2
Back
Fore
SplineSet
467 606 m 1
 467 606 285 362 285 362 c 1
 285 362 473 0 473 0 c 1
 473 0 385 0 385 0 c 1
 385 0 237 296 237 296 c 1
 237 296 140 188 140 188 c 1
 140 188 140 0 140 0 c 1
 140 0 62 0 62 0 c 1
 62 0 62 606 62 606 c 1
 62 606 140 606 140 606 c 1
 140 606 140 286 140 286 c 1
 140 286 380 606 380 606 c 1
 380 606 467 606 467 606 c 1
EndSplineSet
Position2: "'cpsp' Capital Spacing lookup 0 subtable" dx=5 dy=0 dh=10 dv=0
EndChar

StartChar: Kcommaaccent
Encoding: 310 310 59
Width: 484
GlyphClass: 2
Flags: MW
HStem: -133 80<204 234 204 279> 0 21G<62 140 62 62 385 473 385 385> 586 20G<62 140 140 140 380 467 467 467>
VStem: 62 78<0 188 286 606> 204 75<-127 -53 -127 -53 -127 -53>
LayerCount: 2
Back
Fore
SplineSet
467 606 m 1
 467 606 285 362 285 362 c 1
 285 362 473 0 473 0 c 1
 473 0 385 0 385 0 c 1
 385 0 237 296 237 296 c 1
 237 296 140 188 140 188 c 1
 140 188 140 0 140 0 c 1
 140 0 62 0 62 0 c 1
 62 0 62 606 62 606 c 1
 62 606 140 606 140 606 c 1
 140 606 140 286 140 286 c 1
 140 286 380 606 380 606 c 1
 380 606 467 606 467 606 c 1
215 -196 m 1
 215 -196 234 -133 234 -133 c 1
 234 -133 204 -133 204 -133 c 1
 204 -133 204 -53 204 -53 c 1
 204 -53 279 -53 279 -53 c 1
 279 -53 279 -127 279 -127 c 1
 279 -127 254 -196 254 -196 c 1
 254 -196 215 -196 215 -196 c 1
EndSplineSet
Position2: "'cpsp' Capital Spacing lookup 0 subtable" dx=5 dy=0 dh=10 dv=0
EndChar

StartChar: L
Encoding: 76 76 60
Width: 403
GlyphClass: 2
Flags: MW
HStem: 0 71<140 387 140 387> 586 20G<62 140 140 140>
VStem: 62 78<71 606 71 606 71 606>
AnchorPoint: "Anchor-1" 202 0 basechar 0
AnchorPoint: "Anchor-0" 202 606 basechar 0
LayerCount: 2
Back
Fore
SplineSet
387 71 m 1
 387 71 387 0 387 0 c 1
 387 0 62 0 62 0 c 1
 62 0 62 606 62 606 c 1
 62 606 140 606 140 606 c 1
 140 606 140 71 140 71 c 1
 140 71 387 71 387 71 c 1
EndSplineSet
Position2: "'cpsp' Capital Spacing lookup 0 subtable" dx=5 dy=0 dh=10 dv=0
EndChar

StartChar: Lacute
Encoding: 313 313 61
Width: 403
GlyphClass: 2
Flags: MW
HStem: 0 71<140 387 140 387> 586 20G<62 140 140 140> 664 117<45 201 45 201>
VStem: 62 78<71 606 71 606 71 606>
LayerCount: 2
Back
Fore
SplineSet
107 664 m 1
 107 664 45 664 45 664 c 1
 45 664 121 781 121 781 c 1
 121 781 201 781 201 781 c 1
 201 781 202 778 202 778 c 1
 202 778 107 664 107 664 c 1
387 71 m 1
 387 71 387 0 387 0 c 1
 387 0 62 0 62 0 c 1
 62 0 62 606 62 606 c 1
 62 606 140 606 140 606 c 1
 140 606 140 71 140 71 c 1
 140 71 387 71 387 71 c 1
EndSplineSet
Position2: "'cpsp' Capital Spacing lookup 0 subtable" dx=5 dy=0 dh=10 dv=0
EndChar

StartChar: Lcaron
Encoding: 317 317 62
Width: 403
GlyphClass: 2
Flags: MW
HStem: 0 71<140 387 140 387> 511 95<282 317>
VStem: 62 78<71 606 71 606 71 606> 282 88<519 606 519 606 519 606>
LayerCount: 2
Back
Fore
SplineSet
387 71 m 1
 387 71 387 0 387 0 c 1
 387 0 62 0 62 0 c 1
 62 0 62 606 62 606 c 1
 62 606 140 606 140 606 c 1
 140 606 140 71 140 71 c 1
 140 71 387 71 387 71 c 1
328 401 m 1
 328 401 282 401 282 401 c 1
 282 401 317 511 317 511 c 1
 317 511 282 511 282 511 c 1
 282 511 282 606 282 606 c 1
 282 606 370 606 370 606 c 1
 370 606 370 519 370 519 c 1
 370 519 328 401 328 401 c 1
EndSplineSet
Position2: "'cpsp' Capital Spacing lookup 0 subtable" dx=5 dy=0 dh=10 dv=0
EndChar

StartChar: Lcommaaccent
Encoding: 315 315 63
Width: 403
GlyphClass: 2
Flags: MW
HStem: -133 80<164 194 164 240> 0 71<140 387 140 387> 586 20G<62 140 140 140>
VStem: 62 78<71 606 71 606 71 606> 164 76<-127 -53 -127 -53 -127 -53>
LayerCount: 2
Back
Fore
SplineSet
387 71 m 1
 387 71 387 0 387 0 c 1
 387 0 62 0 62 0 c 1
 62 0 62 606 62 606 c 1
 62 606 140 606 140 606 c 1
 140 606 140 71 140 71 c 1
 140 71 387 71 387 71 c 1
214 -196 m 1xf8
 214 -196 174 -196 174 -196 c 1
 174 -196 194 -133 194 -133 c 1
 194 -133 164 -133 164 -133 c 1
 164 -133 164 -53 164 -53 c 1
 164 -53 240 -53 240 -53 c 1
 240 -53 240 -127 240 -127 c 1
 240 -127 214 -196 214 -196 c 1xf8
EndSplineSet
Position2: "'cpsp' Capital Spacing lookup 0 subtable" dx=5 dy=0 dh=10 dv=0
EndChar

StartChar: Ldot
Encoding: 319 319 64
Width: 403
GlyphClass: 2
Flags: MW
HStem: 0 71<140 387 140 387> 366 98<261 350 261 350> 586 20G<62 140 140 140>
VStem: 62 78<71 606 71 606 71 606> 261 89<366 464 366 464>
LayerCount: 2
Back
Fore
SplineSet
387 71 m 1
 387 71 387 0 387 0 c 1
 387 0 62 0 62 0 c 1
 62 0 62 606 62 606 c 1
 62 606 140 606 140 606 c 1
 140 606 140 71 140 71 c 1
 140 71 387 71 387 71 c 1
261 366 m 1
 261 366 261 464 261 464 c 1
 261 464 350 464 350 464 c 1
 350 464 350 366 350 366 c 1
 350 366 261 366 261 366 c 1
EndSplineSet
Ligature2: "Ligature Substitution lookup 32 subtable" L periodcentered
Position2: "'cpsp' Capital Spacing lookup 0 subtable" dx=5 dy=0 dh=10 dv=0
EndChar

StartChar: Lslash
Encoding: 321 321 65
Width: 403
GlyphClass: 2
Flags: MW
HStem: 0 71<140 387 140 387> 586 20G<62 140 140 140>
VStem: 62 78<71 217 217 217 280 286 71 349 349 606>
LayerCount: 2
Back
Fore
SplineSet
261 457 m 1
 261 457 261 392 261 392 c 1
 261 392 140 286 140 286 c 1
 140 286 140 71 140 71 c 1
 140 71 387 71 387 71 c 1
 387 71 387 0 387 0 c 1
 387 0 62 0 62 0 c 1
 62 0 62 217 62 217 c 1
 62 217 0 163 0 163 c 1
 0 163 0 225 0 225 c 1
 0 225 62 280 62 280 c 1
 62 280 62 606 62 606 c 1
 62 606 140 606 140 606 c 1
 140 606 140 349 140 349 c 1
 140 349 261 457 261 457 c 1
EndSplineSet
Position2: "'cpsp' Capital Spacing lookup 0 subtable" dx=5 dy=0 dh=10 dv=0
EndChar

StartChar: M
Encoding: 77 77 66
Width: 604
GlyphClass: 2
Flags: MW
HStem: 0 21G<55 125 55 55 263 332 263 263 471 549 471 471> 0 72<301 304 301 332 263 304> 534 72<119 123 119 119 474 477 474 474>
VStem: 55 70<0 440 0 606> 471 78<0 440 440 450.5>
LayerCount: 2
Back
Fore
SplineSet
471 0 m 1xb8
 471 0 471 440 471 440 c 2
 471 461 477 534 477 534 c 1
 477 534 474 534 474 534 c 1
 472 523 469 513 467 502 c 0
 463 481 459 460 453 440 c 2
 453 440 332 0 332 0 c 1
 332 0 263 0 263 0 c 1
 263 0 141 440 141 440 c 2
 136 460 132 481 129 502 c 0
 127 513 125 523 123 534 c 1
 123 534 119 534 119 534 c 1
 119 534 125 458 125 440 c 2
 125 440 125 0 125 0 c 1
 125 0 55 0 55 0 c 1
 55 0 55 606 55 606 c 1
 55 606 173 606 173 606 c 1
 173 606 280 209 280 209 c 2
 292 164 301 72 301 72 c 1
 301 72 304 72 304 72 c 1x78
 304 72 312 166 324 209 c 2
 324 209 431 606 431 606 c 1
 431 606 549 606 549 606 c 1
 549 606 549 0 549 0 c 1
 549 0 471 0 471 0 c 1xb8
EndSplineSet
Position2: "'cpsp' Capital Spacing lookup 0 subtable" dx=5 dy=0 dh=10 dv=0
EndChar

StartChar: N
Encoding: 78 78 67
Width: 523
GlyphClass: 2
Flags: MW
HStem: 0 21G<62 132 62 62 397 461 397 397> 586 20G<62 129 129 129 392 461 461 461>
VStem: 62 70<0 386 0 606> 392 69<144 144 225 606 0 606>
AnchorPoint: "Anchor-1" 262 0 basechar 0
AnchorPoint: "Anchor-0" 262 606 basechar 0
LayerCount: 2
Back
Fore
SplineSet
397 0 m 1
 397 0 170 386 170 386 c 2
 155 412 131 468 131 468 c 1
 131 468 128 467 128 467 c 1
 128 467 132 411 132 386 c 2
 132 386 132 0 132 0 c 1
 132 0 62 0 62 0 c 1
 62 0 62 606 62 606 c 1
 62 606 129 606 129 606 c 1
 129 606 354 225 354 225 c 2
 368 202 392 144 392 144 c 1
 392 144 394 145 394 145 c 1
 394 145 392 206 392 225 c 2
 392 225 392 606 392 606 c 1
 392 606 461 606 461 606 c 1
 461 606 461 0 461 0 c 1
 461 0 397 0 397 0 c 1
EndSplineSet
Position2: "'cpsp' Capital Spacing lookup 0 subtable" dx=5 dy=0 dh=10 dv=0
EndChar

StartChar: Nacute
Encoding: 323 323 68
Width: 523
GlyphClass: 2
Flags: MW
HStem: 0 21G<62 132 62 62 397 461 397 397> 586 20G<62 129 129 129 392 461 461 461> 664 117<209 364 209 364>
VStem: 62 70<0 386 0 606> 392 69<144 144 225 606 0 606>
LayerCount: 2
Back
Fore
SplineSet
271 664 m 1
 271 664 209 664 209 664 c 1
 209 664 285 781 285 781 c 1
 285 781 364 781 364 781 c 1
 364 781 365 778 365 778 c 1
 365 778 271 664 271 664 c 1
397 0 m 1
 397 0 170 386 170 386 c 2
 155 412 131 468 131 468 c 1
 131 468 128 467 128 467 c 1
 128 467 132 411 132 386 c 2
 132 386 132 0 132 0 c 1
 132 0 62 0 62 0 c 1
 62 0 62 606 62 606 c 1
 62 606 129 606 129 606 c 1
 129 606 354 225 354 225 c 2
 368 202 392 144 392 144 c 1
 392 144 394 145 394 145 c 1
 394 145 392 206 392 225 c 2
 392 225 392 606 392 606 c 1
 392 606 461 606 461 606 c 1
 461 606 461 0 461 0 c 1
 461 0 397 0 397 0 c 1
EndSplineSet
Position2: "'cpsp' Capital Spacing lookup 0 subtable" dx=5 dy=0 dh=10 dv=0
EndChar

StartChar: Ncaron
Encoding: 327 327 69
Width: 523
GlyphClass: 2
Flags: MW
HStem: 0 21G<62 132 62 62 397 461 397 397> 586 20G<62 129 129 129 392 461 461 461> 661 120<151 226 151 295>
VStem: 62 70<0 386 0 606> 392 69<144 144 225 606 0 606>
LayerCount: 2
Back
Fore
SplineSet
226 661 m 1
 226 661 151 781 151 781 c 1
 151 781 222 781 222 781 c 1
 222 781 262 711 262 711 c 1
 262 711 301 781 301 781 c 1
 301 781 372 781 372 781 c 1
 372 781 295 661 295 661 c 1
 295 661 226 661 226 661 c 1
397 0 m 1
 397 0 170 386 170 386 c 2
 155 412 131 468 131 468 c 1
 131 468 128 467 128 467 c 1
 128 467 132 411 132 386 c 2
 132 386 132 0 132 0 c 1
 132 0 62 0 62 0 c 1
 62 0 62 606 62 606 c 1
 62 606 129 606 129 606 c 1
 129 606 354 225 354 225 c 2
 368 202 392 144 392 144 c 1
 392 144 394 145 394 145 c 1
 394 145 392 206 392 225 c 2
 392 225 392 606 392 606 c 1
 392 606 461 606 461 606 c 1
 461 606 461 0 461 0 c 1
 461 0 397 0 397 0 c 1
EndSplineSet
Position2: "'cpsp' Capital Spacing lookup 0 subtable" dx=5 dy=0 dh=10 dv=0
EndChar

StartChar: Ncommaaccent
Encoding: 325 325 70
Width: 523
GlyphClass: 2
Flags: MW
HStem: -133 80<224 255 224 300> 0 21G<62 132 62 62 397 461 397 397> 586 20G<62 129 129 129 392 461 461 461>
VStem: 62 70<0 386 0 606> 224 76<-127 -53 -127 -53 -127 -53> 392 69<144 144 225 606 0 606>
LayerCount: 2
Back
Fore
SplineSet
397 0 m 1
 397 0 170 386 170 386 c 2
 155 412 131 468 131 468 c 1
 131 468 128 467 128 467 c 1
 128 467 132 411 132 386 c 2
 132 386 132 0 132 0 c 1
 132 0 62 0 62 0 c 1
 62 0 62 606 62 606 c 1
 62 606 129 606 129 606 c 1
 129 606 354 225 354 225 c 2
 368 202 392 144 392 144 c 1
 392 144 394 145 394 145 c 1
 394 145 392 206 392 225 c 2
 392 225 392 606 392 606 c 1
 392 606 461 606 461 606 c 1
 461 606 461 0 461 0 c 1
 461 0 397 0 397 0 c 1
274 -196 m 1
 274 -196 234 -196 234 -196 c 1
 234 -196 255 -133 255 -133 c 1
 255 -133 224 -133 224 -133 c 1
 224 -133 224 -53 224 -53 c 1
 224 -53 300 -53 300 -53 c 1
 300 -53 300 -127 300 -127 c 1
 300 -127 274 -196 274 -196 c 1
EndSplineSet
Position2: "'cpsp' Capital Spacing lookup 0 subtable" dx=5 dy=0 dh=10 dv=0
EndChar

StartChar: Eng
Encoding: 330 330 71
Width: 523
GlyphClass: 2
Flags: MW
HStem: -161 61<359 361 309 405> -150 50<309 347> 0 21G<62 132 62 62> 586 20G<62 129 129 129 389 461 461 461>
VStem: 62 70<0 386 0 606> 392 69<144 144 215.5 225>
LayerCount: 2
Back
Fore
SplineSet
461 -54 m 2xbc
 461 -107 440 -161 370 -161 c 0xbc
 348 -161 324 -156 309 -150 c 1x7c
 309 -150 309 -100 309 -100 c 1
 309 -100 347 -100 347 -100 c 2
 375 -100 389 -85 389 -57 c 2
 389 -57 389 13 389 13 c 1
 389 13 170 386 170 386 c 2
 155 412 131 468 131 468 c 1
 131 468 128 467 128 467 c 1
 128 467 132 411 132 386 c 2
 132 386 132 0 132 0 c 1
 132 0 62 0 62 0 c 1
 62 0 62 606 62 606 c 1
 62 606 129 606 129 606 c 1
 129 606 354 225 354 225 c 2
 368 202 392 144 392 144 c 1
 392 144 394 145 394 145 c 1
 394 145 392 206 392 225 c 2
 392 225 389 606 389 606 c 1
 389 606 461 606 461 606 c 1
 461 606 461 -54 461 -54 c 2xbc
EndSplineSet
Position2: "'cpsp' Capital Spacing lookup 0 subtable" dx=5 dy=0 dh=10 dv=0
EndChar

StartChar: Ntilde
Encoding: 209 209 72
Width: 523
GlyphClass: 2
Flags: MW
HStem: 0 21G<62 132 62 62 397 461 397 397> 586 20G<62 129 129 129 392 461 461 461> 689 65<306 317 300.5 342.5> 716 65<206 218 181.5 222>
VStem: 62 70<0 386 0 606> 392 69<144 144 225 606 0 606>
LayerCount: 2
Back
Fore
SplineSet
391 781 m 1xdc
 391 740 369 689 316 689 c 0xec
 296 689 278 696 261 703 c 0
 246 710 230 716 214 716 c 0xdc
 198 716 187 709 184 689 c 1
 184 689 133 689 133 689 c 1xec
 133 729 155 781 208 781 c 0xdc
 228 781 245 774 261 767 c 0
 277 760 292 754 309 754 c 0xec
 325 754 337 760 339 781 c 1
 339 781 391 781 391 781 c 1xdc
397 0 m 1
 397 0 170 386 170 386 c 2
 155 412 131 468 131 468 c 1
 131 468 128 467 128 467 c 1
 128 467 132 411 132 386 c 2
 132 386 132 0 132 0 c 1
 132 0 62 0 62 0 c 1
 62 0 62 606 62 606 c 1
 62 606 129 606 129 606 c 1
 129 606 354 225 354 225 c 2
 368 202 392 144 392 144 c 1
 392 144 394 145 394 145 c 1
 394 145 392 206 392 225 c 2
 392 225 392 606 392 606 c 1
 392 606 461 606 461 606 c 1
 461 606 461 0 461 0 c 1
 461 0 397 0 397 0 c 1
EndSplineSet
Position2: "'cpsp' Capital Spacing lookup 0 subtable" dx=5 dy=0 dh=10 dv=0
EndChar

StartChar: O
Encoding: 79 79 73
Width: 564
GlyphClass: 2
Flags: MW
HStem: -11 72<233.5 330.5 233.5 356.5> 545 72<233.5 330.5>
VStem: 43 82<207 281 281 325 207 408.5> 439 82<281 325 325 399>
AnchorPoint: "Anchor-1" 0 0 basechar 0
AnchorPoint: "Anchor-0" 282 606 basechar 0
LayerCount: 2
Back
Fore
SplineSet
282 617 m 0
 431 617 521 514 521 303 c 0
 521 93 431 -11 282 -11 c 0
 133 -11 43 93 43 303 c 0
 43 514 133 617 282 617 c 0
282 545 m 0
 185 545 125 473 125 325 c 2
 125 325 125 281 125 281 c 2
 125 133 185 61 282 61 c 0
 379 61 439 133 439 281 c 2
 439 281 439 325 439 325 c 2
 439 473 379 545 282 545 c 0
EndSplineSet
Substitution2: "Single Substitution lookup 33 subtable" ordmasculine
Substitution2: "'aalt' Access All Alternates lookup 0 subtable" ordmasculine
Position2: "'cpsp' Capital Spacing lookup 0 subtable" dx=5 dy=0 dh=10 dv=0
EndChar

StartChar: Oacute
Encoding: 211 211 74
Width: 564
GlyphClass: 2
Flags: MW
HStem: -11 72<233.5 330.5 233.5 356.5> 545 72<233.5 330.5> 664 117<230 385 230 385>
VStem: 43 82<207 281 281 325 207 408.5> 439 82<281 325 325 399>
LayerCount: 2
Back
Fore
SplineSet
291 664 m 1
 291 664 230 664 230 664 c 1
 230 664 306 781 306 781 c 1
 306 781 385 781 385 781 c 1
 385 781 386 778 386 778 c 1
 386 778 291 664 291 664 c 1
282 617 m 0
 431 617 521 514 521 303 c 0
 521 93 431 -11 282 -11 c 0
 133 -11 43 93 43 303 c 0
 43 514 133 617 282 617 c 0
282 545 m 0
 185 545 125 473 125 325 c 2
 125 325 125 281 125 281 c 2
 125 133 185 61 282 61 c 0
 379 61 439 133 439 281 c 2
 439 281 439 325 439 325 c 2
 439 473 379 545 282 545 c 0
EndSplineSet
Position2: "'cpsp' Capital Spacing lookup 0 subtable" dx=5 dy=0 dh=10 dv=0
EndChar

StartChar: Obreve
Encoding: 334 334 75
Width: 564
GlyphClass: 2
Flags: MW
HStem: -11 72<233.5 330.5 233.5 356.5> 545 72<233.5 330.5> 695 56<267.5 297 267.5 316>
VStem: 43 82<207 281 281 325 207 408.5> 439 82<281 325 325 399>
LayerCount: 2
Back
Fore
SplineSet
392 781 m 1
 392 741 350 695 282 695 c 0
 215 695 173 741 173 781 c 1
 173 781 230 781 230 781 c 1
 232 768 253 751 282 751 c 0
 312 751 333 768 335 781 c 1
 335 781 392 781 392 781 c 1
282 617 m 0
 431 617 521 514 521 303 c 0
 521 93 431 -11 282 -11 c 0
 133 -11 43 93 43 303 c 0
 43 514 133 617 282 617 c 0
282 545 m 0
 185 545 125 473 125 325 c 2
 125 325 125 281 125 281 c 2
 125 133 185 61 282 61 c 0
 379 61 439 133 439 281 c 2
 439 281 439 325 439 325 c 2
 439 473 379 545 282 545 c 0
EndSplineSet
Position2: "'cpsp' Capital Spacing lookup 0 subtable" dx=5 dy=0 dh=10 dv=0
EndChar

StartChar: Ocircumflex
Encoding: 212 212 76
Width: 564
GlyphClass: 2
Flags: MW
HStem: -11 72<233.5 330.5 233.5 356.5> 545 72<233.5 330.5> 660 120<172 317 172 317 248 322 248 392>
VStem: 43 82<207 281 281 325 207 408.5> 439 82<281 325 325 399>
LayerCount: 2
Back
Fore
SplineSet
283 730 m 1
 283 730 243 660 243 660 c 1
 243 660 172 660 172 660 c 1
 172 660 248 780 248 780 c 1
 248 780 317 780 317 780 c 1
 317 780 392 660 392 660 c 1
 392 660 322 660 322 660 c 1
 322 660 283 730 283 730 c 1
282 617 m 0
 431 617 521 514 521 303 c 0
 521 93 431 -11 282 -11 c 0
 133 -11 43 93 43 303 c 0
 43 514 133 617 282 617 c 0
282 545 m 0
 185 545 125 473 125 325 c 2
 125 325 125 281 125 281 c 2
 125 133 185 61 282 61 c 0
 379 61 439 133 439 281 c 2
 439 281 439 325 439 325 c 2
 439 473 379 545 282 545 c 0
EndSplineSet
Position2: "'cpsp' Capital Spacing lookup 0 subtable" dx=5 dy=0 dh=10 dv=0
EndChar

StartChar: Odieresis
Encoding: 214 214 77
Width: 564
GlyphClass: 2
Flags: MW
HStem: -11 72<233.5 330.5 233.5 356.5> 545 72<233.5 330.5> 697 84<178 255 178 255 310 387 178 310>
VStem: 43 82<207 281 281 325 207 408.5> 178 77<697 781 697 781> 310 77<697 781 697 781> 439 82<281 325 325 399>
LayerCount: 2
Back
Fore
SplineSet
178 697 m 1
 178 697 178 781 178 781 c 1
 178 781 255 781 255 781 c 1
 255 781 255 697 255 697 c 1
 255 697 178 697 178 697 c 1
310 697 m 1
 310 697 310 781 310 781 c 1
 310 781 387 781 387 781 c 1
 387 781 387 697 387 697 c 1
 387 697 310 697 310 697 c 1
282 617 m 0
 431 617 521 514 521 303 c 0
 521 93 431 -11 282 -11 c 0
 133 -11 43 93 43 303 c 0
 43 514 133 617 282 617 c 0
282 545 m 0
 185 545 125 473 125 325 c 2
 125 325 125 281 125 281 c 2
 125 133 185 61 282 61 c 0
 379 61 439 133 439 281 c 2
 439 281 439 325 439 325 c 2
 439 473 379 545 282 545 c 0
EndSplineSet
Position2: "'cpsp' Capital Spacing lookup 0 subtable" dx=5 dy=0 dh=10 dv=0
EndChar

StartChar: Ograve
Encoding: 210 210 78
Width: 564
GlyphClass: 2
Flags: MW
HStem: -11 72<233.5 330.5 233.5 356.5> 545 72<233.5 330.5> 664 117<179 274 179 335>
VStem: 43 82<207 281 281 325 207 408.5> 439 82<281 325 325 399>
LayerCount: 2
Back
Fore
SplineSet
274 664 m 1
 274 664 179 778 179 778 c 1
 179 778 179 781 179 781 c 1
 179 781 259 781 259 781 c 1
 259 781 335 664 335 664 c 1
 335 664 274 664 274 664 c 1
282 617 m 0
 431 617 521 514 521 303 c 0
 521 93 431 -11 282 -11 c 0
 133 -11 43 93 43 303 c 0
 43 514 133 617 282 617 c 0
282 545 m 0
 185 545 125 473 125 325 c 2
 125 325 125 281 125 281 c 2
 125 133 185 61 282 61 c 0
 379 61 439 133 439 281 c 2
 439 281 439 325 439 325 c 2
 439 473 379 545 282 545 c 0
EndSplineSet
Position2: "'cpsp' Capital Spacing lookup 0 subtable" dx=5 dy=0 dh=10 dv=0
EndChar

StartChar: Ohungarumlaut
Encoding: 336 336 79
Width: 564
GlyphClass: 2
Flags: MW
HStem: -11 72<233.5 330.5 233.5 356.5> 545 72<233.5 330.5> 664 117<253 258 198 331 313 313 313 331 368 374>
VStem: 43 82<207 281 281 325 207 408.5> 439 82<281 325 325 399>
LayerCount: 2
Back
Fore
SplineSet
258 664 m 1
 258 664 198 664 198 664 c 1
 198 664 253 781 253 781 c 1
 253 781 331 781 331 781 c 1
 331 781 332 778 332 778 c 1
 332 778 258 664 258 664 c 1
374 664 m 1
 374 664 313 664 313 664 c 1
 313 664 368 781 368 781 c 1
 368 781 447 781 447 781 c 1
 447 781 448 778 448 778 c 1
 448 778 374 664 374 664 c 1
282 617 m 0
 431 617 521 514 521 303 c 0
 521 93 431 -11 282 -11 c 0
 133 -11 43 93 43 303 c 0
 43 514 133 617 282 617 c 0
282 545 m 0
 185 545 125 473 125 325 c 2
 125 325 125 281 125 281 c 2
 125 133 185 61 282 61 c 0
 379 61 439 133 439 281 c 2
 439 281 439 325 439 325 c 2
 439 473 379 545 282 545 c 0
EndSplineSet
Position2: "'cpsp' Capital Spacing lookup 0 subtable" dx=5 dy=0 dh=10 dv=0
EndChar

StartChar: Omacron
Encoding: 332 332 80
Width: 564
GlyphClass: 2
Flags: MW
HStem: -11 72<233.5 330.5 233.5 356.5> 545 72<233.5 330.5> 671 64<171 393 171 393>
VStem: 43 82<207 281 281 325 207 408.5> 171 222<671 735 671 735> 439 82<281 325 325 399>
LayerCount: 2
Back
Fore
SplineSet
171 735 m 1
 171 735 393 735 393 735 c 1
 393 735 393 671 393 671 c 1
 393 671 171 671 171 671 c 1
 171 671 171 735 171 735 c 1
282 617 m 0
 431 617 521 514 521 303 c 0
 521 93 431 -11 282 -11 c 0
 133 -11 43 93 43 303 c 0
 43 514 133 617 282 617 c 0
282 545 m 0
 185 545 125 473 125 325 c 2
 125 325 125 281 125 281 c 2
 125 133 185 61 282 61 c 0
 379 61 439 133 439 281 c 2
 439 281 439 325 439 325 c 2
 439 473 379 545 282 545 c 0
EndSplineSet
Position2: "'cpsp' Capital Spacing lookup 0 subtable" dx=5 dy=0 dh=10 dv=0
EndChar

StartChar: Oslash
Encoding: 216 216 81
Width: 564
GlyphClass: 2
Flags: MW
HStem: -11 72<261.5 330.5 261.5 356.5> 545 72<233.5 302> 619 20G<464 521 521 521>
VStem: 43 82<251.5 281 281 325 251.5 408.5> 439 82<281 325 325 354.5>
AnchorPoint: "Anchor-1" 0 0 basechar 0
AnchorPoint: "Anchor-0" 282 606 basechar 0
LayerCount: 2
Back
Fore
SplineSet
457 538 m 1
 498 486 521 408 521 303 c 0
 521 93 431 -11 282 -11 c 0
 226 -11 179 4 141 33 c 1
 141 33 101 -33 101 -33 c 1
 101 -33 44 -33 44 -33 c 1
 44 -33 107 67 107 67 c 1
 65 119 43 198 43 303 c 0
 43 514 133 617 282 617 c 0
 338 617 385 602 423 573 c 1xd8
 423 573 464 639 464 639 c 1
 464 639 521 639 521 639 c 1xb8
 521 639 457 538 457 538 c 1
282 545 m 0
 185 545 125 473 125 325 c 2
 125 325 125 281 125 281 c 2
 125 222 134 175 152 140 c 1
 152 140 382 507 382 507 c 1
 355 533 322 545 282 545 c 0
182 98 m 1
 208 73 241 61 282 61 c 0
 379 61 439 133 439 281 c 2
 439 281 439 325 439 325 c 2
 439 384 430 431 412 466 c 1
 412 466 182 98 182 98 c 1
EndSplineSet
Position2: "'cpsp' Capital Spacing lookup 0 subtable" dx=5 dy=0 dh=10 dv=0
EndChar

StartChar: Oslashacute
Encoding: 510 510 82
Width: 564
GlyphClass: 2
Flags: MW
HStem: -11 72<261.5 330.5 261.5 356.5> 545 72<233.5 302> 619 20G<464 521 521 521> 664 117<230 385 230 385>
VStem: 43 82<251.5 281 281 325 251.5 408.5> 439 82<281 325 325 354.5>
LayerCount: 2
Back
Fore
SplineSet
291 664 m 1
 291 664 230 664 230 664 c 1
 230 664 306 781 306 781 c 1
 306 781 385 781 385 781 c 1
 385 781 386 778 386 778 c 1
 386 778 291 664 291 664 c 1
457 538 m 1
 498 486 521 408 521 303 c 0
 521 93 431 -11 282 -11 c 0
 226 -11 179 4 141 33 c 1
 141 33 101 -33 101 -33 c 1
 101 -33 44 -33 44 -33 c 1
 44 -33 107 67 107 67 c 1
 65 119 43 198 43 303 c 0
 43 514 133 617 282 617 c 0
 338 617 385 602 423 573 c 1xdc
 423 573 464 639 464 639 c 1
 464 639 521 639 521 639 c 1xbc
 521 639 457 538 457 538 c 1
282 545 m 0
 185 545 125 473 125 325 c 2
 125 325 125 281 125 281 c 2
 125 222 134 175 152 140 c 1
 152 140 382 507 382 507 c 1
 355 533 322 545 282 545 c 0
182 98 m 1
 208 73 241 61 282 61 c 0
 379 61 439 133 439 281 c 2
 439 281 439 325 439 325 c 2
 439 384 430 431 412 466 c 1
 412 466 182 98 182 98 c 1
EndSplineSet
Position2: "'cpsp' Capital Spacing lookup 0 subtable" dx=5 dy=0 dh=10 dv=0
EndChar

StartChar: Otilde
Encoding: 213 213 83
Width: 564
GlyphClass: 2
Flags: MW
HStem: -11 72<233.5 330.5 233.5 356.5> 545 72<233.5 330.5> 689 65<326.5 338 321.5 362.5> 716 65<226 237.5 201.5 242.5>
VStem: 43 82<207 281 281 325 207 408.5> 439 82<281 325 325 399>
LayerCount: 2
Back
Fore
SplineSet
411 781 m 1xdc
 411 740 389 689 336 689 c 0xec
 317 689 300 696 283 703 c 0
 267 710 251 716 234 716 c 0xdc
 218 716 207 709 204 689 c 1
 204 689 153 689 153 689 c 1xec
 153 729 175 781 228 781 c 0xdc
 247 781 264 774 281 767 c 0
 297 760 313 754 330 754 c 0xec
 346 754 357 760 360 781 c 1
 360 781 411 781 411 781 c 1xdc
282 617 m 0
 431 617 521 514 521 303 c 0
 521 93 431 -11 282 -11 c 0
 133 -11 43 93 43 303 c 0
 43 514 133 617 282 617 c 0
282 545 m 0
 185 545 125 473 125 325 c 2
 125 325 125 281 125 281 c 2
 125 133 185 61 282 61 c 0
 379 61 439 133 439 281 c 2
 439 281 439 325 439 325 c 2
 439 473 379 545 282 545 c 0
EndSplineSet
Position2: "'cpsp' Capital Spacing lookup 0 subtable" dx=5 dy=0 dh=10 dv=0
EndChar

StartChar: OE
Encoding: 338 338 84
Width: 725
GlyphClass: 2
Flags: MW
HStem: -11 72<211 269.5> 0 71<453 693 453 693> 275 71<453 648 453 648> 536 70<453 688 453 453> 545 72<211 269.5 179 289>
VStem: 43 82<207 281 281 325 207 408.5> 376 77<0 275 60 275 71 325 346 399>
AnchorPoint: "Anchor-1" 0 0 basechar 0
AnchorPoint: "Anchor-0" 362 606 basechar 0
LayerCount: 2
Back
Fore
SplineSet
241 617 m 0xae
 298 617 343 593 376 546 c 1x6e
 376 546 376 606 376 606 c 1
 376 606 688 606 688 606 c 1
 688 606 688 536 688 536 c 1
 688 536 453 536 453 536 c 1
 453 536 453 346 453 346 c 1
 453 346 648 346 648 346 c 1
 648 346 648 275 648 275 c 1
 648 275 453 275 453 275 c 1
 453 275 453 71 453 71 c 1
 453 71 693 71 693 71 c 1
 693 71 693 0 693 0 c 1
 693 0 376 0 376 0 c 1x76
 376 0 376 60 376 60 c 1
 343 12 298 -11 241 -11 c 0
 117 -11 43 93 43 303 c 0
 43 514 117 617 241 617 c 0xae
250 545 m 0
 172 545 125 473 125 325 c 2
 125 325 125 281 125 281 c 2
 125 133 172 61 250 61 c 0
 328 61 376 133 376 281 c 2
 376 281 376 325 376 325 c 2
 376 473 328 545 250 545 c 0
EndSplineSet
Position2: "'cpsp' Capital Spacing lookup 0 subtable" dx=5 dy=0 dh=10 dv=0
EndChar

StartChar: P
Encoding: 80 80 85
Width: 484
GlyphClass: 2
Flags: MW
HStem: 0 21G<62 62 62 140> 250 71<140 276 276 278 140 276> 536 70<140 276 140 140>
VStem: 62 78<0 250 0 321 321 536> 378 82<397 462.5>
LayerCount: 2
Back
Fore
SplineSet
62 0 m 1
 62 0 62 606 62 606 c 1
 62 606 278 606 278 606 c 2
 398 606 460 535 460 430 c 0
 460 323 391 250 278 250 c 2
 278 250 140 250 140 250 c 1
 140 250 140 0 140 0 c 1
 140 0 62 0 62 0 c 1
276 321 m 2
 338 321 378 364 378 430 c 0
 378 495 342 536 276 536 c 2
 276 536 140 536 140 536 c 1
 140 536 140 321 140 321 c 1
 140 321 276 321 276 321 c 2
EndSplineSet
Position2: "'cpsp' Capital Spacing lookup 0 subtable" dx=5 dy=0 dh=10 dv=0
EndChar

StartChar: Thorn
Encoding: 222 222 86
Width: 484
GlyphClass: 2
Flags: MW
HStem: 0 21G<62 140 62 62> 130 71<140 276 276 278 140 276> 415 71<140 276 140 278> 586 20G<62 140 140 140>
VStem: 62 78<0 130 201 415 486 606> 378 82<276.5 342>
LayerCount: 2
Back
Fore
SplineSet
278 486 m 2
 398 486 460 415 460 309 c 0
 460 202 391 130 278 130 c 2
 278 130 140 130 140 130 c 1
 140 130 140 0 140 0 c 1
 140 0 62 0 62 0 c 1
 62 0 62 606 62 606 c 1
 62 606 140 606 140 606 c 1
 140 606 140 486 140 486 c 1
 140 486 278 486 278 486 c 2
140 201 m 1
 140 201 276 201 276 201 c 2
 338 201 378 244 378 309 c 0
 378 375 342 415 276 415 c 2
 276 415 140 415 140 415 c 1
 140 415 140 201 140 201 c 1
EndSplineSet
Position2: "'cpsp' Capital Spacing lookup 0 subtable" dx=5 dy=0 dh=10 dv=0
EndChar

StartChar: Q
Encoding: 81 81 87
Width: 564
GlyphClass: 2
Flags: MW
HStem: -11 72<233.5 282 282 293> 545 72<233.5 330.5>
VStem: 43 82<207 281 281 325 207 408.5> 439 82<281 325 325 399>
LayerCount: 2
Back
Fore
SplineSet
43 303 m 0
 43 514 133 617 282 617 c 0
 431 617 521 514 521 303 c 0
 521 142 468 43 377 6 c 1
 377 6 502 -110 502 -110 c 1
 502 -110 398 -110 398 -110 c 1
 398 -110 293 -11 293 -11 c 1
 293 -11 282 -11 282 -11 c 2
 133 -11 43 93 43 303 c 0
125 281 m 2
 125 133 185 61 282 61 c 0
 379 61 439 133 439 281 c 2
 439 281 439 325 439 325 c 2
 439 473 379 545 282 545 c 0
 185 545 125 473 125 325 c 2
 125 325 125 281 125 281 c 2
EndSplineSet
Position2: "'cpsp' Capital Spacing lookup 0 subtable" dx=5 dy=0 dh=10 dv=0
EndChar

StartChar: R
Encoding: 82 82 88
Width: 523
GlyphClass: 2
Flags: MW
HStem: 0 21G<62 140 62 62 415 501 415 415> 268 71<140 302 140 303> 536 70<140 303 140 140>
VStem: 62 78<0 268 339 536> 406 81<408 468.5>
AnchorPoint: "Anchor-1" 262 0 basechar 0
AnchorPoint: "Anchor-0" 262 606 basechar 0
LayerCount: 2
Back
Fore
SplineSet
306 606 m 2
 425 606 487 538 487 438 c 0
 487 363 447 305 379 282 c 1
 379 282 501 0 501 0 c 1
 501 0 415 0 415 0 c 1
 415 0 302 268 302 268 c 1
 302 268 140 268 140 268 c 1
 140 268 140 0 140 0 c 1
 140 0 62 0 62 0 c 1
 62 0 62 606 62 606 c 1
 62 606 306 606 306 606 c 2
140 339 m 1
 140 339 303 339 303 339 c 2
 365 339 406 378 406 438 c 0
 406 499 370 536 303 536 c 2
 303 536 140 536 140 536 c 1
 140 536 140 339 140 339 c 1
EndSplineSet
Position2: "'cpsp' Capital Spacing lookup 0 subtable" dx=5 dy=0 dh=10 dv=0
EndChar

StartChar: Racute
Encoding: 340 340 89
Width: 523
GlyphClass: 2
Flags: MW
HStem: 0 21G<62 140 62 62 415 501 415 415> 268 71<140 302 140 303> 536 70<140 303 140 140> 664 117<189 345 189 345>
VStem: 62 78<0 268 339 536> 406 81<408 468.5>
LayerCount: 2
Back
Fore
SplineSet
251 664 m 1
 251 664 189 664 189 664 c 1
 189 664 265 781 265 781 c 1
 265 781 345 781 345 781 c 1
 345 781 346 778 346 778 c 1
 346 778 251 664 251 664 c 1
306 606 m 2
 425 606 487 538 487 438 c 0
 487 363 447 305 379 282 c 1
 379 282 501 0 501 0 c 1
 501 0 415 0 415 0 c 1
 415 0 302 268 302 268 c 1
 302 268 140 268 140 268 c 1
 140 268 140 0 140 0 c 1
 140 0 62 0 62 0 c 1
 62 0 62 606 62 606 c 1
 62 606 306 606 306 606 c 2
140 339 m 1
 140 339 303 339 303 339 c 2
 365 339 406 378 406 438 c 0
 406 499 370 536 303 536 c 2
 303 536 140 536 140 536 c 1
 140 536 140 339 140 339 c 1
EndSplineSet
Position2: "'cpsp' Capital Spacing lookup 0 subtable" dx=5 dy=0 dh=10 dv=0
EndChar

StartChar: Rcaron
Encoding: 344 344 90
Width: 523
GlyphClass: 2
Flags: MW
HStem: 0 21G<62 140 62 62 415 501 415 415> 268 71<140 302 140 303> 536 70<140 303 140 140> 661 120<151 226 151 295>
VStem: 62 78<0 268 339 536> 406 81<408 468.5>
LayerCount: 2
Back
Fore
SplineSet
226 661 m 1
 226 661 151 781 151 781 c 1
 151 781 222 781 222 781 c 1
 222 781 262 711 262 711 c 1
 262 711 301 781 301 781 c 1
 301 781 372 781 372 781 c 1
 372 781 295 661 295 661 c 1
 295 661 226 661 226 661 c 1
306 606 m 2
 425 606 487 538 487 438 c 0
 487 363 447 305 379 282 c 1
 379 282 501 0 501 0 c 1
 501 0 415 0 415 0 c 1
 415 0 302 268 302 268 c 1
 302 268 140 268 140 268 c 1
 140 268 140 0 140 0 c 1
 140 0 62 0 62 0 c 1
 62 0 62 606 62 606 c 1
 62 606 306 606 306 606 c 2
140 339 m 1
 140 339 303 339 303 339 c 2
 365 339 406 378 406 438 c 0
 406 499 370 536 303 536 c 2
 303 536 140 536 140 536 c 1
 140 536 140 339 140 339 c 1
EndSplineSet
Position2: "'cpsp' Capital Spacing lookup 0 subtable" dx=5 dy=0 dh=10 dv=0
EndChar

StartChar: Rcommaaccent
Encoding: 342 342 91
Width: 523
GlyphClass: 2
Flags: MW
HStem: -133 80<224 255 224 300> 0 21G<62 140 62 62 415 501 415 415> 268 71<140 302 140 303> 536 70<140 303 140 140>
VStem: 62 78<0 268 339 536> 224 76<-127 -53 -127 -53 -127 -53> 406 81<408 468.5>
LayerCount: 2
Back
Fore
SplineSet
306 606 m 2
 425 606 487 538 487 438 c 0
 487 363 447 305 379 282 c 1
 379 282 501 0 501 0 c 1
 501 0 415 0 415 0 c 1
 415 0 302 268 302 268 c 1
 302 268 140 268 140 268 c 1
 140 268 140 0 140 0 c 1
 140 0 62 0 62 0 c 1
 62 0 62 606 62 606 c 1
 62 606 306 606 306 606 c 2
140 339 m 1
 140 339 303 339 303 339 c 2
 365 339 406 378 406 438 c 0
 406 499 370 536 303 536 c 2
 303 536 140 536 140 536 c 1
 140 536 140 339 140 339 c 1
274 -196 m 1
 274 -196 234 -196 234 -196 c 1
 234 -196 255 -133 255 -133 c 1
 255 -133 224 -133 224 -133 c 1
 224 -133 224 -53 224 -53 c 1
 224 -53 300 -53 300 -53 c 1
 300 -53 300 -127 300 -127 c 1
 300 -127 274 -196 274 -196 c 1
EndSplineSet
Position2: "'cpsp' Capital Spacing lookup 0 subtable" dx=5 dy=0 dh=10 dv=0
EndChar

StartChar: S
Encoding: 83 83 92
Width: 484
GlyphClass: 2
Flags: MW
HStem: -11 72<202.5 277.5 202.5 299> 545 72<211 273.5>
VStem: 36 81<133.5 171 133.5 173.5> 49 82<428 490 428 510> 351 80<436 446 436 449 436 480> 364 82<129 197>
AnchorPoint: "Anchor-1" 242 0 basechar 0
AnchorPoint: "Anchor-0" 242 606 basechar 0
LayerCount: 2
Back
Fore
SplineSet
241 617 m 0xd8
 347 617 431 568 431 446 c 2
 431 446 431 436 431 436 c 1
 431 436 351 436 351 436 c 1
 351 436 351 449 351 449 c 2
 351 511 304 545 243 545 c 0
 179 545 131 519 131 461 c 0xd8
 131 395 195 374 266 351 c 0
 351 323 446 292 446 175 c 0
 446 39 358 -11 240 -11 c 0
 130 -11 36 38 36 171 c 0
 36 176 36 181 37 185 c 0
 37 187 37 188 37 189 c 2
 37 189 118 189 118 189 c 1
 118 189 117 171 117 171 c 1
 117 96 168 61 237 61 c 0
 318 61 364 96 364 162 c 0xe4
 364 232 299 253 228 276 c 0
 142 304 49 335 49 454 c 0
 49 566 135 617 241 617 c 0xd8
EndSplineSet
Position2: "'cpsp' Capital Spacing lookup 0 subtable" dx=5 dy=0 dh=10 dv=0
EndChar

StartChar: Sacute
Encoding: 346 346 93
Width: 484
GlyphClass: 2
Flags: MW
HStem: -11 72<202.5 277.5 202.5 299> 545 72<211 273.5> 664 117<189 345 189 345>
VStem: 36 81<133.5 171 133.5 173.5> 49 82<428 490 428 510> 351 80<436 446 436 449 436 480> 364 82<129 197>
LayerCount: 2
Back
Fore
SplineSet
250 664 m 1xf2
 250 664 189 664 189 664 c 1
 189 664 265 781 265 781 c 1
 265 781 345 781 345 781 c 1
 345 781 346 778 346 778 c 1
 346 778 250 664 250 664 c 1xf2
241 617 m 0xec
 347 617 431 568 431 446 c 2
 431 446 431 436 431 436 c 1
 431 436 351 436 351 436 c 1
 351 436 351 449 351 449 c 2
 351 511 304 545 243 545 c 0
 179 545 131 519 131 461 c 0xec
 131 395 195 374 266 351 c 0
 351 323 446 292 446 175 c 0
 446 39 358 -11 240 -11 c 0
 130 -11 36 38 36 171 c 0
 36 176 36 181 37 185 c 0
 37 187 37 188 37 189 c 2
 37 189 118 189 118 189 c 1
 118 189 117 171 117 171 c 1
 117 96 168 61 237 61 c 0
 318 61 364 96 364 162 c 0xf2
 364 232 299 253 228 276 c 0
 142 304 49 335 49 454 c 0
 49 566 135 617 241 617 c 0xec
EndSplineSet
Position2: "'cpsp' Capital Spacing lookup 0 subtable" dx=5 dy=0 dh=10 dv=0
EndChar

StartChar: Scaron
Encoding: 352 352 94
Width: 484
GlyphClass: 2
Flags: MW
HStem: -11 72<202.5 277.5 202.5 299> 545 72<211 273.5> 661 120<132 276 132 207>
VStem: 36 81<133.5 171 133.5 173.5> 49 82<428 490 428 510> 351 80<436 446 436 449 436 480> 364 82<129 197>
LayerCount: 2
Back
Fore
SplineSet
132 781 m 1xf2
 132 781 202 781 202 781 c 1
 202 781 241 711 241 711 c 1
 241 711 281 781 281 781 c 1
 281 781 352 781 352 781 c 1
 352 781 276 661 276 661 c 1
 276 661 207 661 207 661 c 1
 207 661 132 781 132 781 c 1xf2
241 617 m 0xec
 347 617 431 568 431 446 c 2
 431 446 431 436 431 436 c 1
 431 436 351 436 351 436 c 1
 351 436 351 449 351 449 c 2
 351 511 304 545 243 545 c 0
 179 545 131 519 131 461 c 0xec
 131 395 195 374 266 351 c 0
 351 323 446 292 446 175 c 0
 446 39 358 -11 240 -11 c 0
 130 -11 36 38 36 171 c 0
 36 176 36 181 37 185 c 0
 37 187 37 188 37 189 c 2
 37 189 118 189 118 189 c 1
 118 189 117 171 117 171 c 1
 117 96 168 61 237 61 c 0
 318 61 364 96 364 162 c 0xf2
 364 232 299 253 228 276 c 0
 142 304 49 335 49 454 c 0
 49 566 135 617 241 617 c 0xec
EndSplineSet
Position2: "'cpsp' Capital Spacing lookup 0 subtable" dx=5 dy=0 dh=10 dv=0
EndChar

StartChar: Scedilla
Encoding: 350 350 95
Width: 484
GlyphClass: 2
Flags: MW
HStem: -161 50<220.5 226 226 236 159 251> -154 21G<159 159> -68 36<199 254> -9 70<208 208> 545 72<211 273.5>
VStem: 36 81<133.5 171 133.5 173.5> 49 82<428 490 428 510> 203.5 51.5 258 67<-97.5 -82> 351 80<436 446 436 449 436 480> 364 82<129 197>
LayerCount: 2
Back
Fore
SplineSet
241 617 m 0x9ac0
 347 617 431 568 431 446 c 2
 431 446 431 436 431 436 c 1
 431 436 351 436 351 436 c 1
 351 436 351 449 351 449 c 2x9cc0
 351 511 304 545 243 545 c 0
 179 545 131 519 131 461 c 0
 131 395 195 374 266 351 c 0
 351 323 446 292 446 175 c 0
 446 45 366 -5 256 -10 c 1x9b20
 256 -10 254 -32 254 -32 c 1
 292 -34 325 -49 325 -89 c 0
 325 -149 269 -161 233 -161 c 0xbca0
 208 -161 180 -158 159 -154 c 1x5ca0
 159 -154 159 -111 159 -111 c 1
 159 -111 226 -111 226 -111 c 2
 246 -111 258 -106 258 -89 c 0
 258 -75 251 -68 228 -68 c 2xbca0
 228 -68 199 -68 199 -68 c 1xbd20
 199 -68 208 -9 208 -9 c 1
 111 0 36 51 36 171 c 0
 36 176 36 181 37 185 c 0
 37 187 37 188 37 189 c 2
 37 189 118 189 118 189 c 1
 118 189 117 171 117 171 c 1
 117 96 168 61 237 61 c 0
 318 61 364 96 364 162 c 0x9ca0
 364 232 299 253 228 276 c 0
 142 304 49 335 49 454 c 0
 49 566 135 617 241 617 c 0x9ac0
EndSplineSet
Substitution2: "'locl' Localized Forms in Latin lookup 5 subtable" Scommaaccent
Substitution2: "'locl' Localized Forms in Latin lookup 4 subtable" Scommaaccent
Substitution2: "'aalt' Access All Alternates lookup 0 subtable" Scommaaccent
Position2: "'cpsp' Capital Spacing lookup 0 subtable" dx=5 dy=0 dh=10 dv=0
EndChar

StartChar: Scircumflex
Encoding: 348 348 96
Width: 484
GlyphClass: 2
Flags: MW
HStem: -11 72<202.5 277.5 202.5 299> 545 72<211 273.5> 660 120<132 277 132 277 208 281 208 352>
VStem: 36 81<133.5 171 133.5 173.5> 49 82<428 490 428 510> 351 80<436 446 436 449 436 480> 364 82<129 197>
LayerCount: 2
Back
Fore
SplineSet
242 730 m 1xf2
 242 730 202 660 202 660 c 1
 202 660 132 660 132 660 c 1
 132 660 208 780 208 780 c 1
 208 780 277 780 277 780 c 1
 277 780 352 660 352 660 c 1
 352 660 281 660 281 660 c 1
 281 660 242 730 242 730 c 1xf2
241 617 m 0xec
 347 617 431 568 431 446 c 2
 431 446 431 436 431 436 c 1
 431 436 351 436 351 436 c 1
 351 436 351 449 351 449 c 2
 351 511 304 545 243 545 c 0
 179 545 131 519 131 461 c 0xec
 131 395 195 374 266 351 c 0
 351 323 446 292 446 175 c 0
 446 39 358 -11 240 -11 c 0
 130 -11 36 38 36 171 c 0
 36 176 36 181 37 185 c 0
 37 187 37 188 37 189 c 2
 37 189 118 189 118 189 c 1
 118 189 117 171 117 171 c 1
 117 96 168 61 237 61 c 0
 318 61 364 96 364 162 c 0xf2
 364 232 299 253 228 276 c 0
 142 304 49 335 49 454 c 0
 49 566 135 617 241 617 c 0xec
EndSplineSet
Position2: "'cpsp' Capital Spacing lookup 0 subtable" dx=5 dy=0 dh=10 dv=0
EndChar

StartChar: Scommaaccent
Encoding: 536 536 97
Width: 484
GlyphClass: 2
Flags: MW
HStem: -133 80<204 234 204 279> -11 72<202.5 277.5 202.5 299> 545 72<211 273.5>
VStem: 36 81<133.5 171 133.5 173.5> 49 82<428 490 428 510> 204 75<-127 -53 -127 -53 -127 -53> 351 80<436 446 436 449 436 480> 364 82<129 197>
AnchorPoint: "Anchor-1" 242 0 basechar 0
AnchorPoint: "Anchor-0" 242 606 basechar 0
LayerCount: 2
Back
Fore
SplineSet
241 617 m 0xee
 347 617 431 568 431 446 c 2
 431 446 431 436 431 436 c 1
 431 436 351 436 351 436 c 1
 351 436 351 449 351 449 c 2
 351 511 304 545 243 545 c 0
 179 545 131 519 131 461 c 0xee
 131 395 195 374 266 351 c 0
 351 323 446 292 446 175 c 0
 446 39 358 -11 240 -11 c 0
 130 -11 36 38 36 171 c 0
 36 176 36 181 37 185 c 0
 37 187 37 188 37 189 c 2
 37 189 118 189 118 189 c 1
 118 189 117 171 117 171 c 1
 117 96 168 61 237 61 c 0
 318 61 364 96 364 162 c 0xf5
 364 232 299 253 228 276 c 0
 142 304 49 335 49 454 c 0
 49 566 135 617 241 617 c 0xee
213 -196 m 1xf5
 213 -196 234 -133 234 -133 c 1
 234 -133 204 -133 204 -133 c 1
 204 -133 204 -53 204 -53 c 1
 204 -53 279 -53 279 -53 c 1
 279 -53 279 -127 279 -127 c 1
 279 -127 253 -196 253 -196 c 1
 253 -196 213 -196 213 -196 c 1xf5
EndSplineSet
Position2: "'cpsp' Capital Spacing lookup 0 subtable" dx=5 dy=0 dh=10 dv=0
EndChar

StartChar: T
Encoding: 84 84 98
Width: 443
GlyphClass: 2
Flags: MW
HStem: 0 21G<182 260 182 182> 536 70<17 182 17 425 260 425 260 260>
VStem: 182 78<0 536 0 536>
AnchorPoint: "Anchor-1" 222 0 basechar 0
AnchorPoint: "Anchor-0" 222 606 basechar 0
LayerCount: 2
Back
Fore
SplineSet
260 536 m 1
 260 536 260 0 260 0 c 1
 260 0 182 0 182 0 c 1
 182 0 182 536 182 536 c 1
 182 536 17 536 17 536 c 1
 17 536 17 606 17 606 c 1
 17 606 425 606 425 606 c 1
 425 606 425 536 425 536 c 1
 425 536 260 536 260 536 c 1
EndSplineSet
Position2: "'cpsp' Capital Spacing lookup 0 subtable" dx=5 dy=0 dh=10 dv=0
EndChar

StartChar: Tbar
Encoding: 358 358 99
Width: 443
GlyphClass: 2
Flags: MW
HStem: 0 21G<182 260 182 182> 283 64<68 182 68 182 260 376> 536 70<17 182 17 425 260 425 260 260>
VStem: 182 78<0 283 0 283 347 536>
LayerCount: 2
Back
Fore
SplineSet
260 536 m 1
 260 536 260 347 260 347 c 1
 260 347 376 347 376 347 c 1
 376 347 376 283 376 283 c 1
 376 283 260 283 260 283 c 1
 260 283 260 0 260 0 c 1
 260 0 182 0 182 0 c 1
 182 0 182 283 182 283 c 1
 182 283 68 283 68 283 c 1
 68 283 68 347 68 347 c 1
 68 347 182 347 182 347 c 1
 182 347 182 536 182 536 c 1
 182 536 17 536 17 536 c 1
 17 536 17 606 17 606 c 1
 17 606 425 606 425 606 c 1
 425 606 425 536 425 536 c 1
 425 536 260 536 260 536 c 1
EndSplineSet
Position2: "'cpsp' Capital Spacing lookup 0 subtable" dx=5 dy=0 dh=10 dv=0
EndChar

StartChar: Tcaron
Encoding: 356 356 100
Width: 443
GlyphClass: 2
Flags: MW
HStem: 0 21G<182 260 182 182> 536 70<17 182 17 425 260 425 260 260> 661 120<111 187 111 255>
VStem: 182 78<0 536 0 536>
LayerCount: 2
Back
Fore
SplineSet
187 661 m 1
 187 661 111 781 111 781 c 1
 111 781 182 781 182 781 c 1
 182 781 221 711 221 711 c 1
 221 711 261 781 261 781 c 1
 261 781 331 781 331 781 c 1
 331 781 255 661 255 661 c 1
 255 661 187 661 187 661 c 1
260 536 m 1
 260 536 260 0 260 0 c 1
 260 0 182 0 182 0 c 1
 182 0 182 536 182 536 c 1
 182 536 17 536 17 536 c 1
 17 536 17 606 17 606 c 1
 17 606 425 606 425 606 c 1
 425 606 425 536 425 536 c 1
 425 536 260 536 260 536 c 1
EndSplineSet
Position2: "'cpsp' Capital Spacing lookup 0 subtable" dx=5 dy=0 dh=10 dv=0
EndChar

StartChar: Tcedilla
Encoding: 354 354 101
Width: 443
GlyphClass: 2
Flags: MW
HStem: -161 50<200.5 206 206 215.5 139 231> -154 21G<139 139> -68 36<179 233> 0 21G<182 189 182 182 238 260 238 238> 536 70<17 182 17 425 260 260 260 425>
VStem: 182 78<0 536 0 536> 238 67<-97.5 -82>
AnchorPoint: "Anchor-1" 222 0 basechar 0
AnchorPoint: "Anchor-0" 222 606 basechar 0
LayerCount: 2
Back
Fore
SplineSet
238 0 m 1xbc
 238 0 233 -32 233 -32 c 1
 271 -34 305 -49 305 -89 c 0
 305 -149 249 -161 213 -161 c 0xba
 188 -161 160 -158 139 -154 c 1x7c
 139 -154 139 -111 139 -111 c 1
 139 -111 206 -111 206 -111 c 2
 225 -111 238 -106 238 -89 c 0
 238 -75 231 -68 208 -68 c 2xba
 208 -68 179 -68 179 -68 c 1
 179 -68 189 0 189 0 c 1
 189 0 182 0 182 0 c 1
 182 0 182 536 182 536 c 1
 182 536 17 536 17 536 c 1
 17 536 17 606 17 606 c 1
 17 606 425 606 425 606 c 1
 425 606 425 536 425 536 c 1
 425 536 260 536 260 536 c 1
 260 536 260 0 260 0 c 1
 260 0 238 0 238 0 c 1xbc
EndSplineSet
Substitution2: "'locl' Localized Forms in Latin lookup 5 subtable" uni021A
Substitution2: "'locl' Localized Forms in Latin lookup 4 subtable" uni021A
Substitution2: "'aalt' Access All Alternates lookup 0 subtable" uni021A
Position2: "'cpsp' Capital Spacing lookup 0 subtable" dx=5 dy=0 dh=10 dv=0
EndChar

StartChar: uni021A
Encoding: 538 538 102
Width: 443
GlyphClass: 2
Flags: MW
HStem: -133 80<184 214 184 259> 0 21G<182 260 182 182> 536 70<17 182 17 425 260 425 260 260>
VStem: 182 78<0 536 0 536>
LayerCount: 2
Back
Fore
SplineSet
260 536 m 1
 260 536 260 0 260 0 c 1
 260 0 182 0 182 0 c 1
 182 0 182 536 182 536 c 1
 182 536 17 536 17 536 c 1
 17 536 17 606 17 606 c 1
 17 606 425 606 425 606 c 1
 425 606 425 536 425 536 c 1
 425 536 260 536 260 536 c 1
233 -196 m 1
 233 -196 194 -196 194 -196 c 1
 194 -196 214 -133 214 -133 c 1
 214 -133 184 -133 184 -133 c 1
 184 -133 184 -53 184 -53 c 1
 184 -53 259 -53 259 -53 c 1
 259 -53 259 -127 259 -127 c 1
 259 -127 233 -196 233 -196 c 1
EndSplineSet
Position2: "'cpsp' Capital Spacing lookup 0 subtable" dx=5 dy=0 dh=10 dv=0
EndChar

StartChar: U
Encoding: 85 85 103
Width: 523
GlyphClass: 2
Flags: MW
HStem: -11 72<224 300 224 324> 586 20G<62 140 140 140 384 461 461 461>
VStem: 62 78<197 606> 384 77<193 197 197 606>
AnchorPoint: "Anchor-1" 0 0 basechar 0
AnchorPoint: "Anchor-0" 262 606 basechar 0
LayerCount: 2
Back
Fore
SplineSet
461 197 m 2
 461 61 386 -11 262 -11 c 0
 137 -11 62 61 62 197 c 2
 62 197 62 606 62 606 c 1
 62 606 140 606 140 606 c 1
 140 606 140 193 140 193 c 2
 140 107 186 61 262 61 c 0
 338 61 384 107 384 193 c 2
 384 193 384 606 384 606 c 1
 384 606 461 606 461 606 c 1
 461 606 461 197 461 197 c 2
EndSplineSet
Position2: "'cpsp' Capital Spacing lookup 0 subtable" dx=5 dy=0 dh=10 dv=0
EndChar

StartChar: Uacute
Encoding: 218 218 104
Width: 523
GlyphClass: 2
Flags: MW
HStem: -11 72<224 300 224 324> 586 20G<62 140 140 140 384 461 461 461> 664 117<209 364 209 364>
VStem: 62 78<197 606> 384 77<193 197 197 606>
LayerCount: 2
Back
Fore
SplineSet
271 664 m 1
 271 664 209 664 209 664 c 1
 209 664 285 781 285 781 c 1
 285 781 364 781 364 781 c 1
 364 781 365 778 365 778 c 1
 365 778 271 664 271 664 c 1
461 197 m 2
 461 61 386 -11 262 -11 c 0
 137 -11 62 61 62 197 c 2
 62 197 62 606 62 606 c 1
 62 606 140 606 140 606 c 1
 140 606 140 193 140 193 c 2
 140 107 186 61 262 61 c 0
 338 61 384 107 384 193 c 2
 384 193 384 606 384 606 c 1
 384 606 461 606 461 606 c 1
 461 606 461 197 461 197 c 2
EndSplineSet
Position2: "'cpsp' Capital Spacing lookup 0 subtable" dx=5 dy=0 dh=10 dv=0
EndChar

StartChar: Ubreve
Encoding: 364 364 105
Width: 523
GlyphClass: 2
Flags: MW
HStem: -11 72<224 300 224 324> 586 20G<62 140 140 140 384 461 461 461> 695 56<247 277 247 296>
VStem: 62 78<197 606> 384 77<193 197 197 606>
LayerCount: 2
Back
Fore
SplineSet
371 781 m 1
 371 741 330 695 262 695 c 0
 194 695 152 741 152 781 c 1
 152 781 210 781 210 781 c 1
 212 768 232 751 262 751 c 0
 292 751 313 768 315 781 c 1
 315 781 371 781 371 781 c 1
461 197 m 2
 461 61 386 -11 262 -11 c 0
 137 -11 62 61 62 197 c 2
 62 197 62 606 62 606 c 1
 62 606 140 606 140 606 c 1
 140 606 140 193 140 193 c 2
 140 107 186 61 262 61 c 0
 338 61 384 107 384 193 c 2
 384 193 384 606 384 606 c 1
 384 606 461 606 461 606 c 1
 461 606 461 197 461 197 c 2
EndSplineSet
Position2: "'cpsp' Capital Spacing lookup 0 subtable" dx=5 dy=0 dh=10 dv=0
EndChar

StartChar: Ucircumflex
Encoding: 219 219 106
Width: 523
GlyphClass: 2
Flags: MW
HStem: -11 72<224 300 224 324> 586 20G<62 140 140 140 384 461 461 461> 660 120<151 296 151 296 227 372 227 301>
VStem: 62 78<197 606> 384 77<193 197 197 606>
LayerCount: 2
Back
Fore
SplineSet
301 660 m 1
 301 660 263 730 263 730 c 1
 263 730 222 660 222 660 c 1
 222 660 151 660 151 660 c 1
 151 660 227 780 227 780 c 1
 227 780 296 780 296 780 c 1
 296 780 372 660 372 660 c 1
 372 660 301 660 301 660 c 1
461 197 m 2
 461 61 386 -11 262 -11 c 0
 137 -11 62 61 62 197 c 2
 62 197 62 606 62 606 c 1
 62 606 140 606 140 606 c 1
 140 606 140 193 140 193 c 2
 140 107 186 61 262 61 c 0
 338 61 384 107 384 193 c 2
 384 193 384 606 384 606 c 1
 384 606 461 606 461 606 c 1
 461 606 461 197 461 197 c 2
EndSplineSet
Position2: "'cpsp' Capital Spacing lookup 0 subtable" dx=5 dy=0 dh=10 dv=0
EndChar

StartChar: Udieresis
Encoding: 220 220 107
Width: 523
GlyphClass: 2
Flags: MW
HStem: -11 72<224 300 224 324> 586 20G<62 140 140 140 384 461 461 461> 697 84<156 233 156 233 289 367 156 289>
VStem: 62 78<197 606> 156 77<697 781 697 781> 289 78<697 781 697 781> 384 77<193 197 197 606>
LayerCount: 2
Back
Fore
SplineSet
156 697 m 1
 156 697 156 781 156 781 c 1
 156 781 233 781 233 781 c 1
 233 781 233 697 233 697 c 1
 233 697 156 697 156 697 c 1
289 697 m 1
 289 697 289 781 289 781 c 1
 289 781 367 781 367 781 c 1
 367 781 367 697 367 697 c 1
 367 697 289 697 289 697 c 1
461 197 m 2xf6
 461 61 386 -11 262 -11 c 0
 137 -11 62 61 62 197 c 2
 62 197 62 606 62 606 c 1
 62 606 140 606 140 606 c 1
 140 606 140 193 140 193 c 2
 140 107 186 61 262 61 c 0
 338 61 384 107 384 193 c 2
 384 193 384 606 384 606 c 1
 384 606 461 606 461 606 c 1
 461 606 461 197 461 197 c 2xf6
EndSplineSet
Position2: "'cpsp' Capital Spacing lookup 0 subtable" dx=5 dy=0 dh=10 dv=0
EndChar

StartChar: Ugrave
Encoding: 217 217 108
Width: 523
GlyphClass: 2
Flags: MW
HStem: -11 72<224 300 224 324> 586 20G<62 140 140 140 384 461 461 461> 664 117<158 254 158 314>
VStem: 62 78<197 606> 384 77<193 197 197 606>
LayerCount: 2
Back
Fore
SplineSet
254 664 m 1
 254 664 157 778 157 778 c 1
 157 778 158 781 158 781 c 1
 158 781 239 781 239 781 c 1
 239 781 314 664 314 664 c 1
 314 664 254 664 254 664 c 1
461 197 m 2
 461 61 386 -11 262 -11 c 0
 137 -11 62 61 62 197 c 2
 62 197 62 606 62 606 c 1
 62 606 140 606 140 606 c 1
 140 606 140 193 140 193 c 2
 140 107 186 61 262 61 c 0
 338 61 384 107 384 193 c 2
 384 193 384 606 384 606 c 1
 384 606 461 606 461 606 c 1
 461 606 461 197 461 197 c 2
EndSplineSet
Position2: "'cpsp' Capital Spacing lookup 0 subtable" dx=5 dy=0 dh=10 dv=0
EndChar

StartChar: Uhungarumlaut
Encoding: 368 368 109
Width: 523
GlyphClass: 2
Flags: MW
HStem: -11 72<224 300 224 324> 586 20G<62 140 140 140 384 461 461 461> 664 117<232 238 177 311 293 293 293 311 347 353>
VStem: 62 78<197 606> 384 77<193 197 197 606>
LayerCount: 2
Back
Fore
SplineSet
238 664 m 1
 238 664 177 664 177 664 c 1
 177 664 232 781 232 781 c 1
 232 781 311 781 311 781 c 1
 311 781 312 778 312 778 c 1
 312 778 238 664 238 664 c 1
353 664 m 1
 353 664 293 664 293 664 c 1
 293 664 347 781 347 781 c 1
 347 781 426 781 426 781 c 1
 426 781 427 778 427 778 c 1
 427 778 353 664 353 664 c 1
461 197 m 2
 461 61 386 -11 262 -11 c 0
 137 -11 62 61 62 197 c 2
 62 197 62 606 62 606 c 1
 62 606 140 606 140 606 c 1
 140 606 140 193 140 193 c 2
 140 107 186 61 262 61 c 0
 338 61 384 107 384 193 c 2
 384 193 384 606 384 606 c 1
 384 606 461 606 461 606 c 1
 461 606 461 197 461 197 c 2
EndSplineSet
Position2: "'cpsp' Capital Spacing lookup 0 subtable" dx=5 dy=0 dh=10 dv=0
EndChar

StartChar: Umacron
Encoding: 362 362 110
Width: 523
GlyphClass: 2
Flags: MW
HStem: -11 72<224 300 224 324> 586 20G<62 140 140 140 384 461 461 461> 671 64<151 372 151 372>
VStem: 62 78<197 606> 151 221<671 735 671 735> 384 77<193 197 197 606>
LayerCount: 2
Back
Fore
SplineSet
151 671 m 1
 151 671 151 735 151 735 c 1
 151 735 372 735 372 735 c 1
 372 735 372 671 372 671 c 1
 372 671 151 671 151 671 c 1
461 197 m 2xf4
 461 61 386 -11 262 -11 c 0
 137 -11 62 61 62 197 c 2
 62 197 62 606 62 606 c 1
 62 606 140 606 140 606 c 1
 140 606 140 193 140 193 c 2
 140 107 186 61 262 61 c 0
 338 61 384 107 384 193 c 2
 384 193 384 606 384 606 c 1
 384 606 461 606 461 606 c 1
 461 606 461 197 461 197 c 2xf4
EndSplineSet
Position2: "'cpsp' Capital Spacing lookup 0 subtable" dx=5 dy=0 dh=10 dv=0
EndChar

StartChar: Uogonek
Encoding: 370 370 111
Width: 523
GlyphClass: 2
Flags: MW
HStem: -161 58<322 395> -11 72<224 266> 586 20G<62 140 140 140 384 461 461 461>
VStem: 62 78<197 606> 258 69<-67.5 -66> 384 77<193 197 197 606>
LayerCount: 2
Back
Fore
SplineSet
461 606 m 1
 461 606 461 197 461 197 c 2
 461 97 421 33 351 4 c 1
 340 -8 327 -31 327 -55 c 0
 327 -80 338 -103 368 -103 c 2
 368 -103 395 -103 395 -103 c 1
 395 -103 395 -149 395 -149 c 1
 377 -156 359 -161 341 -161 c 0
 303 -161 258 -142 258 -81 c 0
 258 -51 268 -29 282 -10 c 1
 276 -11 270 -11 262 -11 c 0
 137 -11 62 61 62 197 c 2
 62 197 62 606 62 606 c 1
 62 606 140 606 140 606 c 1
 140 606 140 193 140 193 c 2
 140 107 186 61 262 61 c 0
 338 61 384 107 384 193 c 2
 384 193 384 606 384 606 c 1
 384 606 461 606 461 606 c 1
EndSplineSet
Position2: "'cpsp' Capital Spacing lookup 0 subtable" dx=5 dy=0 dh=10 dv=0
EndChar

StartChar: Uring
Encoding: 366 366 112
Width: 523
GlyphClass: 2
Flags: MW
HStem: -11 72<224 300 224 324> 586 20G<62 140 140 140 384 461 461 461> 639 40<249.5 274 249.5 285.5> 769 40<249.5 274>
VStem: 62 78<197 606> 177 40<711.5 736.5 711.5 747.5> 307 40<711.5 736.5> 384 77<193 197 197 606>
LayerCount: 2
Back
Fore
SplineSet
262 809 m 0
 309 809 347 770 347 724 c 0
 347 677 309 639 262 639 c 0
 216 639 177 676 177 724 c 0
 177 771 215 809 262 809 c 0
262 769 m 0
 237 769 217 749 217 724 c 0
 217 699 237 679 262 679 c 0
 286 679 307 699 307 724 c 0
 307 749 286 769 262 769 c 0
461 197 m 2
 461 61 386 -11 262 -11 c 0
 137 -11 62 61 62 197 c 2
 62 197 62 606 62 606 c 1
 62 606 140 606 140 606 c 1
 140 606 140 193 140 193 c 2
 140 107 186 61 262 61 c 0
 338 61 384 107 384 193 c 2
 384 193 384 606 384 606 c 1
 384 606 461 606 461 606 c 1
 461 606 461 197 461 197 c 2
EndSplineSet
Position2: "'cpsp' Capital Spacing lookup 0 subtable" dx=5 dy=0 dh=10 dv=0
EndChar

StartChar: Utilde
Encoding: 360 360 113
Width: 523
GlyphClass: 2
Flags: MW
HStem: -11 72<224 300 224 324> 586 20G<62 140 140 140 384 461 461 461> 689 65<306 317 300.5 342.5> 716 65<206 218 181.5 222>
VStem: 62 78<197 606> 384 77<193 197 197 606>
LayerCount: 2
Back
Fore
SplineSet
391 781 m 1xdc
 391 740 369 689 316 689 c 0xec
 296 689 278 696 261 703 c 0
 246 710 230 716 214 716 c 0xdc
 198 716 187 709 184 689 c 1
 184 689 133 689 133 689 c 1xec
 133 729 155 781 208 781 c 0xdc
 228 781 245 774 261 767 c 0
 277 760 292 754 309 754 c 0xec
 325 754 337 760 339 781 c 1
 339 781 391 781 391 781 c 1xdc
461 197 m 2
 461 61 386 -11 262 -11 c 0
 137 -11 62 61 62 197 c 2
 62 197 62 606 62 606 c 1
 62 606 140 606 140 606 c 1
 140 606 140 193 140 193 c 2
 140 107 186 61 262 61 c 0
 338 61 384 107 384 193 c 2
 384 193 384 606 384 606 c 1
 384 606 461 606 461 606 c 1
 461 606 461 197 461 197 c 2
EndSplineSet
Position2: "'cpsp' Capital Spacing lookup 0 subtable" dx=5 dy=0 dh=10 dv=0
EndChar

StartChar: V
Encoding: 86 86 114
Width: 484
GlyphClass: 2
Flags: MW
HStem: 0 86<243 247 243 292 192 247> 586 20G<7 93 93 93 401 476 476 476>
VStem: 7 469<606 606>
LayerCount: 2
Back
Fore
SplineSet
7 606 m 1
 7 606 93 606 93 606 c 1
 93 606 243 86 243 86 c 1
 243 86 247 86 247 86 c 1
 247 86 401 606 401 606 c 1
 401 606 476 606 476 606 c 1
 476 606 292 0 292 0 c 1
 292 0 192 0 192 0 c 1
 192 0 7 606 7 606 c 1
EndSplineSet
Position2: "'cpsp' Capital Spacing lookup 0 subtable" dx=5 dy=0 dh=10 dv=0
EndChar

StartChar: W
Encoding: 87 87 115
Width: 684
GlyphClass: 2
Flags: MW
HStem: 0 80<202 206 202 250 149 206 490 493> 533 73<339 343 339 339>
VStem: 9 666<606 606>
AnchorPoint: "Anchor-1" 0 0 basechar 0
AnchorPoint: "Anchor-0" 342 606 basechar 0
LayerCount: 2
Back
Fore
SplineSet
360 411 m 2
 353 452 343 533 343 533 c 1
 343 533 339 533 339 533 c 1
 339 533 330 452 323 411 c 2
 323 411 250 0 250 0 c 1
 250 0 149 0 149 0 c 1
 149 0 9 606 9 606 c 1
 9 606 91 606 91 606 c 1
 91 606 184 187 184 187 c 2
 192 152 202 80 202 80 c 1
 202 80 206 80 206 80 c 1
 206 80 212 134 221 187 c 2
 221 187 291 606 291 606 c 1
 291 606 399 606 399 606 c 1
 399 606 474 187 474 187 c 2
 482 143 490 80 490 80 c 1
 490 80 493 80 493 80 c 1
 493 80 503 148 512 187 c 2
 512 187 605 606 605 606 c 1
 605 606 675 606 675 606 c 1
 675 606 535 0 535 0 c 1
 535 0 434 0 434 0 c 1
 434 0 360 411 360 411 c 2
EndSplineSet
Position2: "'cpsp' Capital Spacing lookup 0 subtable" dx=5 dy=0 dh=10 dv=0
EndChar

StartChar: Wacute
Encoding: 7810 7810 116
Width: 684
GlyphClass: 2
Flags: MW
HStem: 0 80<202 206 202 250 149 206 490 493> 533 73<339 343 339 339> 664 117<290 445 290 445>
VStem: 9 666<606 606>
LayerCount: 2
Back
Fore
SplineSet
351 664 m 1
 351 664 290 664 290 664 c 1
 290 664 366 781 366 781 c 1
 366 781 445 781 445 781 c 1
 445 781 446 778 446 778 c 1
 446 778 351 664 351 664 c 1
434 0 m 1
 434 0 360 411 360 411 c 2
 353 452 343 533 343 533 c 1
 343 533 339 533 339 533 c 1
 339 533 330 452 323 411 c 2
 323 411 250 0 250 0 c 1
 250 0 149 0 149 0 c 1
 149 0 9 606 9 606 c 1
 9 606 91 606 91 606 c 1
 91 606 184 187 184 187 c 2
 192 152 202 80 202 80 c 1
 202 80 206 80 206 80 c 1
 206 80 212 134 221 187 c 2
 221 187 291 606 291 606 c 1
 291 606 399 606 399 606 c 1
 399 606 474 187 474 187 c 2
 482 143 490 80 490 80 c 1
 490 80 493 80 493 80 c 1
 493 80 503 148 512 187 c 2
 512 187 605 606 605 606 c 1
 605 606 675 606 675 606 c 1
 675 606 535 0 535 0 c 1
 535 0 434 0 434 0 c 1
EndSplineSet
Position2: "'cpsp' Capital Spacing lookup 0 subtable" dx=5 dy=0 dh=10 dv=0
EndChar

StartChar: Wcircumflex
Encoding: 372 372 117
Width: 684
GlyphClass: 2
Flags: MW
HStem: 0 80<202 206 202 250 149 206 490 493> 533 73<339 343 339 339> 660 120<232 377 232 377 309 382 309 453>
VStem: 9 666<606 606>
LayerCount: 2
Back
Fore
SplineSet
343 730 m 1
 343 730 303 660 303 660 c 1
 303 660 232 660 232 660 c 1
 232 660 309 780 309 780 c 1
 309 780 377 780 377 780 c 1
 377 780 453 660 453 660 c 1
 453 660 382 660 382 660 c 1
 382 660 343 730 343 730 c 1
360 411 m 2
 353 452 343 533 343 533 c 1
 343 533 339 533 339 533 c 1
 339 533 330 452 323 411 c 2
 323 411 250 0 250 0 c 1
 250 0 149 0 149 0 c 1
 149 0 9 606 9 606 c 1
 9 606 91 606 91 606 c 1
 91 606 184 187 184 187 c 2
 192 152 202 80 202 80 c 1
 202 80 206 80 206 80 c 1
 206 80 212 134 221 187 c 2
 221 187 291 606 291 606 c 1
 291 606 399 606 399 606 c 1
 399 606 474 187 474 187 c 2
 482 143 490 80 490 80 c 1
 490 80 493 80 493 80 c 1
 493 80 503 148 512 187 c 2
 512 187 605 606 605 606 c 1
 605 606 675 606 675 606 c 1
 675 606 535 0 535 0 c 1
 535 0 434 0 434 0 c 1
 434 0 360 411 360 411 c 2
EndSplineSet
Position2: "'cpsp' Capital Spacing lookup 0 subtable" dx=5 dy=0 dh=10 dv=0
EndChar

StartChar: Wdieresis
Encoding: 7812 7812 118
Width: 684
GlyphClass: 2
Flags: MW
HStem: 0 80<202 206 202 250 149 206 490 493> 533 73<339 343 339 339> 697 84<238 314 238 314 370 447 238 370>
VStem: 238 76<697 781 697 781> 370 77<697 781 697 781>
LayerCount: 2
Back
Fore
SplineSet
238 697 m 1
 238 697 238 781 238 781 c 1
 238 781 314 781 314 781 c 1
 314 781 314 697 314 697 c 1
 314 697 238 697 238 697 c 1
370 697 m 1
 370 697 370 781 370 781 c 1
 370 781 447 781 447 781 c 1
 447 781 447 697 447 697 c 1
 447 697 370 697 370 697 c 1
434 0 m 1
 434 0 360 411 360 411 c 2
 353 452 343 533 343 533 c 1
 343 533 339 533 339 533 c 1
 339 533 330 452 323 411 c 2
 323 411 250 0 250 0 c 1
 250 0 149 0 149 0 c 1
 149 0 9 606 9 606 c 1
 9 606 91 606 91 606 c 1
 91 606 184 187 184 187 c 2
 192 152 202 80 202 80 c 1
 202 80 206 80 206 80 c 1
 206 80 212 134 221 187 c 2
 221 187 291 606 291 606 c 1
 291 606 399 606 399 606 c 1
 399 606 474 187 474 187 c 2
 482 143 490 80 490 80 c 1
 490 80 493 80 493 80 c 1
 493 80 503 148 512 187 c 2
 512 187 605 606 605 606 c 1
 605 606 675 606 675 606 c 1
 675 606 535 0 535 0 c 1
 535 0 434 0 434 0 c 1
EndSplineSet
Position2: "'cpsp' Capital Spacing lookup 0 subtable" dx=5 dy=0 dh=10 dv=0
EndChar

StartChar: Wgrave
Encoding: 7808 7808 119
Width: 684
GlyphClass: 2
Flags: MW
HStem: 0 80<202 206 202 250 149 206 490 493> 533 73<339 343 339 339> 664 117<240 334 240 395>
VStem: 9 666<606 606>
LayerCount: 2
Back
Fore
SplineSet
334 664 m 1
 334 664 239 778 239 778 c 1
 239 778 240 781 240 781 c 1
 240 781 319 781 319 781 c 1
 319 781 395 664 395 664 c 1
 395 664 334 664 334 664 c 1
434 0 m 1
 434 0 360 411 360 411 c 2
 353 452 343 533 343 533 c 1
 343 533 339 533 339 533 c 1
 339 533 330 452 323 411 c 2
 323 411 250 0 250 0 c 1
 250 0 149 0 149 0 c 1
 149 0 9 606 9 606 c 1
 9 606 91 606 91 606 c 1
 91 606 184 187 184 187 c 2
 192 152 202 80 202 80 c 1
 202 80 206 80 206 80 c 1
 206 80 212 134 221 187 c 2
 221 187 291 606 291 606 c 1
 291 606 399 606 399 606 c 1
 399 606 474 187 474 187 c 2
 482 143 490 80 490 80 c 1
 490 80 493 80 493 80 c 1
 493 80 503 148 512 187 c 2
 512 187 605 606 605 606 c 1
 605 606 675 606 675 606 c 1
 675 606 535 0 535 0 c 1
 535 0 434 0 434 0 c 1
EndSplineSet
Position2: "'cpsp' Capital Spacing lookup 0 subtable" dx=5 dy=0 dh=10 dv=0
EndChar

StartChar: X
Encoding: 88 88 120
Width: 484
GlyphClass: 2
Flags: MW
HStem: 0 21G<4 87 4 4 388 480 388 388> 586 20G<21 113 113 113 377 461 461 461>
VStem: 4 476<0 0>
LayerCount: 2
Back
Fore
SplineSet
388 0 m 1
 388 0 239 248 239 248 c 1
 239 248 87 0 87 0 c 1
 87 0 4 0 4 0 c 1
 4 0 197 315 197 315 c 1
 197 315 21 606 21 606 c 1
 21 606 113 606 113 606 c 1
 113 606 244 390 244 390 c 1
 244 390 377 606 377 606 c 1
 377 606 461 606 461 606 c 1
 461 606 285 322 285 322 c 1
 285 322 480 0 480 0 c 1
 480 0 388 0 388 0 c 1
EndSplineSet
Position2: "'cpsp' Capital Spacing lookup 0 subtable" dx=5 dy=0 dh=10 dv=0
EndChar

StartChar: Y
Encoding: 89 89 121
Width: 484
GlyphClass: 2
Flags: MW
HStem: 0 21G<203 203 203 281> 586 20G<7 93 93 93 401 476 476 476>
VStem: 203 78<0 251 0 251>
AnchorPoint: "Anchor-1" 0 0 basechar 0
AnchorPoint: "Anchor-0" 242 606 basechar 0
LayerCount: 2
Back
Fore
SplineSet
203 0 m 1
 203 0 203 251 203 251 c 1
 203 251 7 606 7 606 c 1
 7 606 93 606 93 606 c 1
 93 606 247 325 247 325 c 1
 247 325 250 325 250 325 c 1
 250 325 401 606 401 606 c 1
 401 606 476 606 476 606 c 1
 476 606 281 251 281 251 c 1
 281 251 281 0 281 0 c 1
 281 0 203 0 203 0 c 1
EndSplineSet
Position2: "'cpsp' Capital Spacing lookup 0 subtable" dx=5 dy=0 dh=10 dv=0
EndChar

StartChar: Yacute
Encoding: 221 221 122
Width: 484
GlyphClass: 2
Flags: MW
HStem: 0 21G<203 281 203 203> 586 20G<7 93 93 93 401 476 476 476> 664 117<189 345 189 345>
VStem: 203 78<0 251>
LayerCount: 2
Back
Fore
SplineSet
250 664 m 1
 250 664 189 664 189 664 c 1
 189 664 265 781 265 781 c 1
 265 781 345 781 345 781 c 1
 345 781 346 778 346 778 c 1
 346 778 250 664 250 664 c 1
281 0 m 1
 281 0 203 0 203 0 c 1
 203 0 203 251 203 251 c 1
 203 251 7 606 7 606 c 1
 7 606 93 606 93 606 c 1
 93 606 247 325 247 325 c 1
 247 325 250 325 250 325 c 1
 250 325 401 606 401 606 c 1
 401 606 476 606 476 606 c 1
 476 606 281 251 281 251 c 1
 281 251 281 0 281 0 c 1
EndSplineSet
Position2: "'cpsp' Capital Spacing lookup 0 subtable" dx=5 dy=0 dh=10 dv=0
EndChar

StartChar: Ycircumflex
Encoding: 374 374 123
Width: 484
GlyphClass: 2
Flags: MW
HStem: 0 21G<203 203 203 281> 586 20G<7 93 93 93 401 476 476 476> 660 120<132 277 132 277 208 281 208 352>
VStem: 203 78<0 251 0 251>
LayerCount: 2
Back
Fore
SplineSet
242 730 m 1
 242 730 202 660 202 660 c 1
 202 660 132 660 132 660 c 1
 132 660 208 780 208 780 c 1
 208 780 277 780 277 780 c 1
 277 780 352 660 352 660 c 1
 352 660 281 660 281 660 c 1
 281 660 242 730 242 730 c 1
203 0 m 1
 203 0 203 251 203 251 c 1
 203 251 7 606 7 606 c 1
 7 606 93 606 93 606 c 1
 93 606 247 325 247 325 c 1
 247 325 250 325 250 325 c 1
 250 325 401 606 401 606 c 1
 401 606 476 606 476 606 c 1
 476 606 281 251 281 251 c 1
 281 251 281 0 281 0 c 1
 281 0 203 0 203 0 c 1
EndSplineSet
Position2: "'cpsp' Capital Spacing lookup 0 subtable" dx=5 dy=0 dh=10 dv=0
EndChar

StartChar: Ydieresis
Encoding: 376 376 124
Width: 484
GlyphClass: 2
Flags: MW
HStem: 0 21G<203 281 203 203> 586 20G<7 93 93 93 401 476 476 476> 697 84<137 214 137 214 270 347 137 270>
VStem: 137 77<697 781 697 781> 203 78<0 251> 270 77<697 781 697 781>
LayerCount: 2
Back
Fore
SplineSet
137 697 m 1xf4
 137 697 137 781 137 781 c 1
 137 781 214 781 214 781 c 1
 214 781 214 697 214 697 c 1
 214 697 137 697 137 697 c 1xf4
270 697 m 1
 270 697 270 781 270 781 c 1
 270 781 347 781 347 781 c 1
 347 781 347 697 347 697 c 1
 347 697 270 697 270 697 c 1
281 0 m 1xe8
 281 0 203 0 203 0 c 1
 203 0 203 251 203 251 c 1
 203 251 7 606 7 606 c 1
 7 606 93 606 93 606 c 1
 93 606 247 325 247 325 c 1
 247 325 250 325 250 325 c 1
 250 325 401 606 401 606 c 1
 401 606 476 606 476 606 c 1
 476 606 281 251 281 251 c 1
 281 251 281 0 281 0 c 1xe8
EndSplineSet
Position2: "'cpsp' Capital Spacing lookup 0 subtable" dx=5 dy=0 dh=10 dv=0
EndChar

StartChar: Ygrave
Encoding: 7922 7922 125
Width: 484
GlyphClass: 2
Flags: MW
HStem: 0 21G<203 281 203 203> 586 20G<7 93 93 93 401 476 476 476> 664 117<139 233 139 294>
VStem: 203 78<0 251>
LayerCount: 2
Back
Fore
SplineSet
233 664 m 1
 233 664 138 778 138 778 c 1
 138 778 139 781 139 781 c 1
 139 781 218 781 218 781 c 1
 218 781 294 664 294 664 c 1
 294 664 233 664 233 664 c 1
281 0 m 1
 281 0 203 0 203 0 c 1
 203 0 203 251 203 251 c 1
 203 251 7 606 7 606 c 1
 7 606 93 606 93 606 c 1
 93 606 247 325 247 325 c 1
 247 325 250 325 250 325 c 1
 250 325 401 606 401 606 c 1
 401 606 476 606 476 606 c 1
 476 606 281 251 281 251 c 1
 281 251 281 0 281 0 c 1
EndSplineSet
Position2: "'cpsp' Capital Spacing lookup 0 subtable" dx=5 dy=0 dh=10 dv=0
EndChar

StartChar: Z
Encoding: 90 90 126
Width: 443
GlyphClass: 2
Flags: MW
HStem: 0 71<128 423 128 423> 536 70<36 306 36 417>
VStem: 18 405<0 34 34 34>
AnchorPoint: "Anchor-1" 0 0 basechar 0
AnchorPoint: "Anchor-0" 222 606 basechar 0
LayerCount: 2
Back
Fore
SplineSet
128 71 m 1
 128 71 423 71 423 71 c 1
 423 71 423 0 423 0 c 1
 423 0 18 0 18 0 c 1
 18 0 18 34 18 34 c 1
 18 34 306 536 306 536 c 1
 306 536 36 536 36 536 c 1
 36 536 36 606 36 606 c 1
 36 606 417 606 417 606 c 1
 417 606 417 573 417 573 c 1
 417 573 128 71 128 71 c 1
EndSplineSet
Position2: "'cpsp' Capital Spacing lookup 0 subtable" dx=5 dy=0 dh=10 dv=0
EndChar

StartChar: Zacute
Encoding: 377 377 127
Width: 443
GlyphClass: 2
Flags: MW
HStem: 0 71<128 423 128 423> 536 70<36 306 36 417> 664 117<169 324 169 324>
VStem: 18 405<0 34 34 34>
LayerCount: 2
Back
Fore
SplineSet
230 664 m 1
 230 664 169 664 169 664 c 1
 169 664 245 781 245 781 c 1
 245 781 324 781 324 781 c 1
 324 781 325 778 325 778 c 1
 325 778 230 664 230 664 c 1
128 71 m 1
 128 71 423 71 423 71 c 1
 423 71 423 0 423 0 c 1
 423 0 18 0 18 0 c 1
 18 0 18 34 18 34 c 1
 18 34 306 536 306 536 c 1
 306 536 36 536 36 536 c 1
 36 536 36 606 36 606 c 1
 36 606 417 606 417 606 c 1
 417 606 417 573 417 573 c 1
 417 573 128 71 128 71 c 1
EndSplineSet
Position2: "'cpsp' Capital Spacing lookup 0 subtable" dx=5 dy=0 dh=10 dv=0
EndChar

StartChar: Zcaron
Encoding: 381 381 128
Width: 443
GlyphClass: 2
Flags: MW
HStem: 0 71<128 423 128 423> 536 70<36 306 36 417> 661 120<111 187 111 255>
VStem: 18 405<0 34 34 34>
LayerCount: 2
Back
Fore
SplineSet
187 661 m 1
 187 661 111 781 111 781 c 1
 111 781 182 781 182 781 c 1
 182 781 221 711 221 711 c 1
 221 711 261 781 261 781 c 1
 261 781 331 781 331 781 c 1
 331 781 255 661 255 661 c 1
 255 661 187 661 187 661 c 1
128 71 m 1
 128 71 423 71 423 71 c 1
 423 71 423 0 423 0 c 1
 423 0 18 0 18 0 c 1
 18 0 18 34 18 34 c 1
 18 34 306 536 306 536 c 1
 306 536 36 536 36 536 c 1
 36 536 36 606 36 606 c 1
 36 606 417 606 417 606 c 1
 417 606 417 573 417 573 c 1
 417 573 128 71 128 71 c 1
EndSplineSet
Position2: "'cpsp' Capital Spacing lookup 0 subtable" dx=5 dy=0 dh=10 dv=0
EndChar

StartChar: Zdotaccent
Encoding: 379 379 129
Width: 443
GlyphClass: 2
Flags: MW
HStem: 0 71<128 423 128 423> 536 70<36 306 36 417> 697 84<183 260 183 260>
VStem: 183 77<697 781 697 781>
LayerCount: 2
Back
Fore
SplineSet
183 697 m 1
 183 697 183 781 183 781 c 1
 183 781 260 781 260 781 c 1
 260 781 260 697 260 697 c 1
 260 697 183 697 183 697 c 1
128 71 m 1
 128 71 423 71 423 71 c 1
 423 71 423 0 423 0 c 1
 423 0 18 0 18 0 c 1
 18 0 18 34 18 34 c 1
 18 34 306 536 306 536 c 1
 306 536 36 536 36 536 c 1
 36 536 36 606 36 606 c 1
 36 606 417 606 417 606 c 1
 417 606 417 573 417 573 c 1
 417 573 128 71 128 71 c 1
EndSplineSet
Position2: "'cpsp' Capital Spacing lookup 0 subtable" dx=5 dy=0 dh=10 dv=0
EndChar

StartChar: a
Encoding: 97 97 130
Width: 403
GlyphClass: 2
Flags: MW
HStem: -11 65<148.5 176.5> -7 61 211 65<218 265> 411 65<164.5 221.5>
VStem: 30 76<98.5 161 98.5 184> 48 72<327 389> 265 73<50 85 169 211 211 211 276 336 336 346>
AnchorPoint: "Anchor-1" 0 0 basechar 0
AnchorPoint: "Anchor-0" 202 465 basechar 0
LayerCount: 2
Back
Fore
SplineSet
197 476 m 0xba
 291 476 338 428 338 346 c 2
 338 346 338 85 338 85 c 2
 338 63 350 54 362 54 c 2
 362 54 391 54 391 54 c 1xba
 391 54 391 4 391 4 c 1
 383 -1 366 -7 343 -7 c 0x7a
 305 -7 278 16 270 50 c 1
 270 50 265 50 265 50 c 1
 241 12 201 -11 152 -11 c 0
 106 -11 30 8 30 120 c 0xba
 30 248 130 276 265 276 c 1
 265 276 265 336 265 336 c 2
 265 380 251 411 192 411 c 0
 137 411 120 373 120 338 c 2
 120 338 120 327 120 327 c 1
 120 327 49 327 49 327 c 1
 48 332 48 339 48 347 c 0xb6
 48 431 110 476 197 476 c 0xba
265 211 m 1
 171 211 106 197 106 125 c 0
 106 72 128 54 169 54 c 0
 215 54 265 92 265 169 c 2
 265 169 265 211 265 211 c 1
EndSplineSet
Substitution2: "Single Substitution lookup 33 subtable" ordfeminine
Substitution2: "'aalt' Access All Alternates lookup 0 subtable" ordfeminine
EndChar

StartChar: aacute
Encoding: 225 225 131
Width: 403
GlyphClass: 2
Flags: MW
HStem: -11 65<148.5 176.5> -7 61 211 65<218 265> 411 65<164.5 221.5> 522 117<145 301 145 301>
VStem: 30 76<98.5 161 98.5 184> 48 72<327 389> 265 73<50 85 169 211 211 211 276 336 336 346>
LayerCount: 2
Back
Fore
SplineSet
206 522 m 1xbd
 206 522 145 522 145 522 c 1
 145 522 221 639 221 639 c 1
 221 639 301 639 301 639 c 1
 301 639 301 636 301 636 c 1
 301 636 206 522 206 522 c 1xbd
197 476 m 0
 291 476 338 428 338 346 c 2
 338 346 338 85 338 85 c 2
 338 63 350 54 362 54 c 2
 362 54 391 54 391 54 c 1xbd
 391 54 391 4 391 4 c 1
 383 -1 366 -7 343 -7 c 0x7d
 305 -7 278 16 270 50 c 1
 270 50 265 50 265 50 c 1
 241 12 201 -11 152 -11 c 0
 106 -11 30 8 30 120 c 0xbd
 30 248 130 276 265 276 c 1
 265 276 265 336 265 336 c 2
 265 380 251 411 192 411 c 0
 137 411 120 373 120 338 c 2
 120 338 120 327 120 327 c 1
 120 327 49 327 49 327 c 1
 48 332 48 339 48 347 c 0xbb
 48 431 110 476 197 476 c 0
265 211 m 1
 171 211 106 197 106 125 c 0
 106 72 128 54 169 54 c 0
 215 54 265 92 265 169 c 2
 265 169 265 211 265 211 c 1
EndSplineSet
EndChar

StartChar: abreve
Encoding: 259 259 132
Width: 403
GlyphClass: 2
Flags: MW
HStem: -11 65<148.5 176.5> -7 61 211 65<218 265> 411 65<164.5 221.5> 553 57<186.5 217 186.5 236> 553 86<92 236>
VStem: 30 76<98.5 161 98.5 184> 48 72<327 389> 265 73<50 85 169 211 211 211 276 336 336 346>
LayerCount: 2
Back
Fore
SplineSet
311 639 m 1xb680
 311 599 270 553 202 553 c 0xba80
 134 553 92 599 92 639 c 1
 92 639 149 639 149 639 c 1xb680
 152 627 171 610 202 610 c 0xba80
 232 610 253 627 255 639 c 1
 255 639 311 639 311 639 c 1xb680
197 476 m 0xb980
 291 476 338 428 338 346 c 2
 338 346 338 85 338 85 c 2
 338 63 350 54 362 54 c 2
 362 54 391 54 391 54 c 1xba80
 391 54 391 4 391 4 c 1
 383 -1 366 -7 343 -7 c 0x7a80
 305 -7 278 16 270 50 c 1
 270 50 265 50 265 50 c 1
 241 12 201 -11 152 -11 c 0
 106 -11 30 8 30 120 c 0xba80
 30 248 130 276 265 276 c 1
 265 276 265 336 265 336 c 2
 265 380 251 411 192 411 c 0
 137 411 120 373 120 338 c 2
 120 338 120 327 120 327 c 1
 120 327 49 327 49 327 c 1
 48 332 48 339 48 347 c 0
 48 431 110 476 197 476 c 0xb980
265 211 m 1xba80
 171 211 106 197 106 125 c 0
 106 72 128 54 169 54 c 0
 215 54 265 92 265 169 c 2
 265 169 265 211 265 211 c 1xba80
EndSplineSet
EndChar

StartChar: acircumflex
Encoding: 226 226 133
Width: 403
GlyphClass: 2
Flags: MW
HStem: -11 65<148.5 176.5> -7 61 211 65<218 265> 411 65<164.5 221.5> 519 119<92 237 92 237 167 241 167 312> 589 49<202 202>
VStem: 30 76<98.5 161 98.5 184> 48 72<327 389> 265 73<50 85 169 211 211 211 276 336 336 346>
LayerCount: 2
Back
Fore
SplineSet
202 589 m 1xb680
 202 589 163 519 163 519 c 1
 163 519 92 519 92 519 c 1
 92 519 167 638 167 638 c 1
 167 638 237 638 237 638 c 1
 237 638 312 519 312 519 c 1
 312 519 241 519 241 519 c 1xb980
 241 519 202 589 202 589 c 1xb680
197 476 m 0
 291 476 338 428 338 346 c 2
 338 346 338 85 338 85 c 2
 338 63 350 54 362 54 c 2
 362 54 391 54 391 54 c 1xba80
 391 54 391 4 391 4 c 1
 383 -1 366 -7 343 -7 c 0x7a80
 305 -7 278 16 270 50 c 1
 270 50 265 50 265 50 c 1
 241 12 201 -11 152 -11 c 0
 106 -11 30 8 30 120 c 0xba80
 30 248 130 276 265 276 c 1
 265 276 265 336 265 336 c 2
 265 380 251 411 192 411 c 0
 137 411 120 373 120 338 c 2
 120 338 120 327 120 327 c 1
 120 327 49 327 49 327 c 1
 48 332 48 339 48 347 c 0
 48 431 110 476 197 476 c 0
265 211 m 1xba80
 171 211 106 197 106 125 c 0
 106 72 128 54 169 54 c 0
 215 54 265 92 265 169 c 2
 265 169 265 211 265 211 c 1xba80
EndSplineSet
EndChar

StartChar: adieresis
Encoding: 228 228 134
Width: 403
GlyphClass: 2
Flags: MW
HStem: -11 65<148.5 176.5> -7 61 211 65<218 265> 411 65<164.5 221.5> 555 84<96 173 96 173 229 307 96 229>
VStem: 30 76<98.5 161 98.5 184> 48 72<327 389> 96 77<555 639 555 639> 229 78<555 639 555 639> 265 73<50 85 169 211 211 211 276 336 336 346>
LayerCount: 2
Back
Fore
SplineSet
96 555 m 1xb980
 96 555 96 639 96 639 c 1
 96 639 173 639 173 639 c 1
 173 639 173 555 173 555 c 1
 173 555 96 555 96 555 c 1xb980
229 555 m 1
 229 555 229 639 229 639 c 1
 229 639 307 639 307 639 c 1
 307 639 307 555 307 555 c 1
 307 555 229 555 229 555 c 1
197 476 m 0xba40
 291 476 338 428 338 346 c 2
 338 346 338 85 338 85 c 2
 338 63 350 54 362 54 c 2
 362 54 391 54 391 54 c 1xbc40
 391 54 391 4 391 4 c 1
 383 -1 366 -7 343 -7 c 0x7c40
 305 -7 278 16 270 50 c 1
 270 50 265 50 265 50 c 1
 241 12 201 -11 152 -11 c 0
 106 -11 30 8 30 120 c 0xbc40
 30 248 130 276 265 276 c 1
 265 276 265 336 265 336 c 2
 265 380 251 411 192 411 c 0
 137 411 120 373 120 338 c 2
 120 338 120 327 120 327 c 1
 120 327 49 327 49 327 c 1
 48 332 48 339 48 347 c 0
 48 431 110 476 197 476 c 0xba40
265 211 m 1xbc40
 171 211 106 197 106 125 c 0
 106 72 128 54 169 54 c 0
 215 54 265 92 265 169 c 2
 265 169 265 211 265 211 c 1xbc40
EndSplineSet
EndChar

StartChar: agrave
Encoding: 224 224 135
Width: 403
GlyphClass: 2
Flags: MW
HStem: -11 65<148.5 176.5> -7 61 211 65<218 265> 411 65<164.5 221.5> 522 117<95 189 95 250>
VStem: 30 76<98.5 161 98.5 184> 48 72<327 389> 265 73<50 85 169 211 211 211 276 336 336 346>
LayerCount: 2
Back
Fore
SplineSet
189 522 m 1xbd
 189 522 94 636 94 636 c 1
 94 636 95 639 95 639 c 1
 95 639 174 639 174 639 c 1
 174 639 250 522 250 522 c 1
 250 522 189 522 189 522 c 1xbd
197 476 m 0
 291 476 338 428 338 346 c 2
 338 346 338 85 338 85 c 2
 338 63 350 54 362 54 c 2
 362 54 391 54 391 54 c 1xbd
 391 54 391 4 391 4 c 1
 383 -1 366 -7 343 -7 c 0x7d
 305 -7 278 16 270 50 c 1
 270 50 265 50 265 50 c 1
 241 12 201 -11 152 -11 c 0
 106 -11 30 8 30 120 c 0xbd
 30 248 130 276 265 276 c 1
 265 276 265 336 265 336 c 2
 265 380 251 411 192 411 c 0
 137 411 120 373 120 338 c 2
 120 338 120 327 120 327 c 1
 120 327 49 327 49 327 c 1
 48 332 48 339 48 347 c 0xbb
 48 431 110 476 197 476 c 0
265 211 m 1
 171 211 106 197 106 125 c 0
 106 72 128 54 169 54 c 0
 215 54 265 92 265 169 c 2
 265 169 265 211 265 211 c 1
EndSplineSet
EndChar

StartChar: amacron
Encoding: 257 257 136
Width: 403
GlyphClass: 2
Flags: MW
HStem: -11 65<148.5 176.5> -7 61 211 65<218 265> 411 65<164.5 221.5> 530 63<91 313 91 313>
VStem: 30 76<98.5 161 98.5 184> 48 72<327 389> 91 222<530 593 530 593> 265 73<50 85 169 211 211 211 276 336 336 346>
LayerCount: 2
Back
Fore
SplineSet
91 593 m 1xb9
 91 593 313 593 313 593 c 1
 313 593 313 530 313 530 c 1
 313 530 91 530 91 530 c 1
 91 530 91 593 91 593 c 1xb9
197 476 m 0xba80
 291 476 338 428 338 346 c 2
 338 346 338 85 338 85 c 2
 338 63 350 54 362 54 c 2
 362 54 391 54 391 54 c 1xbc80
 391 54 391 4 391 4 c 1
 383 -1 366 -7 343 -7 c 0x7c80
 305 -7 278 16 270 50 c 1
 270 50 265 50 265 50 c 1
 241 12 201 -11 152 -11 c 0
 106 -11 30 8 30 120 c 0xbc80
 30 248 130 276 265 276 c 1
 265 276 265 336 265 336 c 2
 265 380 251 411 192 411 c 0
 137 411 120 373 120 338 c 2
 120 338 120 327 120 327 c 1
 120 327 49 327 49 327 c 1
 48 332 48 339 48 347 c 0
 48 431 110 476 197 476 c 0xba80
265 211 m 1xbc80
 171 211 106 197 106 125 c 0
 106 72 128 54 169 54 c 0
 215 54 265 92 265 169 c 2
 265 169 265 211 265 211 c 1xbc80
EndSplineSet
EndChar

StartChar: aogonek
Encoding: 261 261 137
Width: 403
GlyphClass: 2
Flags: MW
HStem: -161 58<363 436> -11 65<148.5 176.5> -5 21G 211 65<218 265> 411 65<164.5 221.5>
VStem: 30 76<98.5 161 98.5 184> 48 72<327 389> 265 73<50 85 169 211 211 211 276 336 336 346> 299 69<-67.5 -64>
LayerCount: 2
Back
Fore
SplineSet
436 -149 m 1xdc80
 417 -156 400 -161 382 -161 c 0
 344 -161 299 -142 299 -81 c 0
 299 -47 310 -25 325 -5 c 1xbc80
 297 1 277 21 270 50 c 1
 270 50 265 50 265 50 c 1
 241 12 201 -11 152 -11 c 0
 106 -11 30 8 30 120 c 0xdc80
 30 248 130 276 265 276 c 1
 265 276 265 336 265 336 c 2
 265 380 251 411 192 411 c 0
 137 411 120 373 120 338 c 2
 120 338 120 327 120 327 c 1
 120 327 49 327 49 327 c 1
 48 332 48 339 48 347 c 0
 48 431 110 476 197 476 c 0
 291 476 338 428 338 346 c 2
 338 346 338 85 338 85 c 2
 338 63 350 54 362 54 c 2
 362 54 391 54 391 54 c 1xdb
 391 54 391 4 391 4 c 1
 380 -10 368 -32 368 -55 c 0
 368 -80 378 -103 408 -103 c 2
 408 -103 436 -103 436 -103 c 1
 436 -103 436 -149 436 -149 c 1xdc80
265 211 m 1xdd
 171 211 106 197 106 125 c 0
 106 72 128 54 169 54 c 0
 215 54 265 92 265 169 c 2
 265 169 265 211 265 211 c 1xdd
EndSplineSet
EndChar

StartChar: aring
Encoding: 229 229 138
Width: 403
GlyphClass: 2
Flags: MW
HStem: -11 65<148.5 176.5> -7 61 211 65<218 265> 411 65<164.5 221.5> 497 40<189.5 213.5 189.5 225> 627 40<189.5 213.5>
VStem: 30 76<98.5 161 98.5 184> 48 72<327 389> 117 39<570.5 595 570.5 606> 247 39<570.5 595> 265 73<50 85 169 211 211 211 276 336 336 346>
LayerCount: 2
Back
Fore
SplineSet
202 667 m 0xbec0
 249 667 286 628 286 583 c 0
 286 535 248 497 202 497 c 0
 156 497 117 534 117 583 c 0
 117 629 155 667 202 667 c 0xbec0
202 627 m 0
 177 627 156 607 156 583 c 0
 156 558 177 537 202 537 c 0
 225 537 247 558 247 583 c 0
 247 607 225 627 202 627 c 0
197 476 m 0xb520
 291 476 338 428 338 346 c 2
 338 346 338 85 338 85 c 2
 338 63 350 54 362 54 c 2
 362 54 391 54 391 54 c 1xb620
 391 54 391 4 391 4 c 1
 383 -1 366 -7 343 -7 c 0x7620
 305 -7 278 16 270 50 c 1
 270 50 265 50 265 50 c 1
 241 12 201 -11 152 -11 c 0
 106 -11 30 8 30 120 c 0xb620
 30 248 130 276 265 276 c 1
 265 276 265 336 265 336 c 2
 265 380 251 411 192 411 c 0
 137 411 120 373 120 338 c 2
 120 338 120 327 120 327 c 1
 120 327 49 327 49 327 c 1
 48 332 48 339 48 347 c 0
 48 431 110 476 197 476 c 0xb520
265 211 m 1xb620
 171 211 106 197 106 125 c 0
 106 72 128 54 169 54 c 0
 215 54 265 92 265 169 c 2
 265 169 265 211 265 211 c 1xb620
EndSplineSet
EndChar

StartChar: aringacute
Encoding: 507 507 139
Width: 403
GlyphClass: 2
Flags: MW
HStem: -11 65<148.5 176.5> -7 61 211 65<218 265> 411 65<164.5 221.5> 499 38<190 213.5 190 225.5> 620 39<190 213.5> 679 102<173 319 173 319>
VStem: 30 76<98.5 161 98.5 184> 48 72<327 389> 117 39<567 591 567 601.5> 247 39<567 591> 265 73<50 85 169 211 211 211 276 336 336 346>
LayerCount: 2
Back
Fore
SplineSet
234 679 m 1xb710
 234 679 173 679 173 679 c 1
 173 679 240 781 240 781 c 1
 240 781 319 781 319 781 c 1
 319 781 320 778 320 778 c 1
 320 778 234 679 234 679 c 1xb710
202 659 m 0xbd60
 250 659 286 623 286 579 c 0
 286 534 249 499 202 499 c 0
 156 499 117 533 117 579 c 0
 117 624 155 659 202 659 c 0xbd60
202 620 m 0
 178 620 156 603 156 579 c 0
 156 555 178 537 202 537 c 0
 225 537 247 555 247 579 c 0
 247 603 225 620 202 620 c 0
197 476 m 0xb490
 291 476 338 428 338 346 c 2
 338 346 338 85 338 85 c 2
 338 63 350 54 362 54 c 2
 362 54 391 54 391 54 c 1xb510
 391 54 391 4 391 4 c 1
 383 -1 366 -7 343 -7 c 0x7510
 305 -7 278 16 270 50 c 1
 270 50 265 50 265 50 c 1
 241 12 201 -11 152 -11 c 0
 106 -11 30 8 30 120 c 0xb510
 30 248 130 276 265 276 c 1
 265 276 265 336 265 336 c 2
 265 380 251 411 192 411 c 0
 137 411 120 373 120 338 c 2
 120 338 120 327 120 327 c 1
 120 327 49 327 49 327 c 1
 48 332 48 339 48 347 c 0
 48 431 110 476 197 476 c 0xb490
265 211 m 1xb510
 171 211 106 197 106 125 c 0
 106 72 128 54 169 54 c 0
 215 54 265 92 265 169 c 2
 265 169 265 211 265 211 c 1xb510
EndSplineSet
EndChar

StartChar: atilde
Encoding: 227 227 140
Width: 403
GlyphClass: 2
Flags: MW
HStem: -11 65<148.5 176.5> -7 61 211 65<218 265> 411 65<164.5 221.5> 547 65<245 257 240.5 282> 547 92<121.5 124 72 158 279 282> 575 64<146 158 121.5 162.5>
VStem: 30 76<98.5 161 98.5 184> 48 72<327 389> 265 73<50 85 169 211 211 211 276 336 336 346>
LayerCount: 2
Back
Fore
SplineSet
331 639 m 1xb540
 331 598 309 547 255 547 c 0xb540
 235 547 218 554 202 562 c 0
 186 568 171 575 154 575 c 0xb340
 138 575 126 568 124 547 c 1
 124 547 72 547 72 547 c 1
 72 588 95 639 148 639 c 0xb540
 168 639 185 632 201 625 c 0
 217 618 232 612 249 612 c 0xb940
 265 612 277 619 279 639 c 1
 279 639 331 639 331 639 c 1xb540
197 476 m 0
 291 476 338 428 338 346 c 2
 338 346 338 85 338 85 c 2
 338 63 350 54 362 54 c 2
 362 54 391 54 391 54 c 1xb540
 391 54 391 4 391 4 c 1
 383 -1 366 -7 343 -7 c 0x7540
 305 -7 278 16 270 50 c 1
 270 50 265 50 265 50 c 1
 241 12 201 -11 152 -11 c 0
 106 -11 30 8 30 120 c 0xb540
 30 248 130 276 265 276 c 1
 265 276 265 336 265 336 c 2
 265 380 251 411 192 411 c 0
 137 411 120 373 120 338 c 2
 120 338 120 327 120 327 c 1
 120 327 49 327 49 327 c 1
 48 332 48 339 48 347 c 0xb4c0
 48 431 110 476 197 476 c 0
265 211 m 1
 171 211 106 197 106 125 c 0
 106 72 128 54 169 54 c 0
 215 54 265 92 265 169 c 2
 265 169 265 211 265 211 c 1
EndSplineSet
EndChar

StartChar: ae
Encoding: 230 230 141
Width: 644
GlyphClass: 2
Flags: MW
HStem: -11 65<153.5 197 153.5 198 414 471> 211 65<223.5 271 347 522> 411 65<169.5 226.5 419 471>
VStem: 35 76<98.5 161 98.5 184> 53 73<327 389> 271 76<162 211 157 211 157 336> 522 76
AnchorPoint: "Anchor-1" 0 0 basechar 0
AnchorPoint: "Anchor-0" 323 465 basechar 0
LayerCount: 2
Back
Fore
SplineSet
446 476 m 0xf6
 547 476 598 413 598 257 c 2
 598 257 598 211 598 211 c 1
 598 211 347 211 347 211 c 1
 347 103 379 54 448 54 c 0
 494 54 527 94 527 158 c 1
 527 158 598 158 598 158 c 1
 598 54 537 -11 446 -11 c 0
 382 -11 334 11 305 60 c 1
 272 17 225 -11 171 -11 c 0
 113 -11 35 8 35 120 c 0xf6
 35 248 135 276 271 276 c 1
 271 276 271 336 271 336 c 2
 271 380 256 411 197 411 c 0
 142 411 126 373 126 338 c 2
 126 338 126 327 126 327 c 1
 126 327 54 327 54 327 c 1
 53 332 53 339 53 347 c 0xee
 53 431 115 476 202 476 c 0
 259 476 300 457 322 423 c 1
 351 459 392 476 446 476 c 0xf6
446 411 m 0
 381 411 354 365 347 276 c 1
 347 276 522 276 522 276 c 1
 522 364 496 411 446 411 c 0
271 211 m 1
 176 211 111 197 111 125 c 0
 111 72 133 54 174 54 c 0
 220 54 271 89 271 162 c 2
 271 162 271 211 271 211 c 1
EndSplineSet
EndChar

StartChar: aeacute
Encoding: 509 509 142
Width: 644
GlyphClass: 2
Flags: MW
HStem: -11 65<153.5 197 153.5 198 414 471> 211 65<223.5 271 347 522> 411 65<169.5 226.5 419 471> 522 117<270 425 270 425>
VStem: 35 76<98.5 161 98.5 184> 53 73<327 389> 271 76<162 211 157 211 157 336> 522 76
LayerCount: 2
Back
Fore
SplineSet
331 522 m 1xfb
 331 522 270 522 270 522 c 1
 270 522 346 639 346 639 c 1
 346 639 425 639 425 639 c 1
 425 639 426 636 426 636 c 1
 426 636 331 522 331 522 c 1xfb
446 476 m 0
 547 476 598 413 598 257 c 2
 598 257 598 211 598 211 c 1
 598 211 347 211 347 211 c 1
 347 103 379 54 448 54 c 0
 494 54 527 94 527 158 c 1
 527 158 598 158 598 158 c 1
 598 54 537 -11 446 -11 c 0
 382 -11 334 11 305 60 c 1
 272 17 225 -11 171 -11 c 0
 113 -11 35 8 35 120 c 0xfb
 35 248 135 276 271 276 c 1
 271 276 271 336 271 336 c 2
 271 380 256 411 197 411 c 0
 142 411 126 373 126 338 c 2
 126 338 126 327 126 327 c 1
 126 327 54 327 54 327 c 1
 53 332 53 339 53 347 c 0xf7
 53 431 115 476 202 476 c 0
 259 476 300 457 322 423 c 1
 351 459 392 476 446 476 c 0
446 411 m 0
 381 411 354 365 347 276 c 1
 347 276 522 276 522 276 c 1
 522 364 496 411 446 411 c 0
271 211 m 1
 176 211 111 197 111 125 c 0
 111 72 133 54 174 54 c 0
 220 54 271 89 271 162 c 2
 271 162 271 211 271 211 c 1
EndSplineSet
EndChar

StartChar: b
Encoding: 98 98 143
Width: 403
GlyphClass: 2
Flags: MW
HStem: -11 65<202.5 236.5> 0 54<53 122> 411 65<206.5 236.5> 619 20G<53 126 126 126>
VStem: 53 73<162.5 216 216 246 421 639> 292 76<216 249 249 307>
LayerCount: 2
Back
Fore
SplineSet
130 421 m 1xbc
 146 455 184 476 229 476 c 0
 306 476 368 402 368 233 c 0
 368 63 312 -11 224 -11 c 0
 181 -11 144 11 122 54 c 1
 122 54 118 54 118 54 c 1xbc
 118 54 108 0 108 0 c 1
 108 0 53 0 53 0 c 1x7c
 53 0 53 639 53 639 c 1
 53 639 126 639 126 639 c 1
 126 639 126 421 126 421 c 1
 126 421 130 421 130 421 c 1xbc
209 411 m 0
 153 411 126 355 126 246 c 2
 126 246 126 216 126 216 c 2
 126 109 153 54 209 54 c 0
 264 54 292 100 292 216 c 2
 292 216 292 249 292 249 c 2
 292 365 264 411 209 411 c 0
EndSplineSet
EndChar

StartChar: c
Encoding: 99 99 144
Width: 362
GlyphClass: 2
Flags: MW
HStem: -11 65<162 217 162 242> 411 65<162 217>
VStem: 32 76<162.5 216 216 249 162.5 316> 258 75<293 333>
AnchorPoint: "Anchor-1" 181 0 basechar 0
AnchorPoint: "Anchor-0" 181 465 basechar 0
LayerCount: 2
Back
Fore
SplineSet
191 476 m 0
 292 476 333 411 333 293 c 1
 333 293 258 293 258 293 c 1
 258 373 243 411 191 411 c 0
 133 411 108 356 108 249 c 2
 108 249 108 216 108 216 c 2
 108 109 133 54 191 54 c 0
 243 54 262 95 262 172 c 1
 262 172 333 172 333 172 c 1
 333 75 293 -11 191 -11 c 0
 81 -11 32 65 32 232 c 0
 32 400 82 476 191 476 c 0
EndSplineSet
EndChar

StartChar: cacute
Encoding: 263 263 145
Width: 362
GlyphClass: 2
Flags: MW
HStem: -11 65<162 217 162 242> 411 65<162 217> 522 117<137 293 137 293>
VStem: 32 76<162.5 216 216 249 162.5 316> 258 75<293 333>
LayerCount: 2
Back
Fore
SplineSet
199 522 m 1
 199 522 137 522 137 522 c 1
 137 522 213 639 213 639 c 1
 213 639 293 639 293 639 c 1
 293 639 293 636 293 636 c 1
 293 636 199 522 199 522 c 1
191 476 m 0
 292 476 333 411 333 293 c 1
 333 293 258 293 258 293 c 1
 258 373 243 411 191 411 c 0
 133 411 108 356 108 249 c 2
 108 249 108 216 108 216 c 2
 108 109 133 54 191 54 c 0
 243 54 262 95 262 172 c 1
 262 172 333 172 333 172 c 1
 333 75 293 -11 191 -11 c 0
 81 -11 32 65 32 232 c 0
 32 400 82 476 191 476 c 0
EndSplineSet
EndChar

StartChar: ccaron
Encoding: 269 269 146
Width: 362
GlyphClass: 2
Flags: MW
HStem: -11 65<162 217 162 242> 411 65<162 217> 520 119<72 216 72 147>
VStem: 32 76<162.5 216 216 249 162.5 316> 258 75<293 333>
LayerCount: 2
Back
Fore
SplineSet
72 639 m 1
 72 639 142 639 142 639 c 1
 142 639 181 569 181 569 c 1
 181 569 221 639 221 639 c 1
 221 639 292 639 292 639 c 1
 292 639 216 520 216 520 c 1
 216 520 147 520 147 520 c 1
 147 520 72 639 72 639 c 1
191 476 m 0
 292 476 333 411 333 293 c 1
 333 293 258 293 258 293 c 1
 258 373 243 411 191 411 c 0
 133 411 108 356 108 249 c 2
 108 249 108 216 108 216 c 2
 108 109 133 54 191 54 c 0
 243 54 262 95 262 172 c 1
 262 172 333 172 333 172 c 1
 333 75 293 -11 191 -11 c 0
 81 -11 32 65 32 232 c 0
 32 400 82 476 191 476 c 0
EndSplineSet
EndChar

StartChar: ccedilla
Encoding: 231 231 147
Width: 362
GlyphClass: 2
Flags: MW
HStem: -161 50<160 165 165 175 98 190.5> -154 21G<98 98> -68 36<138 193> -11 21G<195 195> -11 65<195 195> -5 21G<148 148> 411 65<162 217>
VStem: 32 76<162.5 216 216 249 162.5 316> 197 67<-97.5 -82> 258 75<293 333>
LayerCount: 2
Back
Fore
SplineSet
191 476 m 0x8740
 292 476 333 411 333 293 c 1
 333 293 258 293 258 293 c 1
 258 373 243 411 191 411 c 0
 133 411 108 356 108 249 c 2
 108 249 108 216 108 216 c 2
 108 109 133 54 191 54 c 0x8b40
 243 54 262 95 262 172 c 1
 262 172 333 172 333 172 c 1x9340
 333 77 294 -8 195 -11 c 1x9380
 195 -11 193 -32 193 -32 c 1
 231 -34 264 -49 264 -89 c 0
 264 -149 209 -161 172 -161 c 0xa780
 148 -161 119 -158 98 -154 c 1x4740
 98 -154 98 -111 98 -111 c 1
 98 -111 165 -111 165 -111 c 2
 185 -111 197 -106 197 -89 c 0
 197 -75 190 -68 167 -68 c 2
 167 -68 138 -68 138 -68 c 1xa780
 138 -68 148 -5 148 -5 c 1
 68 13 32 89 32 232 c 0
 32 400 82 476 191 476 c 0x8740
EndSplineSet
EndChar

StartChar: ccircumflex
Encoding: 265 265 148
Width: 362
GlyphClass: 2
Flags: MW
HStem: -11 65<162 217 162 242> 411 65<162 217> 519 119<72 217 72 217 148 221 148 292> 589 49<182 182>
VStem: 32 76<162.5 216 216 249 162.5 316> 258 75<293 333>
LayerCount: 2
Back
Fore
SplineSet
182 589 m 1xdc
 182 589 142 519 142 519 c 1
 142 519 72 519 72 519 c 1
 72 519 148 638 148 638 c 1
 148 638 217 638 217 638 c 1
 217 638 292 519 292 519 c 1
 292 519 221 519 221 519 c 1xec
 221 519 182 589 182 589 c 1xdc
191 476 m 0
 292 476 333 411 333 293 c 1
 333 293 258 293 258 293 c 1
 258 373 243 411 191 411 c 0
 133 411 108 356 108 249 c 2
 108 249 108 216 108 216 c 2
 108 109 133 54 191 54 c 0
 243 54 262 95 262 172 c 1
 262 172 333 172 333 172 c 1
 333 75 293 -11 191 -11 c 0
 81 -11 32 65 32 232 c 0
 32 400 82 476 191 476 c 0
EndSplineSet
EndChar

StartChar: cdotaccent
Encoding: 267 267 149
Width: 362
GlyphClass: 2
Flags: MW
HStem: -11 65<162 217 162 242> 411 65<162 217> 555 84<143 220 143 220>
VStem: 32 76<162.5 216 216 249 162.5 316> 143 77<555 639 555 639> 258 75<293 333>
LayerCount: 2
Back
Fore
SplineSet
143 639 m 1
 143 639 220 639 220 639 c 1
 220 639 220 555 220 555 c 1
 220 555 143 555 143 555 c 1
 143 555 143 639 143 639 c 1
191 476 m 0
 292 476 333 411 333 293 c 1
 333 293 258 293 258 293 c 1
 258 373 243 411 191 411 c 0
 133 411 108 356 108 249 c 2
 108 249 108 216 108 216 c 2
 108 109 133 54 191 54 c 0
 243 54 262 95 262 172 c 1
 262 172 333 172 333 172 c 1
 333 75 293 -11 191 -11 c 0
 81 -11 32 65 32 232 c 0
 32 400 82 476 191 476 c 0
EndSplineSet
EndChar

StartChar: d
Encoding: 100 100 150
Width: 403
GlyphClass: 2
Flags: MW
HStem: -11 65<166.5 200.5> 0 54 411 65<166.5 196.5 135.5 222> 619 20G<278 350 350 350>
VStem: 35 76<158 216 216 249 158 317.5> 278 72<216 246 246 300.5 421 639 0 639>
LayerCount: 2
Back
Fore
SplineSet
286 54 m 1xbc
 286 54 281 54 281 54 c 1
 259 11 222 -11 179 -11 c 0xbc
 91 -11 35 63 35 233 c 0
 35 402 97 476 174 476 c 0
 219 476 257 455 273 421 c 1
 273 421 278 421 278 421 c 1
 278 421 278 639 278 639 c 1
 278 639 350 639 350 639 c 1
 350 639 350 0 350 0 c 1
 350 0 295 0 295 0 c 1x7c
 295 0 286 54 286 54 c 1xbc
194 411 m 0
 139 411 111 365 111 249 c 2
 111 249 111 216 111 216 c 2
 111 100 139 54 194 54 c 0
 250 54 278 109 278 216 c 2
 278 216 278 246 278 246 c 2
 278 355 250 411 194 411 c 0
EndSplineSet
EndChar

StartChar: eth
Encoding: 240 240 151
Width: 403
GlyphClass: 2
Flags: MW
HStem: -11 65<171.5 232 171.5 256> 411 65<171.5 200 146.5 231.5> 445 20G 534.5 51.5 534.5 104.5 549 57 589 50<145 145>
VStem: 35 76<162.5 216 216 249 162.5 318> 82 244<552 583 583 583> 292 76<216 249 249 296.5 148.5 302.5>
LayerCount: 2
Back
Fore
SplineSet
263 546 m 1xc540
 326 461 368 361 368 232 c 0
 368 65 310 -11 202 -11 c 0
 93 -11 35 65 35 232 c 0xc940
 35 404 101 476 192 476 c 0xc880
 208 476 222 471 236 465 c 1
 222 490 205 514 187 539 c 1
 187 539 82 530 82 530 c 1xa880
 82 530 82 583 82 583 c 1xd080
 82 583 145 589 145 589 c 1xc280
 132 604 118 620 103 636 c 1
 103 636 105 639 105 639 c 1
 105 639 183 639 183 639 c 1
 187 634 192 630 196 625 c 0xc880
 205 615 214 606 223 596 c 1
 223 596 326 606 326 606 c 1
 326 606 326 552 326 552 c 1xc480
 326 552 263 546 263 546 c 1xc540
292 249 m 2xc940
 292 356 261 411 202 411 c 0
 141 411 111 356 111 249 c 2
 111 249 111 216 111 216 c 2
 111 109 141 54 202 54 c 0
 262 54 292 109 292 216 c 2
 292 216 292 249 292 249 c 2xc940
EndSplineSet
EndChar

StartChar: dcaron
Encoding: 271 271 152
Width: 446
GlyphClass: 2
Flags: MW
HStem: -11 65<166.5 200.5> 0 54 411 65<166.5 196.5 135.5 222> 511 95<385 421 385 474> 511 128<278 421 278 385>
VStem: 35 76<158 216 216 249 158 317.5> 278 72<216 246 246 300.5 421 639 0 639> 385 89<519 606 519 606 519 606>
LayerCount: 2
Back
Fore
SplineSet
286 54 m 1xb7
 286 54 281 54 281 54 c 1
 259 11 222 -11 179 -11 c 0xb7
 91 -11 35 63 35 233 c 0
 35 402 97 476 174 476 c 0
 219 476 257 455 273 421 c 1
 273 421 278 421 278 421 c 1
 278 421 278 639 278 639 c 1
 278 639 350 639 350 639 c 1
 350 639 350 0 350 0 c 1
 350 0 295 0 295 0 c 1x6f
 295 0 286 54 286 54 c 1xb7
385 401 m 1
 385 401 421 511 421 511 c 1
 421 511 385 511 385 511 c 1
 385 511 385 606 385 606 c 1
 385 606 474 606 474 606 c 1
 474 606 474 519 474 519 c 1
 474 519 431 401 431 401 c 1
 431 401 385 401 385 401 c 1
194 411 m 0
 139 411 111 365 111 249 c 2
 111 249 111 216 111 216 c 2
 111 100 139 54 194 54 c 0
 250 54 278 109 278 216 c 2
 278 216 278 246 278 246 c 2
 278 355 250 411 194 411 c 0
EndSplineSet
EndChar

StartChar: dcroat
Encoding: 273 273 153
Width: 400
GlyphClass: 2
Flags: MW
HStem: -11 65<166.5 200.5> 0 54 411 65<166.5 196.5 135.5 222> 515 60<179 278 179 278 350 401> 515 124<179 350 179 350 278 401 278 350>
VStem: 35 76<158 216 216 249 158 317.5> 278 72<216 246 246 300.5 421 515 0 515 575 639>
LayerCount: 2
Back
Fore
SplineSet
401 575 m 1xb6
 401 575 401 515 401 515 c 1
 401 515 350 515 350 515 c 1
 350 515 350 0 350 0 c 1
 350 0 295 0 295 0 c 1x6e
 295 0 286 54 286 54 c 1
 286 54 281 54 281 54 c 1
 259 11 222 -11 179 -11 c 0
 91 -11 35 63 35 233 c 0
 35 402 97 476 174 476 c 0
 219 476 257 455 273 421 c 1
 273 421 278 421 278 421 c 1
 278 421 278 515 278 515 c 1
 278 515 179 515 179 515 c 1xae
 179 515 179 575 179 575 c 1
 179 575 278 575 278 575 c 1xb6
 278 575 278 639 278 639 c 1
 278 639 350 639 350 639 c 1xae
 350 639 350 575 350 575 c 1
 350 575 401 575 401 575 c 1xb6
194 411 m 0
 139 411 111 365 111 249 c 2
 111 249 111 216 111 216 c 2
 111 100 139 54 194 54 c 0xae
 250 54 278 109 278 216 c 2
 278 216 278 246 278 246 c 2
 278 355 250 411 194 411 c 0
EndSplineSet
EndChar

StartChar: e
Encoding: 101 101 154
Width: 403
GlyphClass: 2
Flags: MW
HStem: -11 65<180.5 238 180.5 258> 211 65<114 289 114 365 113 289> 411 65<180 237.5>
VStem: 37 76<211 211 211 316> 289 76
AnchorPoint: "Anchor-1" 202 0 basechar 0
AnchorPoint: "Anchor-0" 202 465 basechar 0
LayerCount: 2
Back
Fore
SplineSet
212 476 m 0
 314 476 365 413 365 257 c 2
 365 257 365 211 365 211 c 1
 365 211 113 211 113 211 c 1
 114 103 146 54 215 54 c 0
 261 54 293 94 293 158 c 1
 293 158 365 158 365 158 c 1
 365 54 303 -11 213 -11 c 0
 97 -11 37 60 37 232 c 0
 37 400 95 476 212 476 c 0
212 411 m 0
 148 411 120 365 114 276 c 1
 114 276 289 276 289 276 c 1
 289 364 263 411 212 411 c 0
EndSplineSet
EndChar

StartChar: eacute
Encoding: 233 233 155
Width: 403
GlyphClass: 2
Flags: MW
HStem: -11 65<180.5 238 180.5 258> 211 65<114 289 114 365 113 289> 411 65<180 237.5> 522 117<159 315 159 315>
VStem: 37 76<211 211 211 316> 289 76
LayerCount: 2
Back
Fore
SplineSet
221 522 m 1
 221 522 159 522 159 522 c 1
 159 522 235 639 235 639 c 1
 235 639 315 639 315 639 c 1
 315 639 316 636 316 636 c 1
 316 636 221 522 221 522 c 1
212 476 m 0
 314 476 365 413 365 257 c 2
 365 257 365 211 365 211 c 1
 365 211 113 211 113 211 c 1
 114 103 146 54 215 54 c 0
 261 54 293 94 293 158 c 1
 293 158 365 158 365 158 c 1
 365 54 303 -11 213 -11 c 0
 97 -11 37 60 37 232 c 0
 37 400 95 476 212 476 c 0
212 411 m 0
 148 411 120 365 114 276 c 1
 114 276 289 276 289 276 c 1
 289 364 263 411 212 411 c 0
EndSplineSet
EndChar

StartChar: ebreve
Encoding: 277 277 156
Width: 403
GlyphClass: 2
Flags: MW
HStem: -11 65<180.5 238 180.5 258> 211 65<114 289 114 365 113 289> 411 65<180 237.5> 553 57<186.5 217 186.5 236> 553 86<92 236>
VStem: 37 76<211 211 211 316> 289 76
LayerCount: 2
Back
Fore
SplineSet
311 639 m 1xee
 311 599 270 553 202 553 c 0xf6
 134 553 92 599 92 639 c 1
 92 639 149 639 149 639 c 1xee
 152 627 171 610 202 610 c 0xf6
 232 610 253 627 255 639 c 1
 255 639 311 639 311 639 c 1xee
212 476 m 0xf6
 314 476 365 413 365 257 c 2
 365 257 365 211 365 211 c 1
 365 211 113 211 113 211 c 1
 114 103 146 54 215 54 c 0
 261 54 293 94 293 158 c 1
 293 158 365 158 365 158 c 1
 365 54 303 -11 213 -11 c 0
 97 -11 37 60 37 232 c 0
 37 400 95 476 212 476 c 0xf6
212 411 m 0
 148 411 120 365 114 276 c 1
 114 276 289 276 289 276 c 1
 289 364 263 411 212 411 c 0
EndSplineSet
EndChar

StartChar: ecaron
Encoding: 283 283 157
Width: 403
GlyphClass: 2
Flags: MW
HStem: -11 65<180.5 238 180.5 258> 211 65<114 289 114 365 113 289> 411 65<180 237.5> 520 119<92 236 92 166>
VStem: 37 76<211 211 211 316> 289 76
LayerCount: 2
Back
Fore
SplineSet
92 639 m 1
 92 639 163 639 163 639 c 1
 163 639 202 569 202 569 c 1
 202 569 241 639 241 639 c 1
 241 639 312 639 312 639 c 1
 312 639 236 520 236 520 c 1
 236 520 166 520 166 520 c 1
 166 520 92 639 92 639 c 1
212 476 m 0
 314 476 365 413 365 257 c 2
 365 257 365 211 365 211 c 1
 365 211 113 211 113 211 c 1
 114 103 146 54 215 54 c 0
 261 54 293 94 293 158 c 1
 293 158 365 158 365 158 c 1
 365 54 303 -11 213 -11 c 0
 97 -11 37 60 37 232 c 0
 37 400 95 476 212 476 c 0
212 411 m 0
 148 411 120 365 114 276 c 1
 114 276 289 276 289 276 c 1
 289 364 263 411 212 411 c 0
EndSplineSet
EndChar

StartChar: ecircumflex
Encoding: 234 234 158
Width: 403
GlyphClass: 2
Flags: MW
HStem: -11 65<180.5 238 180.5 258> 211 65<114 289 114 365 113 289> 411 65<180 237.5> 519 119<92 237 92 237 167 241 167 312> 589 49<202 202>
VStem: 37 76<211 211 211 316> 289 76
LayerCount: 2
Back
Fore
SplineSet
202 589 m 1xee
 202 589 163 519 163 519 c 1
 163 519 92 519 92 519 c 1
 92 519 167 638 167 638 c 1
 167 638 237 638 237 638 c 1
 237 638 312 519 312 519 c 1
 312 519 241 519 241 519 c 1xf6
 241 519 202 589 202 589 c 1xee
212 476 m 0
 314 476 365 413 365 257 c 2
 365 257 365 211 365 211 c 1
 365 211 113 211 113 211 c 1
 114 103 146 54 215 54 c 0
 261 54 293 94 293 158 c 1
 293 158 365 158 365 158 c 1
 365 54 303 -11 213 -11 c 0
 97 -11 37 60 37 232 c 0
 37 400 95 476 212 476 c 0
212 411 m 0
 148 411 120 365 114 276 c 1
 114 276 289 276 289 276 c 1
 289 364 263 411 212 411 c 0
EndSplineSet
EndChar

StartChar: edieresis
Encoding: 235 235 159
Width: 403
GlyphClass: 2
Flags: MW
HStem: -11 65<180.5 238 180.5 258> 211 65<114 289 114 365 113 289> 411 65<180 237.5> 555 84<96 173 96 173 229 307 96 229>
VStem: 37 76<211 211 211 316> 96 77<555 639 555 639> 229 78<555 639 555 639> 289 76
LayerCount: 2
Back
Fore
SplineSet
96 555 m 1xf6
 96 555 96 639 96 639 c 1
 96 639 173 639 173 639 c 1
 173 639 173 555 173 555 c 1
 173 555 96 555 96 555 c 1xf6
229 555 m 1
 229 555 229 639 229 639 c 1
 229 639 307 639 307 639 c 1
 307 639 307 555 307 555 c 1
 307 555 229 555 229 555 c 1
212 476 m 0xf9
 314 476 365 413 365 257 c 2
 365 257 365 211 365 211 c 1
 365 211 113 211 113 211 c 1
 114 103 146 54 215 54 c 0
 261 54 293 94 293 158 c 1
 293 158 365 158 365 158 c 1
 365 54 303 -11 213 -11 c 0
 97 -11 37 60 37 232 c 0
 37 400 95 476 212 476 c 0xf9
212 411 m 0
 148 411 120 365 114 276 c 1
 114 276 289 276 289 276 c 1
 289 364 263 411 212 411 c 0
EndSplineSet
EndChar

StartChar: edotaccent
Encoding: 279 279 160
Width: 403
GlyphClass: 2
Flags: MW
HStem: -11 65<180.5 238 180.5 258> 211 65<114 289 114 365 113 289> 411 65<180 237.5> 555 84<164 240 164 240>
VStem: 37 76<211 211 211 316> 164 76<555 639 555 639> 289 76
LayerCount: 2
Back
Fore
SplineSet
164 639 m 1
 164 639 240 639 240 639 c 1
 240 639 240 555 240 555 c 1
 240 555 164 555 164 555 c 1
 164 555 164 639 164 639 c 1
212 476 m 0
 314 476 365 413 365 257 c 2
 365 257 365 211 365 211 c 1
 365 211 113 211 113 211 c 1
 114 103 146 54 215 54 c 0
 261 54 293 94 293 158 c 1
 293 158 365 158 365 158 c 1
 365 54 303 -11 213 -11 c 0
 97 -11 37 60 37 232 c 0
 37 400 95 476 212 476 c 0
212 411 m 0
 148 411 120 365 114 276 c 1
 114 276 289 276 289 276 c 1
 289 364 263 411 212 411 c 0
EndSplineSet
EndChar

StartChar: egrave
Encoding: 232 232 161
Width: 403
GlyphClass: 2
Flags: MW
HStem: -11 65<180.5 238 180.5 258> 211 65<114 289 114 365 113 289> 411 65<180 237.5> 522 117<109 203 109 264>
VStem: 37 76<211 211 211 316> 289 76
LayerCount: 2
Back
Fore
SplineSet
203 522 m 1
 203 522 108 636 108 636 c 1
 108 636 109 639 109 639 c 1
 109 639 188 639 188 639 c 1
 188 639 264 522 264 522 c 1
 264 522 203 522 203 522 c 1
212 476 m 0
 314 476 365 413 365 257 c 2
 365 257 365 211 365 211 c 1
 365 211 113 211 113 211 c 1
 114 103 146 54 215 54 c 0
 261 54 293 94 293 158 c 1
 293 158 365 158 365 158 c 1
 365 54 303 -11 213 -11 c 0
 97 -11 37 60 37 232 c 0
 37 400 95 476 212 476 c 0
212 411 m 0
 148 411 120 365 114 276 c 1
 114 276 289 276 289 276 c 1
 289 364 263 411 212 411 c 0
EndSplineSet
EndChar

StartChar: emacron
Encoding: 275 275 162
Width: 403
GlyphClass: 2
Flags: MW
HStem: -11 65<180.5 238 180.5 258> 211 65<114 289 114 365 113 289> 411 65<180 237.5> 530 63<91 313 91 313>
VStem: 37 76<211 211 211 316> 91 222<530 593 530 593> 289 76
LayerCount: 2
Back
Fore
SplineSet
91 593 m 1xf4
 91 593 313 593 313 593 c 1
 313 593 313 530 313 530 c 1
 313 530 91 530 91 530 c 1
 91 530 91 593 91 593 c 1xf4
212 476 m 0xfa
 314 476 365 413 365 257 c 2
 365 257 365 211 365 211 c 1
 365 211 113 211 113 211 c 1
 114 103 146 54 215 54 c 0
 261 54 293 94 293 158 c 1
 293 158 365 158 365 158 c 1
 365 54 303 -11 213 -11 c 0
 97 -11 37 60 37 232 c 0
 37 400 95 476 212 476 c 0xfa
212 411 m 0
 148 411 120 365 114 276 c 1
 114 276 289 276 289 276 c 1
 289 364 263 411 212 411 c 0
EndSplineSet
EndChar

StartChar: eogonek
Encoding: 281 281 163
Width: 403
GlyphClass: 2
Flags: MW
HStem: -161 58<255 328> -11 65<180.5 213 213 215> 211 65<114 289 114 365 113 289> 411 65<180 237.5>
VStem: 37 76<211 211 211 316> 191 69<-67.5 -66> 289 76
LayerCount: 2
Back
Fore
SplineSet
365 211 m 1
 365 211 113 211 113 211 c 1
 114 103 146 54 215 54 c 0
 261 54 293 94 293 158 c 1
 293 158 365 158 365 158 c 1xfa
 365 85 334 32 286 6 c 1
 275 -6 260 -30 260 -55 c 0
 260 -80 271 -103 300 -103 c 2
 300 -103 328 -103 328 -103 c 1
 328 -103 328 -149 328 -149 c 1
 309 -156 292 -161 274 -161 c 0
 236 -161 191 -142 191 -81 c 0xfe
 191 -51 201 -29 215 -11 c 1
 215 -11 213 -11 213 -11 c 2
 97 -11 37 60 37 232 c 0
 37 400 95 476 212 476 c 0
 314 476 365 413 365 257 c 2
 365 257 365 211 365 211 c 1
289 276 m 1
 289 364 263 411 212 411 c 0
 148 411 120 365 114 276 c 1
 114 276 289 276 289 276 c 1
EndSplineSet
EndChar

StartChar: f
Encoding: 102 102 164
Width: 202
GlyphClass: 2
Flags: MW
HStem: 0 21G<49 121 49 49> 400 65<8 49 8 49 121 202> 585 61<149 151.5 105.5 163 105.5 202>
VStem: 49 72<0 400 0 400 465 539 539 543>
LayerCount: 2
Back
Fore
SplineSet
141 646 m 0
 162 646 187 641 202 636 c 1
 202 636 202 585 202 585 c 1
 202 585 163 585 163 585 c 2
 135 585 121 570 121 543 c 2
 121 543 121 465 121 465 c 1
 121 465 202 465 202 465 c 1
 202 465 202 400 202 400 c 1
 202 400 121 400 121 400 c 1
 121 400 121 0 121 0 c 1
 121 0 49 0 49 0 c 1
 49 0 49 400 49 400 c 1
 49 400 8 400 8 400 c 1
 8 400 8 465 8 465 c 1
 8 465 49 465 49 465 c 1
 49 465 49 539 49 539 c 2
 49 592 70 646 141 646 c 0
EndSplineSet
EndChar

StartChar: g
Encoding: 103 103 165
Width: 403
GlyphClass: 2
Flags: MW
HStem: -161 63<88 266 138 258> 11 69<119.5 285 152 266> 163 60<140 222 170.5 201> 415 61<170.5 209 150 222>
VStem: 11 73<-58 -28 -58 -27.5> 34 76<109.5 132.5 109.5 137> 45 73<293 348.5 288 367.5> 276 73<289.5 342 271 350> 321 73<-58 -28> 322 63<512 540>
AnchorPoint: "Anchor-1" 0 0 basechar 0
AnchorPoint: "Anchor-0" 202 465 basechar 0
LayerCount: 2
Back
Fore
SplineSet
385 540 m 1xf240
 385 484 356 441 308 429 c 1
 333 402 349 365 349 319 c 0
 349 223 291 164 201 163 c 2
 201 163 152 163 152 163 c 2
 128 163 110 144 110 121 c 0
 110 98 129 80 152 80 c 2xf5
 152 80 285 80 285 80 c 2
 352 80 394 30 394 -29 c 0
 394 -103 347 -161 258 -161 c 2
 258 -161 126 -161 126 -161 c 2
 50 -161 11 -111 11 -50 c 0xf880
 11 -5 34 34 72 49 c 1
 48 64 34 91 34 118 c 0xf5
 34 156 60 185 99 199 c 1
 65 226 45 267 45 319 c 0
 45 416 103 476 197 476 c 0
 221 476 245 469 264 459 c 1
 306 481 317 511 322 540 c 1
 322 540 385 540 385 540 c 1xf240
196 415 m 0xf3
 145 415 118 378 118 319 c 0
 118 257 145 223 196 223 c 0
 248 223 276 260 276 319 c 0
 276 381 248 415 196 415 c 0xf3
138 11 m 2xf880
 101 11 84 -13 84 -43 c 0
 84 -73 102 -98 138 -98 c 2
 138 -98 266 -98 266 -98 c 2
 297 -98 321 -73 321 -43 c 0
 321 -13 303 11 266 11 c 2
 266 11 138 11 138 11 c 2xf880
EndSplineSet
EndChar

StartChar: gbreve
Encoding: 287 287 166
Width: 403
GlyphClass: 2
Flags: MW
HStem: -161 63<88 266 138 258> 11 69<119.5 285 152 266> 163 60<140 222 170.5 201> 415 61<170.5 209 150 222> 553 57<186.5 217 186.5 236> 553 86<92 236>
VStem: 11 73<-58 -28 -58 -27.5> 34 76<109.5 132.5 109.5 137> 45 73<293 348.5 288 367.5> 276 73<289.5 342 271 350> 321 73<-58 -28> 322 63<512 540>
LayerCount: 2
Back
Fore
SplineSet
311 639 m 1xf540
 311 599 270 553 202 553 c 0xf940
 134 553 92 599 92 639 c 1
 92 639 149 639 149 639 c 1xf540
 152 627 171 610 202 610 c 0xf940
 232 610 253 627 255 639 c 1
 255 639 311 639 311 639 c 1xf540
385 540 m 1xf890
 385 484 356 441 308 429 c 1
 333 402 349 365 349 319 c 0
 349 223 291 164 201 163 c 2
 201 163 152 163 152 163 c 2
 128 163 110 144 110 121 c 0
 110 98 129 80 152 80 c 2xf940
 152 80 285 80 285 80 c 2
 352 80 394 30 394 -29 c 0
 394 -103 347 -161 258 -161 c 2
 258 -161 126 -161 126 -161 c 2
 50 -161 11 -111 11 -50 c 0xfa20
 11 -5 34 34 72 49 c 1
 48 64 34 91 34 118 c 0xf940
 34 156 60 185 99 199 c 1
 65 226 45 267 45 319 c 0
 45 416 103 476 197 476 c 0
 221 476 245 469 264 459 c 1
 306 481 317 511 322 540 c 1
 322 540 385 540 385 540 c 1xf890
196 415 m 0xf8c0
 145 415 118 378 118 319 c 0
 118 257 145 223 196 223 c 0
 248 223 276 260 276 319 c 0
 276 381 248 415 196 415 c 0xf8c0
138 11 m 2xfa20
 101 11 84 -13 84 -43 c 0
 84 -73 102 -98 138 -98 c 2
 138 -98 266 -98 266 -98 c 2
 297 -98 321 -73 321 -43 c 0
 321 -13 303 11 266 11 c 2
 266 11 138 11 138 11 c 2xfa20
EndSplineSet
EndChar

StartChar: gcircumflex
Encoding: 285 285 167
Width: 403
GlyphClass: 2
Flags: MW
HStem: -161 63<88 266 138 258> 11 69<119.5 285 152 266> 163 60<140 222 170.5 201> 415 61<170.5 209 150 222> 519 21<241 385> 519 119<92 237 92 237 167 241 167 312> 589 49<202 202>
VStem: 11 73<-58 -28 -58 -27.5> 34 76<109.5 132.5 109.5 137> 45 73<293 348.5 288 367.5> 276 73<289.5 342 271 350> 321 73<-58 -28> 326 59<512 540>
LayerCount: 2
Back
Fore
SplineSet
202 589 m 1xf2a0
 202 589 163 519 163 519 c 1
 163 519 92 519 92 519 c 1
 92 519 167 638 167 638 c 1
 167 638 237 638 237 638 c 1
 237 638 312 519 312 519 c 1
 312 519 241 519 241 519 c 1xf4a0
 241 519 202 589 202 589 c 1xf2a0
385 540 m 1xf848
 385 484 356 441 308 429 c 1
 333 402 349 365 349 319 c 0
 349 223 291 164 201 163 c 2
 201 163 152 163 152 163 c 2
 128 163 110 144 110 121 c 0
 110 98 129 80 152 80 c 2xf4a0
 152 80 285 80 285 80 c 2
 352 80 394 30 394 -29 c 0
 394 -103 347 -161 258 -161 c 2
 258 -161 126 -161 126 -161 c 2
 50 -161 11 -111 11 -50 c 0xf510
 11 -5 34 34 72 49 c 1
 48 64 34 91 34 118 c 0xf4a0
 34 156 60 185 99 199 c 1
 65 226 45 267 45 319 c 0
 45 416 103 476 197 476 c 0
 221 476 245 469 264 459 c 1
 309 481 324 498 326 540 c 1
 326 540 385 540 385 540 c 1xf848
196 415 m 0xf460
 145 415 118 378 118 319 c 0
 118 257 145 223 196 223 c 0
 248 223 276 260 276 319 c 0
 276 381 248 415 196 415 c 0xf460
138 11 m 2xf510
 101 11 84 -13 84 -43 c 0
 84 -73 102 -98 138 -98 c 2
 138 -98 266 -98 266 -98 c 2
 297 -98 321 -73 321 -43 c 0
 321 -13 303 11 266 11 c 2
 266 11 138 11 138 11 c 2xf510
EndSplineSet
EndChar

StartChar: gcommaaccent
Encoding: 291 291 168
Width: 403
GlyphClass: 2
Flags: MW
HStem: -161 63<88 266 138 258> 11 69<119.5 285 152 266> 163 60<140 222 170.5 201> 415 61<170.5 209 150 222> 526 80<196 226 196 226 150 226>
VStem: 11 73<-58 -28 -58 -27.5> 34 76<109.5 132.5 109.5 137> 45 73<293 348.5 288 367.5> 150 76<526 600 600 600> 276 73<289.5 342 271 350> 321 73<-58 -28> 322 63<512 540>
LayerCount: 2
Back
Fore
SplineSet
226 606 m 1xfac0
 226 606 226 526 226 526 c 1
 226 526 150 526 150 526 c 1
 150 526 150 600 150 600 c 1
 150 600 177 669 177 669 c 1
 177 669 216 669 216 669 c 1
 216 669 196 606 196 606 c 1
 196 606 226 606 226 606 c 1xfac0
385 540 m 1xf990
 385 484 356 441 308 429 c 1
 333 402 349 365 349 319 c 0
 349 223 291 164 201 163 c 2
 201 163 152 163 152 163 c 2
 128 163 110 144 110 121 c 0
 110 98 129 80 152 80 c 2xfac0
 152 80 285 80 285 80 c 2
 352 80 394 30 394 -29 c 0
 394 -103 347 -161 258 -161 c 2
 258 -161 126 -161 126 -161 c 2
 50 -161 11 -111 11 -50 c 0xfca0
 11 -5 34 34 72 49 c 1
 48 64 34 91 34 118 c 0xfac0
 34 156 60 185 99 199 c 1
 65 226 45 267 45 319 c 0
 45 416 103 476 197 476 c 0
 221 476 245 469 264 459 c 1
 306 481 317 511 322 540 c 1
 322 540 385 540 385 540 c 1xf990
196 415 m 0xf9c0
 145 415 118 378 118 319 c 0
 118 257 145 223 196 223 c 0
 248 223 276 260 276 319 c 0
 276 381 248 415 196 415 c 0xf9c0
138 11 m 2xfca0
 101 11 84 -13 84 -43 c 0
 84 -73 102 -98 138 -98 c 2
 138 -98 266 -98 266 -98 c 2
 297 -98 321 -73 321 -43 c 0
 321 -13 303 11 266 11 c 2
 266 11 138 11 138 11 c 2xfca0
EndSplineSet
EndChar

StartChar: gdotaccent
Encoding: 289 289 169
Width: 403
GlyphClass: 2
Flags: MW
HStem: -161 63<88 266 138 258> 11 69<119.5 285 152 266> 163 60<140 222 170.5 201> 415 61<170.5 209 150 222> 555 84<164 240 164 240>
VStem: 11 73<-58 -28 -58 -27.5> 34 76<109.5 132.5 109.5 137> 45 73<293 348.5 288 367.5> 164 76<555 639 555 639> 276 73<289.5 342 271 350> 321 73<-58 -28> 322 63<512 540>
LayerCount: 2
Back
Fore
SplineSet
164 639 m 1xfac0
 164 639 240 639 240 639 c 1
 240 639 240 555 240 555 c 1
 240 555 164 555 164 555 c 1
 164 555 164 639 164 639 c 1xfac0
385 540 m 1xf990
 385 484 356 441 308 429 c 1
 333 402 349 365 349 319 c 0
 349 223 291 164 201 163 c 2
 201 163 152 163 152 163 c 2
 128 163 110 144 110 121 c 0
 110 98 129 80 152 80 c 2xfac0
 152 80 285 80 285 80 c 2
 352 80 394 30 394 -29 c 0
 394 -103 347 -161 258 -161 c 2
 258 -161 126 -161 126 -161 c 2
 50 -161 11 -111 11 -50 c 0xfca0
 11 -5 34 34 72 49 c 1
 48 64 34 91 34 118 c 0xfac0
 34 156 60 185 99 199 c 1
 65 226 45 267 45 319 c 0
 45 416 103 476 197 476 c 0
 221 476 245 469 264 459 c 1
 306 481 317 511 322 540 c 1
 322 540 385 540 385 540 c 1xf990
196 415 m 0xf9c0
 145 415 118 378 118 319 c 0
 118 257 145 223 196 223 c 0
 248 223 276 260 276 319 c 0
 276 381 248 415 196 415 c 0xf9c0
138 11 m 2xfca0
 101 11 84 -13 84 -43 c 0
 84 -73 102 -98 138 -98 c 2
 138 -98 266 -98 266 -98 c 2
 297 -98 321 -73 321 -43 c 0
 321 -13 303 11 266 11 c 2
 266 11 138 11 138 11 c 2xfca0
EndSplineSet
EndChar

StartChar: h
Encoding: 104 104 170
Width: 403
GlyphClass: 2
Flags: MW
HStem: 0 21G<53 126 53 53 278 350 278 278> 411 65<212 231.5> 619 20G<53 126 126 126>
VStem: 53 73<0 284 416 639> 278 72<0 330 330 335 0 362>
AnchorPoint: "Anchor-1" 0 0 basechar 0
AnchorPoint: "Anchor-0" 202 465 basechar 0
LayerCount: 2
Back
Fore
SplineSet
131 416 m 1
 155 458 189 476 235 476 c 0
 305 476 350 438 350 335 c 2
 350 335 350 0 350 0 c 1
 350 0 278 0 278 0 c 1
 278 0 278 330 278 330 c 2
 278 394 251 411 212 411 c 0
 166 411 126 364 126 284 c 2
 126 284 126 0 126 0 c 1
 126 0 53 0 53 0 c 1
 53 0 53 639 53 639 c 1
 53 639 126 639 126 639 c 1
 126 639 126 416 126 416 c 1
 126 416 131 416 131 416 c 1
EndSplineSet
EndChar

StartChar: hbar
Encoding: 295 295 171
Width: 403
GlyphClass: 2
Flags: MW
HStem: 0 21G<53 126 53 53 278 350 278 278> 411 65<212 231.5> 515 60<0 53 0 53 126 221> 515 124<0 126 0 126 53 221 53 126>
VStem: 53 73<0 284 416 515 575 639> 278 72<0 330 330 335 0 362>
LayerCount: 2
Back
Fore
SplineSet
221 575 m 1xec
 221 575 221 515 221 515 c 1
 221 515 126 515 126 515 c 1
 126 515 126 416 126 416 c 1
 126 416 131 416 131 416 c 1
 155 458 189 476 235 476 c 0
 305 476 350 438 350 335 c 2
 350 335 350 0 350 0 c 1
 350 0 278 0 278 0 c 1
 278 0 278 330 278 330 c 2
 278 394 251 411 212 411 c 0
 166 411 126 364 126 284 c 2
 126 284 126 0 126 0 c 1
 126 0 53 0 53 0 c 1
 53 0 53 515 53 515 c 1
 53 515 0 515 0 515 c 1xdc
 0 515 0 575 0 575 c 1
 0 575 53 575 53 575 c 1xec
 53 575 53 639 53 639 c 1
 53 639 126 639 126 639 c 1xdc
 126 639 126 575 126 575 c 1
 126 575 221 575 221 575 c 1xec
EndSplineSet
EndChar

StartChar: hcircumflex
Encoding: 293 293 172
Width: 403
GlyphClass: 2
Flags: MW
HStem: 0 21G<53 126 53 53 278 350 278 278> 411 65<212 231.5> 619 20G<53 126 126 126> 660 120<-19 126 -19 126 57 131 57 202>
VStem: 53 73<0 284 416 639> 278 72<0 330 330 335 0 362>
LayerCount: 2
Back
Fore
SplineSet
92 730 m 1
 92 730 52 660 52 660 c 1
 52 660 -19 660 -19 660 c 1
 -19 660 57 780 57 780 c 1
 57 780 126 780 126 780 c 1
 126 780 202 660 202 660 c 1
 202 660 131 660 131 660 c 1
 131 660 92 730 92 730 c 1
131 416 m 1
 155 458 189 476 235 476 c 0
 305 476 350 438 350 335 c 2
 350 335 350 0 350 0 c 1
 350 0 278 0 278 0 c 1
 278 0 278 330 278 330 c 2
 278 394 251 411 212 411 c 0
 166 411 126 364 126 284 c 2
 126 284 126 0 126 0 c 1
 126 0 53 0 53 0 c 1
 53 0 53 639 53 639 c 1
 53 639 126 639 126 639 c 1xec
 126 639 126 416 126 416 c 1
 126 416 131 416 131 416 c 1
EndSplineSet
EndChar

StartChar: i
Encoding: 105 105 173
Width: 161
GlyphClass: 2
Flags: MW
HStem: 0 21G<44 117 44 44> 445 20G<44 117 117 117> 552 87<44 117 44 117>
VStem: 44 73<0 465 0 465 552 639>
LayerCount: 2
Back
Fore
SplineSet
44 639 m 1
 44 639 117 639 117 639 c 1
 117 639 117 552 117 552 c 1
 117 552 44 552 44 552 c 1
 44 552 44 639 44 639 c 1
44 465 m 1
 44 465 117 465 117 465 c 1
 117 465 117 0 117 0 c 1
 117 0 44 0 44 0 c 1
 44 0 44 465 44 465 c 1
EndSplineSet
EndChar

StartChar: dotlessi
Encoding: 305 305 174
Width: 202
GlyphClass: 2
Flags: MW
HStem: 0 21G<65 137 65 65> 445 20G<65 137 137 137>
VStem: 65 72<0 465 0 465>
AnchorPoint: "Anchor-1" 0 0 basechar 0
AnchorPoint: "Anchor-0" 101 465 basechar 0
LayerCount: 2
Back
Fore
SplineSet
65 465 m 1
 65 465 137 465 137 465 c 1
 137 465 137 0 137 0 c 1
 137 0 65 0 65 0 c 1
 65 0 65 465 65 465 c 1
EndSplineSet
EndChar

StartChar: iacute
Encoding: 237 237 175
Width: 202
GlyphClass: 2
Flags: MW
HStem: 0 21G<65 65 65 137> 445 20G<65 137 137 137> 522 117<49 203 49 203>
VStem: 65 72<0 465 0 465>
LayerCount: 2
Back
Fore
SplineSet
110 522 m 1
 110 522 49 522 49 522 c 1
 49 522 125 639 125 639 c 1
 125 639 203 639 203 639 c 1
 203 639 204 636 204 636 c 1
 204 636 110 522 110 522 c 1
65 0 m 1
 65 0 65 465 65 465 c 1
 65 465 137 465 137 465 c 1
 137 465 137 0 137 0 c 1
 137 0 65 0 65 0 c 1
EndSplineSet
EndChar

StartChar: ibreve
Encoding: 301 301 176
Width: 202
GlyphClass: 2
Flags: MW
HStem: 0 21G<65 137 65 65> 445 20G<65 137 137 137> 553 57<86.5 116 86.5 135> 553 86<-9 135>
VStem: 65 72<0 465 0 465>
LayerCount: 2
Back
Fore
SplineSet
210 639 m 1xd8
 210 599 169 553 101 553 c 0xe8
 34 553 -9 599 -9 639 c 1
 -9 639 49 639 49 639 c 1xd8
 51 627 72 610 101 610 c 0xe8
 131 610 152 627 154 639 c 1
 154 639 210 639 210 639 c 1xd8
65 465 m 1xe8
 65 465 137 465 137 465 c 1
 137 465 137 0 137 0 c 1
 137 0 65 0 65 0 c 1
 65 0 65 465 65 465 c 1xe8
EndSplineSet
EndChar

StartChar: icircumflex
Encoding: 238 238 177
Width: 202
GlyphClass: 2
Flags: MW
HStem: 0 21G<65 137 65 65> 445 20G<65 137 137 137> 519 119<-10 136 -10 136 67 141 67 211> 589 49<102 102>
VStem: 65 72<0 465 0 465>
LayerCount: 2
Back
Fore
SplineSet
102 589 m 1xd8
 102 589 62 519 62 519 c 1
 62 519 -10 519 -10 519 c 1
 -10 519 67 638 67 638 c 1
 67 638 136 638 136 638 c 1
 136 638 211 519 211 519 c 1
 211 519 141 519 141 519 c 1xe8
 141 519 102 589 102 589 c 1xd8
65 465 m 1
 65 465 137 465 137 465 c 1
 137 465 137 0 137 0 c 1
 137 0 65 0 65 0 c 1
 65 0 65 465 65 465 c 1
EndSplineSet
EndChar

StartChar: idieresis
Encoding: 239 239 178
Width: 202
GlyphClass: 2
Flags: MW
HStem: 0 21G<65 65 65 137> 445 20G<65 137 137 137> 555 84<-4 73 -4 73 129 206 -4 129>
VStem: -4 77<555 639 555 639> 65 72<0 465 0 465> 129 77<555 639 555 639>
LayerCount: 2
Back
Fore
SplineSet
-4 555 m 1xf4
 -4 555 -4 639 -4 639 c 1
 -4 639 73 639 73 639 c 1
 73 639 73 555 73 555 c 1
 73 555 -4 555 -4 555 c 1xf4
129 555 m 1
 129 555 129 639 129 639 c 1
 129 639 206 639 206 639 c 1
 206 639 206 555 206 555 c 1
 206 555 129 555 129 555 c 1
65 0 m 1xe8
 65 0 65 465 65 465 c 1
 65 465 137 465 137 465 c 1
 137 465 137 0 137 0 c 1
 137 0 65 0 65 0 c 1xe8
EndSplineSet
EndChar

StartChar: igrave
Encoding: 236 236 179
Width: 202
GlyphClass: 2
Flags: MW
HStem: 0 21G<65 65 65 137> 445 20G<65 137 137 137> 522 117<-2 93 -2 154>
VStem: 65 72<0 465 0 465>
LayerCount: 2
Back
Fore
SplineSet
93 522 m 1
 93 522 -3 636 -3 636 c 1
 -3 636 -2 639 -2 639 c 1
 -2 639 78 639 78 639 c 1
 78 639 154 522 154 522 c 1
 154 522 93 522 93 522 c 1
65 0 m 1
 65 0 65 465 65 465 c 1
 65 465 137 465 137 465 c 1
 137 465 137 0 137 0 c 1
 137 0 65 0 65 0 c 1
EndSplineSet
EndChar

StartChar: ij
Encoding: 307 307 180
Width: 322
GlyphClass: 2
Flags: MW
HStem: -161 61<175 177.5 125 221> -150 50<125 164> 0 21G<44 44 44 117> 445 20G<44 117 117 117 205 278 278 278> 552 87<44 117 44 117 205 278>
VStem: 44 73<0 465 0 465 552 639> 205 73<-57 -54 -54 465 552 639>
LayerCount: 2
Back
Fore
SplineSet
44 552 m 1xbe
 44 552 44 639 44 639 c 1
 44 639 117 639 117 639 c 1
 117 639 117 552 117 552 c 1
 117 552 44 552 44 552 c 1xbe
205 552 m 1
 205 552 205 639 205 639 c 1
 205 639 278 639 278 639 c 1
 278 639 278 552 278 552 c 1
 278 552 205 552 205 552 c 1
44 0 m 1
 44 0 44 465 44 465 c 1
 44 465 117 465 117 465 c 1
 117 465 117 0 117 0 c 1
 117 0 44 0 44 0 c 1
278 -54 m 2
 278 -107 256 -161 186 -161 c 0xbe
 164 -161 140 -156 125 -150 c 1x7e
 125 -150 125 -100 125 -100 c 1
 125 -100 164 -100 164 -100 c 2
 191 -100 205 -85 205 -57 c 2
 205 -57 205 465 205 465 c 1
 205 465 278 465 278 465 c 1
 278 465 278 -54 278 -54 c 2
EndSplineSet
EndChar

StartChar: imacron
Encoding: 299 299 181
Width: 202
GlyphClass: 2
Flags: MW
HStem: 0 21G<65 137 65 65> 445 20G<65 137 137 137> 530 63<-10 212 -10 212>
VStem: 65 72<0 465 0 465>
LayerCount: 2
Back
Fore
SplineSet
-10 593 m 1
 -10 593 212 593 212 593 c 1
 212 593 212 530 212 530 c 1
 212 530 -10 530 -10 530 c 1
 -10 530 -10 593 -10 593 c 1
65 465 m 1
 65 465 137 465 137 465 c 1
 137 465 137 0 137 0 c 1
 137 0 65 0 65 0 c 1
 65 0 65 465 65 465 c 1
EndSplineSet
EndChar

StartChar: iogonek
Encoding: 303 303 182
Width: 161
GlyphClass: 2
Flags: MW
HStem: -161 58<91 164> 0 21G<44 59 44 44 117 117> 445 20G<44 117 117 117> 555 84<42 120 42 120>
VStem: 42 78<555 639 555 639> 44 73<0 465>
LayerCount: 2
Back
Fore
SplineSet
42 555 m 1xf8
 42 555 42 639 42 639 c 1
 42 639 120 639 120 639 c 1
 120 639 120 555 120 555 c 1
 120 555 42 555 42 555 c 1xf8
117 0 m 1xf4
 107 -13 95 -34 95 -55 c 0
 95 -80 106 -103 135 -103 c 2
 135 -103 164 -103 164 -103 c 1
 164 -103 164 -149 164 -149 c 1
 145 -156 127 -161 110 -161 c 0
 72 -161 27 -142 27 -81 c 0
 27 -44 41 -20 59 0 c 1
 59 0 44 0 44 0 c 1
 44 0 44 465 44 465 c 1
 44 465 117 465 117 465 c 1
 117 465 117 0 117 0 c 1xf4
EndSplineSet
EndChar

StartChar: itilde
Encoding: 297 297 183
Width: 202
GlyphClass: 2
Flags: MW
HStem: 0 21G<65 137 65 65> 445 20G<65 137 137 137> 547 65<145.5 156.5 140.5 181.5> 547 92<20.5 23 -28 56.5 179 181.5> 575 64<45 56.5 20.5 61.5>
VStem: 65 72<0 465 0 465>
LayerCount: 2
Back
Fore
SplineSet
230 639 m 1xd4
 230 598 208 547 155 547 c 0xd4
 136 547 119 554 102 561 c 0
 86 568 70 575 53 575 c 0xcc
 37 575 26 568 23 547 c 1
 23 547 -28 547 -28 547 c 1
 -28 588 -6 639 47 639 c 0xd4
 66 639 83 632 100 625 c 0
 116 618 132 612 149 612 c 0xe4
 164 612 176 619 179 639 c 1
 179 639 230 639 230 639 c 1xd4
65 465 m 1
 65 465 137 465 137 465 c 1
 137 465 137 0 137 0 c 1
 137 0 65 0 65 0 c 1
 65 0 65 465 65 465 c 1
EndSplineSet
EndChar

StartChar: j
Encoding: 106 106 184
Width: 161
GlyphClass: 2
Flags: MW
HStem: -161 61<14.5 16.5 -36 60> -150 50<-36 3> 445 20G<44 117 117 117> 552 87<44 117 44 117>
VStem: 44 73<-57 -54 -54 465 552 639>
LayerCount: 2
Back
Fore
SplineSet
44 639 m 1xb8
 44 639 117 639 117 639 c 1
 117 639 117 552 117 552 c 1
 117 552 44 552 44 552 c 1
 44 552 44 639 44 639 c 1xb8
117 -54 m 2
 117 -107 95 -161 25 -161 c 0xb8
 4 -161 -21 -156 -36 -150 c 1x78
 -36 -150 -36 -100 -36 -100 c 1
 -36 -100 3 -100 3 -100 c 2
 30 -100 44 -85 44 -57 c 2
 44 -57 44 465 44 465 c 1
 44 465 117 465 117 465 c 1
 117 465 117 -54 117 -54 c 2
EndSplineSet
EndChar

StartChar: jcircumflex
Encoding: 309 309 185
Width: 161
GlyphClass: 2
Flags: MW
HStem: -161 61<14.5 16.5 -36 60> -150 50<-36 3> 445 20G<44 117 117 117> 519 119<-30 115 -30 115 46 120 46 191> 589 49<81 81>
VStem: 44 73<-57 -54 -54 465>
LayerCount: 2
Back
Fore
SplineSet
81 589 m 1xac
 81 589 41 519 41 519 c 1
 41 519 -30 519 -30 519 c 1
 -30 519 46 638 46 638 c 1
 46 638 115 638 115 638 c 1
 115 638 191 519 191 519 c 1
 191 519 120 519 120 519 c 1xb4
 120 519 81 589 81 589 c 1xac
117 -54 m 2
 117 -107 95 -161 25 -161 c 0xb4
 4 -161 -21 -156 -36 -150 c 1x74
 -36 -150 -36 -100 -36 -100 c 1
 -36 -100 3 -100 3 -100 c 2
 30 -100 44 -85 44 -57 c 2
 44 -57 44 465 44 465 c 1
 44 465 117 465 117 465 c 1
 117 465 117 -54 117 -54 c 2
EndSplineSet
EndChar

StartChar: k
Encoding: 107 107 186
Width: 362
GlyphClass: 2
Flags: MW
HStem: 0 21G<53 126 53 53 281 363 281 281> 445 20G<276 356 356 356> 619 20G<53 126 126 126>
VStem: 53 73<0 158 249 639>
AnchorPoint: "Anchor-1" 181 0 basechar 0
AnchorPoint: "Anchor-0" 0 0 basechar 0
LayerCount: 2
Back
Fore
SplineSet
356 465 m 1
 356 465 219 274 219 274 c 1
 219 274 363 0 363 0 c 1
 363 0 281 0 281 0 c 1
 281 0 175 212 175 212 c 1
 175 212 126 158 126 158 c 1
 126 158 126 0 126 0 c 1
 126 0 53 0 53 0 c 1
 53 0 53 639 53 639 c 1
 53 639 126 639 126 639 c 1
 126 639 126 249 126 249 c 1
 126 249 276 465 276 465 c 1
 276 465 356 465 356 465 c 1
EndSplineSet
EndChar

StartChar: kcommaaccent
Encoding: 311 311 187
Width: 362
GlyphClass: 2
Flags: MW
HStem: -133 80<144 174 144 219> 0 21G<53 126 53 53 281 363 281 281> 445 20G<276 356 356 356> 619 20G<53 126 126 126>
VStem: 53 73<0 158 249 639> 144 75<-127 -53 -127 -53 -127 -53>
LayerCount: 2
Back
Fore
SplineSet
356 465 m 1
 356 465 219 274 219 274 c 1
 219 274 363 0 363 0 c 1
 363 0 281 0 281 0 c 1
 281 0 175 212 175 212 c 1
 175 212 126 158 126 158 c 1
 126 158 126 0 126 0 c 1
 126 0 53 0 53 0 c 1
 53 0 53 639 53 639 c 1
 53 639 126 639 126 639 c 1
 126 639 126 249 126 249 c 1
 126 249 276 465 276 465 c 1
 276 465 356 465 356 465 c 1
154 -196 m 1xfc
 154 -196 174 -133 174 -133 c 1
 174 -133 144 -133 144 -133 c 1
 144 -133 144 -53 144 -53 c 1
 144 -53 219 -53 219 -53 c 1
 219 -53 219 -127 219 -127 c 1
 219 -127 194 -196 194 -196 c 1
 194 -196 154 -196 154 -196 c 1xfc
EndSplineSet
EndChar

StartChar: kgreenlandic
Encoding: 312 312 188
Width: 361
GlyphClass: 2
Flags: MW
HStem: 0 21G<53 126 53 53 281 363 281 281> 445 20G<53 126 126 126 276 356 356 356>
VStem: 53 73<0 158 249 465>
LayerCount: 2
Back
Fore
SplineSet
281 0 m 1
 281 0 175 212 175 212 c 1
 175 212 126 158 126 158 c 1
 126 158 126 0 126 0 c 1
 126 0 53 0 53 0 c 1
 53 0 53 465 53 465 c 1
 53 465 126 465 126 465 c 1
 126 465 126 249 126 249 c 1
 126 249 276 465 276 465 c 1
 276 465 356 465 356 465 c 1
 356 465 219 274 219 274 c 1
 219 274 363 0 363 0 c 1
 363 0 281 0 281 0 c 1
EndSplineSet
EndChar

StartChar: l
Encoding: 108 108 189
Width: 161
GlyphClass: 2
Flags: MW
HStem: 0 21G<44 117 44 44> 619 20G<44 117 117 117>
VStem: 44 73<0 639 0 639>
AnchorPoint: "Anchor-1" 80 0 basechar 0
AnchorPoint: "Anchor-0" 80 465 basechar 0
LayerCount: 2
Back
Fore
SplineSet
44 639 m 1
 44 639 117 639 117 639 c 1
 117 639 117 0 117 0 c 1
 117 0 44 0 44 0 c 1
 44 0 44 639 44 639 c 1
EndSplineSet
EndChar

StartChar: lacute
Encoding: 314 314 190
Width: 161
GlyphClass: 2
Flags: MW
HStem: 0 21G<44 44 44 117> 619 20G<44 117 117 117> 664 117<28 184 28 184>
VStem: 44 73<0 639 0 639>
LayerCount: 2
Back
Fore
SplineSet
89 664 m 1
 89 664 28 664 28 664 c 1
 28 664 104 781 104 781 c 1
 104 781 184 781 184 781 c 1
 184 781 184 778 184 778 c 1
 184 778 89 664 89 664 c 1
44 0 m 1
 44 0 44 639 44 639 c 1
 44 639 117 639 117 639 c 1xd0
 117 639 117 0 117 0 c 1
 117 0 44 0 44 0 c 1
EndSplineSet
EndChar

StartChar: lcaron
Encoding: 318 318 191
Width: 211
GlyphClass: 2
Flags: MW
HStem: 0 21G<44 117 44 44> 511 95<152 187 152 240> 511 128<44 187 44 152>
VStem: 44 73<0 639 0 639> 152 88<519 606 519 606 519 606>
LayerCount: 2
Back
Fore
SplineSet
44 639 m 1xb8
 44 639 117 639 117 639 c 1
 117 639 117 0 117 0 c 1
 117 0 44 0 44 0 c 1
 44 0 44 639 44 639 c 1xb8
152 401 m 1
 152 401 187 511 187 511 c 1
 187 511 152 511 152 511 c 1
 152 511 152 606 152 606 c 1
 152 606 240 606 240 606 c 1
 240 606 240 519 240 519 c 1xd8
 240 519 198 401 198 401 c 1
 198 401 152 401 152 401 c 1
EndSplineSet
EndChar

StartChar: lcommaaccent
Encoding: 316 316 192
Width: 161
GlyphClass: 2
Flags: MW
HStem: -133 80<43 73 43 118> 0 21G<44 117 44 44> 619 20G<44 117 117 117>
VStem: 44 73<0 639 0 639>
LayerCount: 2
Back
Fore
SplineSet
44 639 m 1
 44 639 117 639 117 639 c 1
 117 639 117 0 117 0 c 1
 117 0 44 0 44 0 c 1
 44 0 44 639 44 639 c 1
54 -196 m 1
 54 -196 73 -133 73 -133 c 1
 73 -133 43 -133 43 -133 c 1
 43 -133 43 -53 43 -53 c 1
 43 -53 118 -53 118 -53 c 1
 118 -53 118 -127 118 -127 c 1
 118 -127 93 -196 93 -196 c 1
 93 -196 54 -196 54 -196 c 1
EndSplineSet
EndChar

StartChar: ldot
Encoding: 320 320 193
Width: 286
GlyphClass: 2
Flags: MW
HStem: 0 21G<44 117 44 44> 255 98<152 241 152 241> 619 20G<44 117 117 117>
VStem: 44 73<0 639 0 639> 152 89<255 353 255 353>
LayerCount: 2
Back
Fore
SplineSet
44 639 m 1
 44 639 117 639 117 639 c 1
 117 639 117 0 117 0 c 1
 117 0 44 0 44 0 c 1
 44 0 44 639 44 639 c 1
152 353 m 1
 152 353 241 353 241 353 c 1
 241 353 241 255 241 255 c 1
 241 255 152 255 152 255 c 1
 152 255 152 353 152 353 c 1
EndSplineSet
Ligature2: "Ligature Substitution lookup 32 subtable" l periodcentered
EndChar

StartChar: lslash
Encoding: 322 322 194
Width: 161
GlyphClass: 2
Flags: MW
HStem: 0 21G<44 117 44 44> 619 20G<44 117 117 117>
VStem: 44 73<0 217 217 217 281 282 0 346 346 639>
LayerCount: 2
Back
Fore
SplineSet
194 350 m 1
 194 350 117 282 117 282 c 1
 117 282 117 0 117 0 c 1
 117 0 44 0 44 0 c 1
 44 0 44 217 44 217 c 1
 44 217 -19 163 -19 163 c 1
 -19 163 -19 225 -19 225 c 1
 -19 225 44 281 44 281 c 1
 44 281 44 639 44 639 c 1
 44 639 117 639 117 639 c 1
 117 639 117 346 117 346 c 1
 117 346 194 414 194 414 c 1
 194 414 194 350 194 350 c 1
EndSplineSet
EndChar

StartChar: m
Encoding: 109 109 195
Width: 604
GlyphClass: 2
Flags: MW
HStem: 0 21G<53 126 53 53 266 339 266 266 478 551 478 478> 411 65<207 223 419 435.5> 445 20G<53 108 108 108>
VStem: 53 73<0 284 0 465> 266 73<0 284 0 330 0 362> 478 73<0 330 330 335 0 362>
LayerCount: 2
Back
Fore
SplineSet
441 476 m 0xdc
 507 476 551 438 551 335 c 2
 551 335 551 0 551 0 c 1
 551 0 478 0 478 0 c 1
 478 0 478 330 478 330 c 2
 478 394 453 411 418 411 c 0
 375 411 339 364 339 284 c 2
 339 284 339 0 339 0 c 1
 339 0 266 0 266 0 c 1
 266 0 266 330 266 330 c 2
 266 394 240 411 206 411 c 0xdc
 163 411 126 364 126 284 c 2
 126 284 126 0 126 0 c 1
 126 0 53 0 53 0 c 1
 53 0 53 465 53 465 c 1
 53 465 108 465 108 465 c 1xbc
 108 465 118 411 118 411 c 1
 118 411 123 411 123 411 c 1
 148 457 185 476 229 476 c 0
 275 476 311 456 328 408 c 1
 353 453 397 476 441 476 c 0xdc
EndSplineSet
EndChar

StartChar: n
Encoding: 110 110 196
Width: 403
GlyphClass: 2
Flags: MW
HStem: 0 21G<53 126 53 53 278 350 278 278> 411 65<212 231.5> 445 20G<53 108 108 108>
VStem: 53 73<0 284 0 465> 278 72<0 330 330 335 0 362>
AnchorPoint: "Anchor-1" 202 0 basechar 0
AnchorPoint: "Anchor-0" 202 465 basechar 0
LayerCount: 2
Back
Fore
SplineSet
235 476 m 0xd8
 305 476 350 438 350 335 c 2
 350 335 350 0 350 0 c 1
 350 0 278 0 278 0 c 1
 278 0 278 330 278 330 c 2
 278 394 251 411 212 411 c 0xd8
 166 411 126 364 126 284 c 2
 126 284 126 0 126 0 c 1
 126 0 53 0 53 0 c 1
 53 0 53 465 53 465 c 1
 53 465 108 465 108 465 c 1xb8
 108 465 118 411 118 411 c 1
 118 411 123 411 123 411 c 1
 149 457 189 476 235 476 c 0xd8
EndSplineSet
Substitution2: "'sups' Superscript lookup 10 subtable" nsuperior
Substitution2: "'aalt' Access All Alternates lookup 0 subtable" nsuperior
EndChar

StartChar: nacute
Encoding: 324 324 197
Width: 403
GlyphClass: 2
Flags: MW
HStem: 0 21G<53 126 53 53 278 350 278 278> 411 65<212 231.5> 445 20G<53 108 108 108> 522 117<149 304 149 304>
VStem: 53 73<0 284 0 465> 278 72<0 330 330 335 0 362>
LayerCount: 2
Back
Fore
SplineSet
210 522 m 1xdc
 210 522 149 522 149 522 c 1
 149 522 225 639 225 639 c 1
 225 639 304 639 304 639 c 1
 304 639 305 636 305 636 c 1
 305 636 210 522 210 522 c 1xdc
235 476 m 0
 305 476 350 438 350 335 c 2
 350 335 350 0 350 0 c 1
 350 0 278 0 278 0 c 1
 278 0 278 330 278 330 c 2
 278 394 251 411 212 411 c 0xdc
 166 411 126 364 126 284 c 2
 126 284 126 0 126 0 c 1
 126 0 53 0 53 0 c 1
 53 0 53 465 53 465 c 1
 53 465 108 465 108 465 c 1xbc
 108 465 118 411 118 411 c 1
 118 411 123 411 123 411 c 1
 149 457 189 476 235 476 c 0
EndSplineSet
EndChar

StartChar: napostrophe
Encoding: 329 329 198
Width: 507
GlyphClass: 2
Flags: MW
HStem: 0 21G<156 229 156 156 381 453 381 381> 411 65<316 334.5> 445 20G<156 211 211 211> 525 81<42 72 42 118>
VStem: 42 76<531 606 531 606 531 606> 156 73<0 284 0 465> 381 72<0 330 330 335 0 362>
LayerCount: 2
Back
Fore
SplineSet
92 462 m 1xde
 92 462 52 462 52 462 c 1
 52 462 72 525 72 525 c 1
 72 525 42 525 42 525 c 1
 42 525 42 606 42 606 c 1
 42 606 118 606 118 606 c 1
 118 606 118 531 118 531 c 1
 118 531 92 462 92 462 c 1xde
339 476 m 0
 408 476 453 438 453 335 c 2
 453 335 453 0 453 0 c 1
 453 0 381 0 381 0 c 1
 381 0 381 330 381 330 c 2
 381 394 354 411 315 411 c 0xde
 270 411 229 364 229 284 c 2
 229 284 229 0 229 0 c 1
 229 0 156 0 156 0 c 1
 156 0 156 465 156 465 c 1
 156 465 211 465 211 465 c 1xbe
 211 465 221 411 221 411 c 1
 221 411 226 411 226 411 c 1
 252 457 293 476 339 476 c 0
EndSplineSet
EndChar

StartChar: ncaron
Encoding: 328 328 199
Width: 403
GlyphClass: 2
Flags: MW
HStem: 0 21G<53 126 53 53 278 350 278 278> 411 65<212 231.5> 445 20G<53 108 108 108> 520 119<92 236 92 166>
VStem: 53 73<0 284 0 465> 278 72<0 330 330 335 0 362>
LayerCount: 2
Back
Fore
SplineSet
92 639 m 1xdc
 92 639 163 639 163 639 c 1
 163 639 202 569 202 569 c 1
 202 569 241 639 241 639 c 1
 241 639 312 639 312 639 c 1
 312 639 236 520 236 520 c 1
 236 520 166 520 166 520 c 1
 166 520 92 639 92 639 c 1xdc
235 476 m 0
 305 476 350 438 350 335 c 2
 350 335 350 0 350 0 c 1
 350 0 278 0 278 0 c 1
 278 0 278 330 278 330 c 2
 278 394 251 411 212 411 c 0xdc
 166 411 126 364 126 284 c 2
 126 284 126 0 126 0 c 1
 126 0 53 0 53 0 c 1
 53 0 53 465 53 465 c 1
 53 465 108 465 108 465 c 1xbc
 108 465 118 411 118 411 c 1
 118 411 123 411 123 411 c 1
 149 457 189 476 235 476 c 0
EndSplineSet
EndChar

StartChar: ncommaaccent
Encoding: 326 326 200
Width: 403
GlyphClass: 2
Flags: MW
HStem: -133 80<164 194 164 240> 0 21G<53 126 53 53 278 350 278 278> 411 65<212 231.5> 445 20G<53 108 108 108>
VStem: 53 73<0 284 0 465> 164 76<-127 -53 -127 -53 -127 -53> 278 72<0 330 330 335 0 362>
LayerCount: 2
Back
Fore
SplineSet
235 476 m 0xee
 305 476 350 438 350 335 c 2
 350 335 350 0 350 0 c 1
 350 0 278 0 278 0 c 1
 278 0 278 330 278 330 c 2
 278 394 251 411 212 411 c 0xee
 166 411 126 364 126 284 c 2
 126 284 126 0 126 0 c 1
 126 0 53 0 53 0 c 1
 53 0 53 465 53 465 c 1
 53 465 108 465 108 465 c 1xde
 108 465 118 411 118 411 c 1
 118 411 123 411 123 411 c 1
 149 457 189 476 235 476 c 0xee
174 -196 m 1
 174 -196 194 -133 194 -133 c 1
 194 -133 164 -133 164 -133 c 1
 164 -133 164 -53 164 -53 c 1
 164 -53 240 -53 240 -53 c 1
 240 -53 240 -127 240 -127 c 1
 240 -127 214 -196 214 -196 c 1
 214 -196 174 -196 174 -196 c 1
EndSplineSet
EndChar

StartChar: eng
Encoding: 331 331 201
Width: 403
GlyphClass: 2
Flags: MW
HStem: -161 61<247.5 249.5 197 293.5> -150 50<197 236> 0 21G<53 126 53 53> 411 65<212 231.5> 445 20G<53 108 108 108>
VStem: 53 73<0 284 0 465> 278 72<-57 -54 -54 330 330 335>
LayerCount: 2
Back
Fore
SplineSet
235 476 m 0xb6
 305 476 350 438 350 335 c 2
 350 335 350 -54 350 -54 c 2
 350 -107 329 -161 258 -161 c 0xb6
 237 -161 212 -156 197 -150 c 1x76
 197 -150 197 -100 197 -100 c 1
 197 -100 236 -100 236 -100 c 2
 263 -100 278 -85 278 -57 c 2
 278 -57 278 330 278 330 c 2
 278 394 251 411 212 411 c 0xb6
 166 411 126 364 126 284 c 2
 126 284 126 0 126 0 c 1
 126 0 53 0 53 0 c 1
 53 0 53 465 53 465 c 1
 53 465 108 465 108 465 c 1xae
 108 465 118 411 118 411 c 1
 118 411 123 411 123 411 c 1
 149 457 189 476 235 476 c 0xb6
EndSplineSet
EndChar

StartChar: ntilde
Encoding: 241 241 202
Width: 403
GlyphClass: 2
Flags: MW
HStem: 0 21G<53 126 53 53 278 350 278 278> 411 65<212 231.5> 445 20G<53 108 108 108> 547 65<245 257 240.5 282> 547 92<121.5 124 72 158 279 282> 575 64<146 158 121.5 162.5>
VStem: 53 73<0 284 0 465> 278 72<0 330 330 335 0 362>
LayerCount: 2
Back
Fore
SplineSet
331 639 m 1xcb
 331 598 309 547 255 547 c 0xcb
 235 547 218 554 202 562 c 0
 186 568 171 575 154 575 c 0xc7
 138 575 126 568 124 547 c 1
 124 547 72 547 72 547 c 1
 72 588 95 639 148 639 c 0xcb
 168 639 185 632 201 625 c 0
 217 618 232 612 249 612 c 0xd3
 265 612 277 619 279 639 c 1
 279 639 331 639 331 639 c 1xcb
235 476 m 0
 305 476 350 438 350 335 c 2
 350 335 350 0 350 0 c 1
 350 0 278 0 278 0 c 1
 278 0 278 330 278 330 c 2
 278 394 251 411 212 411 c 0xcb
 166 411 126 364 126 284 c 2
 126 284 126 0 126 0 c 1
 126 0 53 0 53 0 c 1
 53 0 53 465 53 465 c 1
 53 465 108 465 108 465 c 1xab
 108 465 118 411 118 411 c 1
 118 411 123 411 123 411 c 1
 149 457 189 476 235 476 c 0
EndSplineSet
EndChar

StartChar: o
Encoding: 111 111 203
Width: 403
GlyphClass: 2
Flags: MW
HStem: -11 65<171.5 232 171.5 256> 411 65<171.5 232>
VStem: 35 76<162.5 216 216 249 162.5 316> 292 76<216 249 249 302.5>
AnchorPoint: "Anchor-1" 0 0 basechar 0
AnchorPoint: "Anchor-0" 202 465 basechar 0
LayerCount: 2
Back
Fore
SplineSet
202 476 m 0
 310 476 368 400 368 232 c 0
 368 65 310 -11 202 -11 c 0
 93 -11 35 65 35 232 c 0
 35 400 93 476 202 476 c 0
202 411 m 0
 141 411 111 356 111 249 c 2
 111 249 111 216 111 216 c 2
 111 109 141 54 202 54 c 0
 262 54 292 109 292 216 c 2
 292 216 292 249 292 249 c 2
 292 356 262 411 202 411 c 0
EndSplineSet
Substitution2: "Single Substitution lookup 33 subtable" ordmasculine
Substitution2: "'aalt' Access All Alternates lookup 0 subtable" ordmasculine
EndChar

StartChar: oacute
Encoding: 243 243 204
Width: 403
GlyphClass: 2
Flags: MW
HStem: -11 65<171.5 232 171.5 256> 411 65<171.5 232> 522 117<149 304 149 304>
VStem: 35 76<162.5 216 216 249 162.5 316> 292 76<216 249 249 302.5>
LayerCount: 2
Back
Fore
SplineSet
210 522 m 1
 210 522 149 522 149 522 c 1
 149 522 225 639 225 639 c 1
 225 639 304 639 304 639 c 1
 304 639 305 636 305 636 c 1
 305 636 210 522 210 522 c 1
202 476 m 0
 310 476 368 400 368 232 c 0
 368 65 310 -11 202 -11 c 0
 93 -11 35 65 35 232 c 0
 35 400 93 476 202 476 c 0
202 411 m 0
 141 411 111 356 111 249 c 2
 111 249 111 216 111 216 c 2
 111 109 141 54 202 54 c 0
 262 54 292 109 292 216 c 2
 292 216 292 249 292 249 c 2
 292 356 262 411 202 411 c 0
EndSplineSet
EndChar

StartChar: obreve
Encoding: 335 335 205
Width: 403
GlyphClass: 2
Flags: MW
HStem: -11 65<171.5 232 171.5 256> 411 65<171.5 232> 553 57<186.5 217 186.5 236> 553 86<92 236>
VStem: 35 76<162.5 216 216 249 162.5 316> 292 76<216 249 249 302.5>
LayerCount: 2
Back
Fore
SplineSet
311 639 m 1xdc
 311 599 270 553 202 553 c 0xec
 134 553 92 599 92 639 c 1
 92 639 149 639 149 639 c 1xdc
 152 627 171 610 202 610 c 0xec
 232 610 253 627 255 639 c 1
 255 639 311 639 311 639 c 1xdc
202 476 m 0xec
 310 476 368 400 368 232 c 0
 368 65 310 -11 202 -11 c 0
 93 -11 35 65 35 232 c 0
 35 400 93 476 202 476 c 0xec
202 411 m 0
 141 411 111 356 111 249 c 2
 111 249 111 216 111 216 c 2
 111 109 141 54 202 54 c 0
 262 54 292 109 292 216 c 2
 292 216 292 249 292 249 c 2
 292 356 262 411 202 411 c 0
EndSplineSet
EndChar

StartChar: ocircumflex
Encoding: 244 244 206
Width: 403
GlyphClass: 2
Flags: MW
HStem: -11 65<171.5 232 171.5 256> 411 65<171.5 232> 519 119<92 237 92 237 167 241 167 312> 589 49<202 202>
VStem: 35 76<162.5 216 216 249 162.5 316> 292 76<216 249 249 302.5>
LayerCount: 2
Back
Fore
SplineSet
202 589 m 1xdc
 202 589 163 519 163 519 c 1
 163 519 92 519 92 519 c 1
 92 519 167 638 167 638 c 1
 167 638 237 638 237 638 c 1
 237 638 312 519 312 519 c 1
 312 519 241 519 241 519 c 1xec
 241 519 202 589 202 589 c 1xdc
202 476 m 0
 310 476 368 400 368 232 c 0
 368 65 310 -11 202 -11 c 0
 93 -11 35 65 35 232 c 0
 35 400 93 476 202 476 c 0
202 411 m 0
 141 411 111 356 111 249 c 2
 111 249 111 216 111 216 c 2
 111 109 141 54 202 54 c 0
 262 54 292 109 292 216 c 2
 292 216 292 249 292 249 c 2
 292 356 262 411 202 411 c 0
EndSplineSet
EndChar

StartChar: odieresis
Encoding: 246 246 207
Width: 403
GlyphClass: 2
Flags: MW
HStem: -11 65<171.5 232 171.5 256> 411 65<171.5 232> 555 84<96 173 96 173 229 307 96 229>
VStem: 35 76<162.5 216 216 249 162.5 316> 96 77<555 639 555 639> 229 78<555 639 555 639> 292 76<216 249 249 302.5>
LayerCount: 2
Back
Fore
SplineSet
96 555 m 1xec
 96 555 96 639 96 639 c 1
 96 639 173 639 173 639 c 1
 173 639 173 555 173 555 c 1
 173 555 96 555 96 555 c 1xec
229 555 m 1
 229 555 229 639 229 639 c 1
 229 639 307 639 307 639 c 1
 307 639 307 555 307 555 c 1
 307 555 229 555 229 555 c 1
202 476 m 0xf2
 310 476 368 400 368 232 c 0
 368 65 310 -11 202 -11 c 0
 93 -11 35 65 35 232 c 0
 35 400 93 476 202 476 c 0xf2
202 411 m 0
 141 411 111 356 111 249 c 2
 111 249 111 216 111 216 c 2
 111 109 141 54 202 54 c 0
 262 54 292 109 292 216 c 2
 292 216 292 249 292 249 c 2
 292 356 262 411 202 411 c 0
EndSplineSet
EndChar

StartChar: ograve
Encoding: 242 242 208
Width: 403
GlyphClass: 2
Flags: MW
HStem: -11 65<171.5 232 171.5 256> 411 65<171.5 232> 522 117<98 194 98 255>
VStem: 35 76<162.5 216 216 249 162.5 316> 292 76<216 249 249 302.5>
LayerCount: 2
Back
Fore
SplineSet
194 522 m 1
 194 522 97 636 97 636 c 1
 97 636 98 639 98 639 c 1
 98 639 179 639 179 639 c 1
 179 639 255 522 255 522 c 1
 255 522 194 522 194 522 c 1
202 476 m 0
 310 476 368 400 368 232 c 0
 368 65 310 -11 202 -11 c 0
 93 -11 35 65 35 232 c 0
 35 400 93 476 202 476 c 0
202 411 m 0
 141 411 111 356 111 249 c 2
 111 249 111 216 111 216 c 2
 111 109 141 54 202 54 c 0
 262 54 292 109 292 216 c 2
 292 216 292 249 292 249 c 2
 292 356 262 411 202 411 c 0
EndSplineSet
EndChar

StartChar: ohungarumlaut
Encoding: 337 337 209
Width: 403
GlyphClass: 2
Flags: MW
HStem: -11 65<171.5 232 171.5 256> 411 65<171.5 232> 522 117<117 251 171 178 232 251 287 293 232 232>
VStem: 35 76<162.5 216 216 249 162.5 316> 292 76<216 249 249 302.5>
LayerCount: 2
Back
Fore
SplineSet
117 522 m 1
 117 522 171 639 171 639 c 1
 171 639 251 639 251 639 c 1
 251 639 252 636 252 636 c 1
 252 636 178 522 178 522 c 1
 178 522 117 522 117 522 c 1
232 522 m 1
 232 522 287 639 287 639 c 1
 287 639 367 639 367 639 c 1
 367 639 368 636 368 636 c 1
 368 636 293 522 293 522 c 1
 293 522 232 522 232 522 c 1
202 476 m 0
 310 476 368 400 368 232 c 0
 368 65 310 -11 202 -11 c 0
 93 -11 35 65 35 232 c 0
 35 400 93 476 202 476 c 0
202 411 m 0
 141 411 111 356 111 249 c 2
 111 249 111 216 111 216 c 2
 111 109 141 54 202 54 c 0
 262 54 292 109 292 216 c 2
 292 216 292 249 292 249 c 2
 292 356 262 411 202 411 c 0
EndSplineSet
EndChar

StartChar: omacron
Encoding: 333 333 210
Width: 403
GlyphClass: 2
Flags: MW
HStem: -11 65<171.5 232 171.5 256> 411 65<171.5 232> 530 63<91 313 91 313>
VStem: 35 76<162.5 216 216 249 162.5 316> 91 222<530 593 530 593> 292 76<216 249 249 302.5>
LayerCount: 2
Back
Fore
SplineSet
91 593 m 1xe8
 91 593 313 593 313 593 c 1
 313 593 313 530 313 530 c 1
 313 530 91 530 91 530 c 1
 91 530 91 593 91 593 c 1xe8
202 476 m 0xf4
 310 476 368 400 368 232 c 0
 368 65 310 -11 202 -11 c 0
 93 -11 35 65 35 232 c 0
 35 400 93 476 202 476 c 0xf4
202 411 m 0
 141 411 111 356 111 249 c 2
 111 249 111 216 111 216 c 2
 111 109 141 54 202 54 c 0
 262 54 292 109 292 216 c 2
 292 216 292 249 292 249 c 2
 292 356 262 411 202 411 c 0
EndSplineSet
EndChar

StartChar: oslash
Encoding: 248 248 211
Width: 443
GlyphClass: 2
Flags: MW
HStem: -11 65<208.5 251 208.5 275.5> 411 65<191 233>
VStem: 55 76<198.5 216 216 249 198.5 316> 311 76<216 249 249 266.5>
AnchorPoint: "Anchor-1" 0 0 basechar 0
AnchorPoint: "Anchor-0" 222 465 basechar 0
LayerCount: 2
Back
Fore
SplineSet
345 416 m 1
 373 377 387 316 387 232 c 0
 387 65 330 -11 221 -11 c 0
 184 -11 152 -2 127 17 c 1
 127 17 103 -28 103 -28 c 1
 103 -28 55 -28 55 -28 c 1
 55 -28 96 49 96 49 c 1
 69 88 55 149 55 232 c 0
 55 400 112 476 221 476 c 0
 258 476 289 467 314 448 c 1
 314 448 339 493 339 493 c 1
 339 493 387 493 387 493 c 1
 387 493 345 416 345 416 c 1
221 411 m 0
 161 411 131 356 131 249 c 2
 131 249 131 216 131 216 c 2
 131 181 133 152 140 128 c 1
 140 128 279 385 279 385 c 1
 264 402 245 411 221 411 c 0
163 80 m 1
 177 63 196 54 221 54 c 0
 281 54 311 109 311 216 c 2
 311 216 311 249 311 249 c 2
 311 284 308 313 301 336 c 1
 301 336 163 80 163 80 c 1
EndSplineSet
EndChar

StartChar: oslashacute
Encoding: 511 511 212
Width: 443
GlyphClass: 2
Flags: MW
HStem: -11 65<208.5 251 208.5 275.5> 411 65<191 233> 522 117<169 324 169 324>
VStem: 55 76<198.5 216 216 249 198.5 316> 311 76<216 249 249 266.5>
LayerCount: 2
Back
Fore
SplineSet
230 522 m 1
 230 522 169 522 169 522 c 1
 169 522 245 639 245 639 c 1
 245 639 324 639 324 639 c 1
 324 639 325 636 325 636 c 1
 325 636 230 522 230 522 c 1
345 416 m 1
 373 377 387 316 387 232 c 0
 387 65 330 -11 221 -11 c 0
 184 -11 152 -2 127 17 c 1
 127 17 103 -28 103 -28 c 1
 103 -28 55 -28 55 -28 c 1
 55 -28 96 49 96 49 c 1
 69 88 55 149 55 232 c 0
 55 400 112 476 221 476 c 0
 258 476 289 467 314 448 c 1
 314 448 339 493 339 493 c 1
 339 493 387 493 387 493 c 1
 387 493 345 416 345 416 c 1
221 411 m 0
 161 411 131 356 131 249 c 2
 131 249 131 216 131 216 c 2
 131 181 133 152 140 128 c 1
 140 128 279 385 279 385 c 1
 264 402 245 411 221 411 c 0
163 80 m 1
 177 63 196 54 221 54 c 0
 281 54 311 109 311 216 c 2
 311 216 311 249 311 249 c 2
 311 284 308 313 301 336 c 1
 301 336 163 80 163 80 c 1
EndSplineSet
EndChar

StartChar: otilde
Encoding: 245 245 213
Width: 403
GlyphClass: 2
Flags: MW
HStem: -11 65<171.5 232 171.5 256> 411 65<171.5 232> 547 65<245 257 240.5 282> 547 92<121.5 124 72 158 279 282> 575 64<146 158 121.5 162.5>
VStem: 35 76<162.5 216 216 249 162.5 316> 292 76<216 249 249 302.5>
LayerCount: 2
Back
Fore
SplineSet
331 639 m 1xd6
 331 598 309 547 255 547 c 0xd6
 235 547 218 554 202 562 c 0
 186 568 171 575 154 575 c 0xce
 138 575 126 568 124 547 c 1
 124 547 72 547 72 547 c 1
 72 588 95 639 148 639 c 0xd6
 168 639 185 632 201 625 c 0
 217 618 232 612 249 612 c 0xe6
 265 612 277 619 279 639 c 1
 279 639 331 639 331 639 c 1xd6
202 476 m 0
 310 476 368 400 368 232 c 0
 368 65 310 -11 202 -11 c 0
 93 -11 35 65 35 232 c 0
 35 400 93 476 202 476 c 0
202 411 m 0
 141 411 111 356 111 249 c 2
 111 249 111 216 111 216 c 2
 111 109 141 54 202 54 c 0
 262 54 292 109 292 216 c 2
 292 216 292 249 292 249 c 2
 292 356 262 411 202 411 c 0
EndSplineSet
EndChar

StartChar: oe
Encoding: 339 339 214
Width: 684
GlyphClass: 2
Flags: MW
HStem: -11 65<183 242 449.5 506> 211 65<382 557 382 633 381 557> 411 65<183 242 158.5 243 448.5 505>
VStem: 47 76<162.5 216 216 249 162.5 316> 303 78<211 249 211 302.5> 557 76
AnchorPoint: "Anchor-1" 0 0 basechar 0
AnchorPoint: "Anchor-0" 342 465 basechar 0
LayerCount: 2
Back
Fore
SplineSet
480 476 m 0
 582 476 633 413 633 257 c 2
 633 257 633 211 633 211 c 1
 633 211 381 211 381 211 c 1
 382 103 414 54 483 54 c 0
 529 54 561 94 561 158 c 1
 561 158 633 158 633 158 c 1
 633 54 571 -11 481 -11 c 0
 418 -11 371 10 342 57 c 1
 315 11 271 -11 213 -11 c 0
 104 -11 47 65 47 232 c 0
 47 400 104 476 213 476 c 0
 271 476 315 453 342 408 c 1
 371 453 417 476 480 476 c 0
213 411 m 0
 153 411 123 356 123 249 c 2
 123 249 123 216 123 216 c 2
 123 109 153 54 213 54 c 0
 273 54 303 109 303 216 c 2
 303 216 303 249 303 249 c 2
 303 356 273 411 213 411 c 0
480 411 m 0
 415 411 388 365 382 276 c 1
 382 276 557 276 557 276 c 1
 557 364 530 411 480 411 c 0
EndSplineSet
EndChar

StartChar: p
Encoding: 112 112 215
Width: 403
GlyphClass: 2
Flags: MW
HStem: -153 21G<53 126 53 53> -11 65<206.5 236.5 181 267.5> 411 54<53 122 53 122> 411 65<202.5 236.5>
VStem: 53 73<-153 41 162.5 216 216 249> 292 76<216 249 249 307>
LayerCount: 2
Back
Fore
SplineSet
224 476 m 0xdc
 312 476 368 402 368 232 c 0
 368 63 306 -11 229 -11 c 0
 184 -11 146 9 130 41 c 1
 130 41 126 41 126 41 c 1
 126 41 126 -153 126 -153 c 1
 126 -153 53 -153 53 -153 c 1
 53 -153 53 465 53 465 c 1
 53 465 108 465 108 465 c 1xec
 108 465 118 411 118 411 c 1
 118 411 122 411 122 411 c 1
 144 453 181 476 224 476 c 0xdc
209 411 m 0
 153 411 126 356 126 249 c 2
 126 249 126 216 126 216 c 2
 126 109 153 54 209 54 c 0
 264 54 292 100 292 216 c 2
 292 216 292 249 292 249 c 2
 292 365 264 411 209 411 c 0
EndSplineSet
EndChar

StartChar: thorn
Encoding: 254 254 216
Width: 403
GlyphClass: 2
Flags: MW
HStem: -153 21G<53 126 53 53> -11 65<206.5 236.5 181 267.5> 411 65<203.5 236.5> 619 20G<53 126 126 126>
VStem: 53 73<-153 41 162.5 216 216 249 424 639> 292 76<216 249 249 307>
LayerCount: 2
Back
Fore
SplineSet
129 423 m 1
 148 455 183 476 224 476 c 0
 312 476 368 402 368 232 c 0
 368 63 306 -11 229 -11 c 0
 184 -11 146 9 130 41 c 1
 130 41 126 41 126 41 c 1
 126 41 126 -153 126 -153 c 1
 126 -153 53 -153 53 -153 c 1
 53 -153 53 639 53 639 c 1
 53 639 126 639 126 639 c 1
 126 639 126 424 126 424 c 1
 126 424 129 423 129 423 c 1
209 411 m 0
 153 411 126 356 126 249 c 2
 126 249 126 216 126 216 c 2
 126 109 153 54 209 54 c 0
 264 54 292 100 292 216 c 2
 292 216 292 249 292 249 c 2
 292 365 264 411 209 411 c 0
EndSplineSet
EndChar

StartChar: q
Encoding: 113 113 217
Width: 403
GlyphClass: 2
Flags: MW
HStem: -153 21G<278 350 278 278> -11 65<166.5 196.5> 411 54<281 350 286 350> 411 65<166.5 200.5 135 222>
VStem: 35 76<158 216 216 249 158 317> 278 72<-153 41 41 41 216 249 249 302.5>
LayerCount: 2
Back
Fore
SplineSet
179 476 m 0xdc
 222 476 259 453 281 411 c 1
 281 411 286 411 286 411 c 1xdc
 286 411 295 465 295 465 c 1
 295 465 350 465 350 465 c 1xec
 350 465 350 -153 350 -153 c 1
 350 -153 278 -153 278 -153 c 1
 278 -153 278 41 278 41 c 1
 278 41 273 41 273 41 c 1
 257 9 219 -11 174 -11 c 0
 97 -11 35 63 35 232 c 0
 35 402 91 476 179 476 c 0xdc
194 411 m 0
 139 411 111 365 111 249 c 2
 111 249 111 216 111 216 c 2
 111 100 139 54 194 54 c 0
 250 54 278 109 278 216 c 2
 278 216 278 249 278 249 c 2
 278 356 250 411 194 411 c 0
EndSplineSet
EndChar

StartChar: r
Encoding: 114 114 218
Width: 241
GlyphClass: 2
Flags: MW
HStem: 0 21G<53 126 53 53> 393 83<189 211.5 179.5 212 179.5 236> 445 20G<53 108 108 108> 449 20G<236 236>
VStem: 53 73<0 284 0 465>
AnchorPoint: "Anchor-1" 121 0 basechar 0
AnchorPoint: "Anchor-0" 121 465 basechar 0
LayerCount: 2
Back
Fore
SplineSet
202 476 m 0xc8
 221 476 236 469 236 469 c 1x98
 236 469 236 393 236 393 c 1
 236 393 212 393 212 393 c 2xc8
 166 393 126 366 126 284 c 2
 126 284 126 0 126 0 c 1
 126 0 53 0 53 0 c 1
 53 0 53 465 53 465 c 1
 53 465 108 465 108 465 c 1xa8
 108 465 118 404 118 404 c 1
 118 404 123 404 123 404 c 1
 134 439 157 476 202 476 c 0xc8
EndSplineSet
EndChar

StartChar: racute
Encoding: 341 341 219
Width: 241
GlyphClass: 2
Flags: MW
HStem: 0 21G<53 126 53 53> 393 83<189 211.5 179.5 212 179.5 236> 445 20G<53 108 108 108> 449 20G<236 236> 522 117<29 185 29 185>
VStem: 53 73<0 284 0 465>
LayerCount: 2
Back
Fore
SplineSet
91 522 m 1x9c
 91 522 29 522 29 522 c 1
 29 522 105 639 105 639 c 1
 105 639 185 639 185 639 c 1
 185 639 186 636 186 636 c 1
 186 636 91 522 91 522 c 1x9c
202 476 m 0xcc
 221 476 236 469 236 469 c 1x9c
 236 469 236 393 236 393 c 1
 236 393 212 393 212 393 c 2xcc
 166 393 126 366 126 284 c 2
 126 284 126 0 126 0 c 1
 126 0 53 0 53 0 c 1
 53 0 53 465 53 465 c 1
 53 465 108 465 108 465 c 1xac
 108 465 118 404 118 404 c 1
 118 404 123 404 123 404 c 1
 134 439 157 476 202 476 c 0xcc
EndSplineSet
EndChar

StartChar: rcaron
Encoding: 345 345 220
Width: 241
GlyphClass: 2
Flags: MW
HStem: 0 21G<53 126 53 53> 393 83<189 211.5 179.5 212 179.5 236> 445 20G<53 108 108 108> 449 20G<236 236> 520 119<-3 142 -3 73>
VStem: 53 73<0 284 0 465>
LayerCount: 2
Back
Fore
SplineSet
-3 639 m 1x9c
 -3 639 69 639 69 639 c 1
 69 639 108 569 108 569 c 1
 108 569 148 639 148 639 c 1
 148 639 218 639 218 639 c 1
 218 639 142 520 142 520 c 1
 142 520 73 520 73 520 c 1
 73 520 -3 639 -3 639 c 1x9c
202 476 m 0xcc
 221 476 236 469 236 469 c 1x9c
 236 469 236 393 236 393 c 1
 236 393 212 393 212 393 c 2xcc
 166 393 126 366 126 284 c 2
 126 284 126 0 126 0 c 1
 126 0 53 0 53 0 c 1
 53 0 53 465 53 465 c 1
 53 465 108 465 108 465 c 1xac
 108 465 118 404 118 404 c 1
 118 404 123 404 123 404 c 1
 134 439 157 476 202 476 c 0xcc
EndSplineSet
EndChar

StartChar: rcommaaccent
Encoding: 343 343 221
Width: 241
GlyphClass: 2
Flags: MW
HStem: -133 80<58 89 58 134> 0 21G<53 126 53 53> 393 83<189 211.5 179.5 212 179.5 236> 445 20G<53 108 108 108> 449 20G<236 236>
VStem: 53 73<0 284 0 465> 58 76<-127 -53 -127 -53 -127 -53>
LayerCount: 2
Back
Fore
SplineSet
202 476 m 0xe4
 221 476 236 469 236 469 c 1xcc
 236 469 236 393 236 393 c 1
 236 393 212 393 212 393 c 2xe4
 166 393 126 366 126 284 c 2
 126 284 126 0 126 0 c 1
 126 0 53 0 53 0 c 1
 53 0 53 465 53 465 c 1
 53 465 108 465 108 465 c 1xd4
 108 465 118 404 118 404 c 1
 118 404 123 404 123 404 c 1
 134 439 157 476 202 476 c 0xe4
69 -196 m 1
 69 -196 89 -133 89 -133 c 1xcc
 89 -133 58 -133 58 -133 c 1
 58 -133 58 -53 58 -53 c 1xca
 58 -53 134 -53 134 -53 c 1
 134 -53 134 -127 134 -127 c 1xcc
 134 -127 109 -196 109 -196 c 1
 109 -196 69 -196 69 -196 c 1
EndSplineSet
EndChar

StartChar: s
Encoding: 115 115 222
Width: 362
GlyphClass: 2
Flags: MW
HStem: -11 64<161 201 161 221.5> 412 64<152 202.5>
VStem: 29 77<107 130.5> 40 75<326 361 326 384> 242 76<331 382.5 346 357.5> 252 75<99.5 148.5>
AnchorPoint: "Anchor-1" 181 0 basechar 0
AnchorPoint: "Anchor-0" 181 465 basechar 0
LayerCount: 2
Back
Fore
SplineSet
185 476 m 0xd8
 271 476 318 417 318 348 c 0
 318 344 318 339 317 336 c 0
 317 333 317 332 317 331 c 2
 317 331 242 331 242 331 c 1
 242 331 242 339 242 339 c 2
 242 376 227 412 178 412 c 0
 126 412 115 374 115 348 c 0xd8
 115 304 155 291 200 275 c 0
 259 255 327 231 327 133 c 0
 327 33 264 -11 179 -11 c 0
 72 -11 29 57 29 126 c 0
 29 135 30 140 30 142 c 0
 30 144 30 144 30 145 c 2
 30 145 106 145 106 145 c 1
 106 145 106 136 106 136 c 2
 106 78 140 53 182 53 c 0
 220 53 252 77 252 122 c 0xe4
 252 175 208 191 160 209 c 0
 103 229 40 252 40 343 c 0
 40 425 96 476 185 476 c 0xd8
EndSplineSet
EndChar

StartChar: sacute
Encoding: 347 347 223
Width: 362
GlyphClass: 2
Flags: MW
HStem: -11 64<161 201 161 221.5> 412 64<152 202.5> 522 117<129 284 129 284>
VStem: 29 77<107 130.5> 40 75<326 361 326 384> 242 76<331 382.5 346 357.5> 252 75<99.5 148.5>
LayerCount: 2
Back
Fore
SplineSet
190 522 m 1xec
 190 522 129 522 129 522 c 1
 129 522 204 639 204 639 c 1
 204 639 284 639 284 639 c 1
 284 639 285 636 285 636 c 1
 285 636 190 522 190 522 c 1xec
185 476 m 0
 271 476 318 417 318 348 c 0
 318 344 318 339 317 336 c 0
 317 333 317 332 317 331 c 2
 317 331 242 331 242 331 c 1
 242 331 242 339 242 339 c 2
 242 376 227 412 178 412 c 0
 126 412 115 374 115 348 c 0xec
 115 304 155 291 200 275 c 0
 259 255 327 231 327 133 c 0
 327 33 264 -11 179 -11 c 0
 72 -11 29 57 29 126 c 0
 29 135 30 140 30 142 c 0
 30 144 30 144 30 145 c 2
 30 145 106 145 106 145 c 1
 106 145 106 136 106 136 c 2
 106 78 140 53 182 53 c 0
 220 53 252 77 252 122 c 0xf2
 252 175 208 191 160 209 c 0
 103 229 40 252 40 343 c 0
 40 425 96 476 185 476 c 0
EndSplineSet
EndChar

